<svg width="512" height="700" viewBox="0 0 512 700" fill="none" xmlns="http://www.w3.org/2000/svg">
<path opacity="0.1" d="M573.768 666.587C567.975 644.383 394.733 574.323 331.569 549.361L334.764 547.2L335.017 547.039L345.613 539.73L346.027 539.431C349.59 536.972 353.199 534.42 356.853 531.846L357.336 531.524L368.3 523.686L368.898 523.249L379.885 515.273L380.528 514.791L385.999 510.768L386.321 510.538L391.492 506.677L392.159 506.194L397.515 502.172L398.112 501.712C399.79 500.448 401.445 499.207 403.077 497.942L403.629 497.529L408.823 493.552L409.674 492.886L414.501 489.162L414.892 488.84L419.926 484.91L420.868 484.174L425.603 480.404L425.833 480.221L430.614 476.382L431.602 475.577C434.743 473.018 437.808 470.49 440.796 467.992C441.118 467.716 441.44 467.441 441.785 467.188L445.738 463.855C490.79 467.142 549.84 462.82 560.85 456.959C561.377 456.683 561.858 456.326 562.275 455.902C564.343 453.856 564.711 450.661 562.574 446.708C558.16 439.398 520.395 428.71 488.491 419.125C491.502 409.333 490.123 394.645 485.733 390.278C480.163 385.345 473.056 382.494 465.621 382.21C452.772 384.67 440.589 389.382 433.234 385.267C426.453 381.475 424.362 369.545 416.156 355.018C410.295 347.456 404.433 342.307 399.928 343.526C394.32 345.043 392.09 352.283 390.389 363.339C388.389 374.119 389.24 391.359 390.619 406.115C381.425 409.724 371.541 413.677 361.221 417.907C319.226 435.146 269.279 457.258 224.089 480.841C148.237 413.172 50.7783 321.115 20.3455 327.597C9.65721 329.895 3.58902 335.642 1.47435 344.307C1.47435 344.307 1.47435 344.514 1.47435 344.629C1.21022 345.68 1.01822 346.747 0.899717 347.824C-0.269958 354.917 -0.269958 362.154 0.899717 369.246C3.06035 389.06 16.8057 417.516 38.3431 451.397C33.1484 453.948 28.0686 456.614 23.3106 459.396C18.8514 461.993 14.6451 464.659 10.9214 467.349C7.7494 469.096 5.77265 472.934 5.74966 478.428C6.03878 484.381 7.73532 490.18 10.7001 495.35C13.6648 500.521 17.8132 504.914 22.8049 508.171C28.1605 511.251 32.9415 511.182 36.0905 508.585C41.1933 505.78 46.7788 502.333 52.5252 498.563C56.5017 495.943 60.5471 493.184 64.5696 490.334C70.224 498.333 76.1619 506.516 82.3833 514.883C79.6481 516.331 76.9588 517.825 74.3614 519.319C70.097 521.762 65.9618 524.425 61.9722 527.295C58.8002 529.042 56.8235 532.88 56.8005 538.374C57.1215 544.303 58.8376 550.072 61.8092 555.213C64.7808 560.353 68.924 564.719 73.9017 567.956C75.5181 568.923 77.28 569.621 79.1194 570.025C62.271 583.356 53.1228 593.654 46.0433 603.883C44.779 605.721 43.5149 607.652 42.2966 609.629C40.8026 612.042 39.3775 614.525 38.0673 617.053C36.7571 619.582 35.5619 622.156 34.5275 624.73C26.6895 644.337 28.5053 663.806 63.926 664.334C101.461 665.484 164.097 640.269 216.274 615.077C225.958 618.019 235.559 620.884 245.075 623.673C243.098 624.937 241.213 626.224 239.42 627.512C236.248 629.259 234.272 633.074 234.272 638.568C234.538 644.522 236.215 650.327 239.164 655.506C242.113 660.685 246.25 665.09 251.235 668.357C256.59 671.437 261.371 671.368 264.52 668.771C269.623 665.966 275.209 662.519 280.955 658.749C289.345 653.232 298.056 647.003 306.101 641.05C320.513 644.912 334.603 648.566 348.257 651.968C345.613 653.623 343.085 655.301 340.763 656.979C337.591 658.726 335.615 662.565 335.592 668.058C335.91 673.988 337.623 679.759 340.59 684.903C343.557 690.047 347.696 694.419 352.67 697.663C358.026 700.743 362.807 700.674 365.979 698.077C371.081 695.273 376.667 691.825 382.413 688.032C392.504 681.413 403.1 673.758 412.294 666.771C494.582 684.194 553.655 689.618 571.561 679.298C572.108 679.042 572.606 678.692 573.032 678.264C575.331 675.965 575.56 671.989 573.768 666.587Z" fill="black"/>
<path d="M323.755 7.59158C314.17 2.05208 306.079 4.76436 303.504 13.3609C301.191 8.64333 297.61 4.66357 293.161 1.86819C285.645 -2.47607 279.53 1.01773 279.507 9.63729V13.5908L269.44 7.77546C264.176 4.74138 259.901 7.17784 259.878 13.223C260.049 16.5209 260.998 19.7314 262.648 22.5919C264.298 25.4524 266.602 27.8815 269.371 29.6807L354.67 78.9616C359.934 81.9957 364.209 79.5592 364.232 73.514C364.054 70.2179 363.102 67.0101 361.452 64.1508C359.803 61.2914 357.503 58.861 354.739 57.0564L344.648 51.2411V43.8627C344.786 30.5771 335.385 14.3034 323.755 7.59158Z" fill="#E6E6E6"/>
<path d="M240.064 39.8852C233.169 35.9087 227.376 37.8625 225.514 44.0456C223.861 40.648 221.289 37.7815 218.09 35.7708C212.711 32.6448 208.321 35.1502 208.298 41.3563V44.1835L201.058 40.0231C197.265 37.7246 194.162 39.5864 194.162 43.9306C194.3 46.3006 194.997 48.6042 196.196 50.6535C197.394 52.7027 199.06 54.4396 201.058 55.7222L262.36 91.1199C266.13 93.4184 269.256 91.5566 269.256 87.2124C269.125 84.8376 268.431 82.528 267.232 80.4738C266.033 78.4197 264.363 76.6799 262.36 75.3978L255.12 71.2374V65.9967C254.842 60.7668 253.333 55.6762 250.717 51.139C248.101 46.6018 244.451 42.7461 240.064 39.8852Z" fill="#E6E6E6"/>
<path d="M397.791 186.372C397.791 186.372 385.54 109.278 400.089 105.302C394.481 106.819 392.251 114.082 390.55 125.115C386.459 147.066 394.205 195.819 394.205 195.819L437.418 169.224C437.418 169.224 436.429 167.087 434.751 163.685L397.791 186.372Z" fill="#FF592D"/>
<path d="M397.791 186.372L434.798 163.663L441.165 159.732C441.165 159.732 414.088 101.326 399.998 105.325C385.54 109.302 397.791 186.372 397.791 186.372Z" fill="#FF592D"/>
<path opacity="0.2" d="M397.791 186.372L434.798 163.663L441.165 159.732C441.165 159.732 414.088 101.326 399.998 105.325C385.54 109.302 397.791 186.372 397.791 186.372Z" fill="black"/>
<path d="M163.89 270.338C163.69 266.489 162.579 262.742 160.649 259.405C158.719 256.069 156.025 253.238 152.788 251.145C151.778 250.446 150.626 249.977 149.415 249.77C148.204 249.564 146.962 249.625 145.777 249.95H145.663C143.364 250.731 89.555 268.89 61.8574 289.025L87.1415 330.123C116.264 314.033 161.04 277.256 161.04 277.256C162.038 276.419 162.819 275.352 163.316 274.148C163.812 272.943 164.009 271.635 163.89 270.338Z" fill="#FF592D"/>
<path opacity="0.2" d="M163.89 270.338C163.69 266.489 162.579 262.742 160.649 259.405C158.719 256.069 156.025 253.238 152.788 251.145C151.778 250.446 150.626 249.977 149.415 249.77C148.204 249.564 146.962 249.625 145.777 249.95H145.663C143.364 250.731 89.555 268.89 61.8574 289.025L87.1415 330.123C116.264 314.033 161.04 277.256 161.04 277.256C162.038 276.419 162.819 275.352 163.316 274.148C163.812 272.943 164.009 271.635 163.89 270.338Z" fill="black"/>
<path d="M104.474 313.943C104.474 301.875 95.9919 287.119 85.4875 281.05C83.4327 279.824 81.1752 278.976 78.8217 278.545C77.2817 279.395 75.7646 280.246 74.2246 281.119C77.6821 280.466 81.2579 281.201 84.1773 283.165C94.0151 288.842 101.991 302.657 101.945 313.943C102.107 317.105 101.2 320.23 99.3707 322.815L103.485 320.126C104.141 318.13 104.475 316.043 104.474 313.943Z" fill="white"/>
<path d="M73.9246 290.358C64.4776 284.887 56.7774 289.278 56.7314 300.15C57.0489 306.083 58.7633 311.857 61.7351 317.001C64.7069 322.146 68.852 326.516 73.8327 329.755C83.2797 335.226 90.9798 330.812 91.0258 319.94C90.7085 314.011 88.9939 308.24 86.0219 303.099C83.05 297.958 78.9048 293.592 73.9246 290.358ZM85.8541 316.975C85.8541 324.56 80.4525 327.64 73.8327 323.871C70.3565 321.605 67.4644 318.55 65.3914 314.955C63.3185 311.361 62.1234 307.328 61.9032 303.184C61.9009 302.297 61.9856 301.411 62.156 300.54C63.2823 294.909 68.1322 292.978 73.9246 296.311C77.4558 298.527 80.3663 301.604 82.3832 305.253C83.458 307.101 84.3142 309.068 84.9346 311.114C85.5255 313.028 85.8352 315.018 85.8541 317.021V316.975Z" fill="#FF592D"/>
<path d="M69.8343 297.99C69.832 297.111 69.9167 296.233 70.0872 295.37C70.0872 295.186 70.2021 295.025 70.2481 294.841C69.3399 294.604 68.391 294.567 67.467 294.732C66.543 294.898 65.666 295.262 64.8966 295.8C64.1272 296.337 63.4837 297.036 63.0107 297.847C62.5377 298.658 62.2465 299.561 62.1572 300.496C61.9868 301.366 61.9021 302.252 61.9043 303.139C62.1245 307.283 63.3197 311.316 65.3926 314.911C67.4655 318.505 70.3577 321.56 73.8338 323.826C79.4423 327.044 84.1313 325.343 85.4645 320.125C84.1692 319.842 82.9276 319.353 81.7868 318.677C78.3038 316.417 75.4052 313.364 73.3279 309.768C71.2506 306.173 70.0534 302.137 69.8343 297.99Z" fill="#37474F"/>
<path d="M84.9355 311.069C84.3151 309.023 83.4589 307.056 82.3841 305.207C80.3671 301.559 77.4566 298.482 73.9255 296.266C72.7793 295.606 71.5391 295.126 70.2478 294.841C70.2478 295.025 70.2478 295.186 70.0869 295.369C69.9164 296.232 69.8317 297.11 69.834 297.99C70.0531 302.136 71.2503 306.172 73.3276 309.768C75.4049 313.363 78.3035 316.416 81.7865 318.677C82.9273 319.352 84.1689 319.841 85.4642 320.125C85.7327 319.097 85.8641 318.038 85.8549 316.976C85.8361 314.973 85.5264 312.983 84.9355 311.069Z" fill="#263238"/>
<path d="M112.908 210.53C112.706 206.68 111.598 202.933 109.672 199.593C107.747 196.254 105.059 193.417 101.829 191.314C100.816 190.62 99.6648 190.154 98.4546 189.948C97.2445 189.742 96.004 189.8 94.8184 190.118C92.5198 190.9 38.6878 209.082 10.9902 229.194L36.2743 270.292C65.4199 254.202 110.196 217.425 110.196 217.425C111.17 216.58 111.926 215.511 112.398 214.31C112.871 213.11 113.046 211.813 112.908 210.53Z" fill="#FF592D"/>
<path opacity="0.2" d="M112.908 210.53C112.706 206.68 111.598 202.933 109.672 199.593C107.747 196.254 105.059 193.417 101.829 191.314C100.816 190.62 99.6648 190.154 98.4546 189.948C97.2445 189.742 96.004 189.8 94.8184 190.118C92.5198 190.9 38.6878 209.082 10.9902 229.194L36.2743 270.292C65.4199 254.202 110.196 217.425 110.196 217.425C111.17 216.58 111.926 215.511 112.398 214.31C112.871 213.11 113.046 211.813 112.908 210.53Z" fill="black"/>
<path d="M53.5595 254.134C53.5595 242.044 45.0778 227.287 34.5505 221.219C32.5075 219.99 30.2556 219.149 27.9076 218.736L23.3105 221.288C26.7785 220.632 30.365 221.376 33.2862 223.356C43.1011 229.034 51.0771 242.825 51.0541 254.134C51.2055 257.292 50.2907 260.409 48.4567 262.983L52.5941 260.317C53.2388 258.32 53.5646 256.233 53.5595 254.134Z" fill="white"/>
<path d="M22.9207 230.55C13.4507 225.08 5.75052 229.47 5.72754 240.342C6.04413 246.269 7.75596 252.038 10.7237 257.179C13.6914 262.319 17.8311 266.686 22.8058 269.924C32.2758 275.395 39.976 270.982 39.9989 260.133C39.6933 254.203 37.9861 248.43 35.0174 243.288C32.0487 238.145 27.9031 233.78 22.9207 230.55ZM34.8502 257.145C34.8502 264.73 29.4486 267.81 22.8288 264.04C19.3484 261.777 16.4517 258.723 14.3747 255.128C12.2977 251.534 11.099 247.499 10.8763 243.353C10.8854 242.474 10.97 241.597 11.1291 240.733C12.2784 235.101 17.1054 233.148 22.8977 236.504C26.4331 238.705 29.3453 241.775 31.3564 245.422C32.4258 247.276 33.2891 249.241 33.9308 251.283C34.5217 253.197 34.8313 255.187 34.8502 257.191V257.145Z" fill="#FF592D"/>
<path d="M18.83 238.181C18.8265 237.294 18.9112 236.408 19.0828 235.538C19.126 235.366 19.1797 235.197 19.2437 235.032C18.3338 234.787 17.3813 234.744 16.4529 234.906C15.5245 235.067 14.6428 235.431 13.8696 235.969C13.0964 236.508 12.4506 237.21 11.9773 238.025C11.504 238.839 11.2147 239.748 11.1298 240.687C10.9707 241.551 10.8861 242.428 10.877 243.307C11.0997 247.453 12.2984 251.487 14.3754 255.082C16.4524 258.677 19.349 261.73 22.8294 263.994C28.4379 267.235 33.1269 265.511 34.4601 260.316C33.1554 260.028 31.9058 259.532 30.7594 258.845C27.2812 256.587 24.387 253.537 22.3136 249.946C20.2402 246.354 19.0464 242.323 18.83 238.181Z" fill="#37474F"/>
<path d="M33.9317 251.238C33.29 249.196 32.4267 247.231 31.3573 245.377C29.3462 241.73 26.434 238.659 22.8986 236.458C21.7699 235.78 20.5341 235.298 19.2439 235.033C19.1799 235.198 19.1262 235.367 19.083 235.539C18.9114 236.409 18.8267 237.295 18.8302 238.182C19.0431 242.328 20.2351 246.364 22.3087 249.959C24.3823 253.555 27.2784 256.609 30.7597 258.869C31.906 259.556 33.1556 260.052 34.4603 260.34C34.7175 259.302 34.8487 258.237 34.8511 257.168C34.8345 255.157 34.5248 253.16 33.9317 251.238Z" fill="#263238"/>
<path d="M132.239 329.112C54.6863 232.205 -3.62793 147.527 0.877224 109.646C-0.292408 116.732 -0.292408 123.961 0.877224 131.046C5.47433 172.558 60.6396 251.49 132.17 340.927L243.512 271.694V259.926L132.239 329.112Z" fill="#FF592D"/>
<path d="M132.239 329.112L243.581 259.925C165.936 192.003 53.4909 82.4313 20.3918 89.4878C9.70349 91.7864 3.6353 97.5098 1.52063 106.198V106.474C1.25452 107.532 1.06251 108.607 0.945996 109.692C-3.62812 147.618 54.6861 232.205 132.239 329.112Z" fill="#FF592D"/>
<path opacity="0.2" d="M132.239 329.112L243.581 259.925C165.936 192.003 53.4909 82.4313 20.3918 89.4878C9.70349 91.7864 3.6353 97.5098 1.52063 106.198V106.474C1.25452 107.532 1.06251 108.607 0.945996 109.692C-3.62812 147.618 54.6861 232.205 132.239 329.112Z" fill="black"/>
<path d="M63.8579 426.18C122.264 427.95 241.398 365.958 287.346 339.432C333.294 312.907 457.025 224.505 485.803 186.579C492.078 178.235 491.181 157.387 485.803 152.1C480.424 146.814 469.414 142.561 457.209 144.354C445.004 146.147 296.103 200.876 192.485 259.925C88.8661 318.975 62.065 342.42 45.9752 365.659C29.8853 388.897 15.2665 425.582 63.8579 426.18Z" fill="#FF592D"/>
<path opacity="0.05" d="M63.8579 426.18C122.264 427.95 241.398 365.958 287.346 339.432C333.294 312.907 457.025 224.505 485.803 186.579C492.078 178.235 491.181 157.387 485.803 152.1C480.424 146.814 469.414 142.561 457.209 144.354C445.004 146.147 296.103 200.876 192.485 259.925C88.8661 318.975 62.065 342.42 45.9752 365.659C29.8853 388.897 15.2665 425.582 63.8579 426.18Z" fill="black"/>
<path d="M485.802 152.009C480.447 146.654 469.414 142.47 457.208 144.263C451.186 145.16 411.927 158.928 361.267 179.73C364.794 179.53 368.333 179.722 371.817 180.304C380.621 181.821 389.309 186.924 392.78 195.176C397.952 207.404 390.068 221.402 380.115 230.206C370.162 239.009 357.819 245.238 349.705 255.766C340.005 268.385 337.937 285.026 333.753 300.404C332.658 304.534 331.252 308.576 329.547 312.494C385.425 274.752 463.667 215.817 485.848 186.579C492.077 178.236 491.181 157.388 485.802 152.009Z" fill="#FF592D"/>
<path opacity="0.2" d="M485.802 152.009C480.447 146.654 469.414 142.47 457.208 144.263C451.186 145.16 411.927 158.928 361.267 179.73C364.794 179.53 368.333 179.722 371.817 180.304C380.621 181.821 389.309 186.924 392.78 195.176C397.952 207.404 390.068 221.402 380.115 230.206C370.162 239.009 357.819 245.238 349.705 255.766C340.005 268.385 337.937 285.026 333.753 300.404C332.658 304.534 331.252 308.576 329.547 312.494C385.425 274.752 463.667 215.817 485.848 186.579C492.077 178.236 491.181 157.388 485.802 152.009Z" fill="white"/>
<path d="M341.385 370.624C341.181 366.773 340.069 363.024 338.139 359.684C336.21 356.345 333.518 353.509 330.283 351.408C329.284 350.733 328.152 350.277 326.964 350.071C325.775 349.865 324.556 349.913 323.388 350.213C321.089 351.017 267.257 369.176 239.56 389.288L264.844 430.386C293.966 414.297 338.742 377.52 338.765 377.52C339.723 376.665 340.461 375.592 340.918 374.392C341.374 373.192 341.534 371.899 341.385 370.624Z" fill="#FF592D"/>
<path opacity="0.2" d="M341.385 370.624C341.181 366.773 340.069 363.024 338.139 359.684C336.21 356.345 333.518 353.509 330.283 351.408C329.284 350.733 328.152 350.277 326.964 350.071C325.775 349.865 324.556 349.913 323.388 350.213C321.089 351.017 267.257 369.176 239.56 389.288L264.844 430.386C293.966 414.297 338.742 377.52 338.765 377.52C339.723 376.665 340.461 375.592 340.918 374.392C341.374 373.192 341.534 371.899 341.385 370.624Z" fill="black"/>
<path d="M281.945 414.229C281.945 402.161 273.441 387.382 262.936 381.313C260.887 380.098 258.637 379.258 256.293 378.831L251.696 381.382C255.157 380.738 258.732 381.481 261.649 383.451C271.487 389.129 279.463 402.92 279.44 414.229C279.591 417.386 278.676 420.503 276.842 423.078L280.98 420.412C281.603 418.409 281.928 416.326 281.945 414.229Z" fill="white"/>
<path d="M251.396 390.644C241.926 385.174 234.226 389.564 234.203 400.436C234.507 406.361 236.209 412.13 239.169 417.271C242.129 422.412 246.264 426.78 251.235 430.018C260.705 435.489 268.406 431.099 268.429 420.226C268.121 414.302 266.417 408.535 263.458 403.394C260.498 398.253 256.365 393.885 251.396 390.644ZM263.303 417.238C263.303 424.847 257.924 427.927 251.304 424.134C247.82 421.875 244.921 418.822 242.843 415.226C240.766 411.631 239.569 407.594 239.352 403.447C239.348 402.56 239.433 401.674 239.605 400.804C240.731 395.172 245.581 393.218 251.373 396.574C254.909 398.775 257.821 401.846 259.832 405.493C260.904 407.343 261.76 409.309 262.383 411.354C262.982 413.266 263.292 415.257 263.303 417.261V417.238Z" fill="#FF592D"/>
<path d="M247.306 398.276C247.295 397.389 247.372 396.504 247.536 395.632C247.536 395.449 247.65 395.311 247.696 395.127C246.788 394.885 245.838 394.845 244.912 395.009C243.987 395.173 243.108 395.536 242.338 396.075C241.567 396.613 240.924 397.313 240.452 398.126C239.98 398.939 239.691 399.845 239.606 400.781C239.434 401.652 239.349 402.537 239.353 403.425C239.57 407.572 240.766 411.608 242.844 415.204C244.921 418.8 247.821 421.852 251.305 424.111C256.891 427.352 261.603 425.629 262.936 420.434C261.632 420.155 260.382 419.666 259.235 418.986C255.756 416.717 252.862 413.659 250.789 410.06C248.716 406.461 247.522 402.423 247.306 398.276Z" fill="#37474F"/>
<path d="M262.384 411.331C261.76 409.286 260.904 407.319 259.833 405.469C257.822 401.823 254.909 398.752 251.374 396.551C250.234 395.878 248.992 395.397 247.696 395.126C247.696 395.31 247.696 395.448 247.536 395.632C247.372 396.503 247.295 397.388 247.306 398.275C247.526 402.419 248.721 406.452 250.794 410.047C252.867 413.641 255.759 416.696 259.235 418.962C260.382 419.642 261.632 420.131 262.936 420.41C263.185 419.371 263.308 418.306 263.304 417.238C263.293 415.234 262.983 413.243 262.384 411.331Z" fill="#263238"/>
<path d="M442.844 399.908C442.642 396.059 441.533 392.312 439.608 388.972C437.682 385.633 434.995 382.796 431.765 380.693C430.752 379.999 429.6 379.533 428.39 379.327C427.18 379.121 425.94 379.179 424.754 379.497H424.639C422.341 380.279 368.509 398.46 340.834 418.573L366.118 459.671C395.241 443.581 440.016 406.804 440.016 406.804C441.012 405.971 441.79 404.907 442.282 403.706C442.775 402.504 442.967 401.201 442.844 399.908Z" fill="#FF592D"/>
<path opacity="0.2" d="M442.844 399.908C442.642 396.059 441.533 392.312 439.608 388.972C437.682 385.633 434.995 382.796 431.765 380.693C430.752 379.999 429.6 379.533 428.39 379.327C427.18 379.121 425.94 379.179 424.754 379.497H424.639C422.341 380.279 368.509 398.46 340.834 418.573L366.118 459.671C395.241 443.581 440.016 406.804 440.016 406.804C441.012 405.971 441.79 404.907 442.282 403.706C442.775 402.504 442.967 401.201 442.844 399.908Z" fill="black"/>
<path d="M383.403 443.511C383.403 431.421 374.922 416.664 364.417 410.596C362.366 409.366 360.107 408.525 357.751 408.113L353.154 410.665C356.622 410.006 360.21 410.75 363.13 412.733C368.306 416.102 372.613 420.645 375.701 425.994C378.788 431.342 380.569 437.344 380.898 443.511C381.062 446.67 380.146 449.791 378.3 452.36L382.438 449.694C383.082 447.697 383.408 445.61 383.403 443.511Z" fill="white"/>
<path d="M352.855 419.927C343.385 414.457 335.708 418.847 335.662 429.719C335.984 435.645 337.698 441.412 340.665 446.551C343.633 451.691 347.769 456.059 352.74 459.301C362.21 464.772 369.911 460.359 369.934 449.51C369.628 443.58 367.921 437.807 364.952 432.665C361.983 427.522 357.838 423.157 352.855 419.927ZM364.785 446.521C364.785 454.107 359.383 457.187 352.763 453.417C349.283 451.155 346.388 448.101 344.315 444.506C342.241 440.91 341.049 436.875 340.834 432.73C340.831 431.851 340.916 430.973 341.087 430.11C342.213 424.478 347.04 422.525 352.855 425.88C356.391 428.082 359.303 431.152 361.314 434.799C362.386 436.649 363.242 438.615 363.865 440.66C364.456 442.574 364.766 444.564 364.785 446.567V446.521Z" fill="#FF592D"/>
<path d="M348.764 427.56C348.761 426.673 348.845 425.787 349.017 424.917C349.017 424.733 349.017 424.595 349.178 424.411C348.269 424.17 347.319 424.129 346.394 424.293C345.468 424.457 344.589 424.821 343.819 425.359C343.049 425.897 342.405 426.598 341.933 427.41C341.461 428.223 341.172 429.129 341.087 430.065C340.916 430.928 340.832 431.806 340.834 432.686C341.049 436.831 342.242 440.866 344.315 444.462C346.388 448.057 349.284 451.111 352.764 453.373C358.372 456.614 363.061 454.89 364.394 449.695C363.091 449.403 361.842 448.907 360.693 448.224C357.215 445.966 354.321 442.916 352.248 439.324C350.174 435.733 348.98 431.701 348.764 427.56Z" fill="#37474F"/>
<path d="M363.865 440.615C363.242 438.57 362.386 436.603 361.314 434.754C359.303 431.107 356.391 428.036 352.855 425.835C351.718 425.156 350.475 424.674 349.177 424.41C349.177 424.594 349.063 424.732 349.017 424.916C348.845 425.786 348.76 426.672 348.764 427.559C348.977 431.705 350.169 435.741 352.242 439.336C354.316 442.932 357.212 445.985 360.693 448.246C361.841 448.929 363.09 449.425 364.394 449.717C364.662 448.682 364.794 447.615 364.785 446.545C364.768 444.534 364.458 442.537 363.865 440.615Z" fill="#263238"/>
<path d="M573.768 428.248C574.052 429.143 573.99 430.112 573.595 430.963C573.199 431.815 572.498 432.486 571.63 432.846C540.646 450.728 386.206 421.353 201.563 364.303V372.532C386.252 429.605 540.692 458.934 571.63 441.051C572.12 440.78 572.563 440.431 572.94 440.017C575.331 437.718 575.561 433.673 573.768 428.248Z" fill="#FF592D"/>
<path d="M571.63 432.73C572.498 432.371 573.199 431.7 573.595 430.848C573.991 429.997 574.053 429.028 573.768 428.133C566.689 401.079 308.699 302.265 308.699 302.265L201.426 364.188C386.206 421.261 540.646 450.705 571.63 432.73Z" fill="#FF592D"/>
<path opacity="0.2" d="M571.63 432.73C572.498 432.371 573.199 431.7 573.595 430.848C573.991 429.997 574.053 429.028 573.768 428.133C566.689 401.079 308.699 302.265 308.699 302.265L201.426 364.188C386.206 421.261 540.646 450.705 571.63 432.73Z" fill="black"/>
<path d="M144.444 397.15L155.937 390.461C156.497 390.149 156.989 389.727 157.384 389.222C157.779 388.717 158.068 388.138 158.236 387.519C160.006 380.738 161.362 364.855 159.224 355.73C159.157 355.356 158.998 355.006 158.762 354.709C158.526 354.412 158.221 354.178 157.873 354.028C157.524 353.878 157.145 353.816 156.767 353.848C156.389 353.88 156.025 354.006 155.707 354.213L143.295 361.384C142.442 361.886 141.764 362.638 141.353 363.539C140.942 364.439 140.817 365.444 140.997 366.418C142.42 375.791 142.381 385.329 140.882 394.69C140.759 395.148 140.781 395.633 140.945 396.078C141.109 396.522 141.406 396.906 141.796 397.175C142.187 397.444 142.65 397.587 143.124 397.582C143.599 397.577 144.06 397.426 144.444 397.15Z" fill="#FF592D"/>
<path d="M356.119 279.211L367.612 272.499C368.171 272.186 368.663 271.764 369.057 271.259C369.452 270.754 369.742 270.175 369.911 269.557C371.68 262.776 373.037 246.893 370.899 237.768C370.832 237.395 370.673 237.044 370.437 236.747C370.201 236.45 369.896 236.216 369.547 236.066C369.199 235.916 368.819 235.854 368.442 235.886C368.064 235.918 367.7 236.044 367.382 236.251L354.97 243.422C354.112 243.919 353.43 244.671 353.018 245.573C352.607 246.475 352.485 247.482 352.671 248.456C354.083 257.83 354.044 267.366 352.556 276.728C352.427 277.188 352.444 277.676 352.605 278.126C352.766 278.575 353.064 278.963 353.455 279.236C353.847 279.509 354.314 279.653 354.791 279.649C355.269 279.644 355.733 279.491 356.119 279.211Z" fill="#FF592D"/>
<path opacity="0.2" d="M144.444 397.15L155.937 390.461C156.497 390.149 156.989 389.727 157.384 389.222C157.779 388.717 158.068 388.138 158.236 387.519C160.006 380.738 161.362 364.855 159.224 355.73C159.157 355.356 158.998 355.006 158.762 354.709C158.526 354.412 158.221 354.178 157.873 354.028C157.524 353.878 157.145 353.816 156.767 353.848C156.389 353.88 156.025 354.006 155.707 354.213L143.295 361.384C142.442 361.886 141.764 362.638 141.353 363.539C140.942 364.439 140.817 365.444 140.997 366.418C142.42 375.791 142.381 385.329 140.882 394.69C140.759 395.148 140.781 395.633 140.945 396.078C141.109 396.522 141.406 396.906 141.796 397.175C142.187 397.444 142.65 397.587 143.124 397.582C143.599 397.577 144.06 397.426 144.444 397.15Z" fill="black"/>
<path opacity="0.2" d="M356.119 279.211L367.612 272.499C368.171 272.186 368.663 271.764 369.057 271.259C369.452 270.754 369.742 270.175 369.911 269.557C371.68 262.776 373.037 246.893 370.899 237.768C370.832 237.395 370.673 237.044 370.437 236.747C370.201 236.45 369.896 236.216 369.547 236.066C369.199 235.916 368.819 235.854 368.442 235.886C368.064 235.918 367.7 236.044 367.382 236.251L354.97 243.422C354.112 243.919 353.43 244.671 353.018 245.573C352.607 246.475 352.485 247.482 352.671 248.456C354.083 257.83 354.044 267.366 352.556 276.728C352.427 277.188 352.444 277.676 352.605 278.126C352.766 278.575 353.064 278.963 353.455 279.236C353.847 279.509 354.314 279.653 354.791 279.649C355.269 279.644 355.733 279.491 356.119 279.211Z" fill="black"/>
<path d="M151.594 368.348C154.444 366.693 156.765 368.026 156.788 371.313V375.519C156.697 377.31 156.183 379.054 155.288 380.609C154.393 382.163 153.143 383.483 151.64 384.461C148.766 386.116 146.445 384.783 146.422 381.496V377.289C146.514 375.496 147.031 373.75 147.93 372.195C148.829 370.64 150.085 369.322 151.594 368.348Z" fill="#37474F"/>
<path d="M169.154 358.213C172.004 356.581 174.326 357.891 174.349 361.178V365.384C174.258 367.175 173.744 368.919 172.849 370.474C171.954 372.028 170.703 373.348 169.2 374.326C166.327 375.981 164.005 374.67 163.982 371.384V367.154C164.074 365.361 164.591 363.615 165.49 362.06C166.389 360.505 167.645 359.187 169.154 358.213Z" fill="#37474F"/>
<path d="M186.692 348.076C189.542 346.444 191.887 347.754 191.887 351.041V355.248C191.782 357.038 191.26 358.779 190.362 360.332C189.464 361.885 188.215 363.205 186.715 364.189C183.865 365.844 181.521 364.534 181.521 361.247V357.017C181.625 355.227 182.147 353.486 183.045 351.933C183.943 350.38 185.192 349.06 186.692 348.076Z" fill="#37474F"/>
<path d="M204.253 338.077C207.103 336.422 209.448 337.732 209.448 341.019V345.249C209.339 347.035 208.816 348.772 207.918 350.32C207.02 351.869 205.773 353.186 204.276 354.167C201.426 355.822 199.081 354.512 199.081 351.225V347.019C199.186 345.228 199.708 343.487 200.606 341.934C201.504 340.382 202.753 339.061 204.253 338.077Z" fill="#37474F"/>
<path d="M221.815 327.825C224.665 326.17 226.987 327.481 227.01 330.767V334.997C226.919 336.788 226.405 338.532 225.51 340.086C224.615 341.64 223.365 342.96 221.861 343.938C219.011 345.57 216.667 344.26 216.644 340.973V336.767C216.748 334.976 217.27 333.235 218.168 331.682C219.066 330.13 220.315 328.809 221.815 327.825Z" fill="#37474F"/>
<path d="M239.375 317.689C242.225 316.034 244.547 317.367 244.57 320.654V324.86C244.478 326.651 243.964 328.395 243.069 329.949C242.175 331.504 240.924 332.824 239.421 333.802C236.548 335.456 234.226 334.123 234.203 330.836V326.584C234.302 324.798 234.822 323.062 235.721 321.516C236.62 319.969 237.872 318.658 239.375 317.689Z" fill="#37474F"/>
<path d="M256.936 307.552C259.763 305.92 262.108 307.23 262.108 310.517V314.723C262.006 316.512 261.487 318.252 260.593 319.804C259.699 321.357 258.455 322.679 256.959 323.664C254.086 325.319 251.741 324.009 251.741 320.722V316.493C251.848 314.7 252.374 312.958 253.276 311.405C254.178 309.852 255.432 308.533 256.936 307.552Z" fill="#37474F"/>
<path d="M274.474 297.416C277.325 295.784 279.669 297.094 279.669 300.381V304.587C279.565 306.378 279.042 308.119 278.144 309.672C277.246 311.224 275.997 312.545 274.497 313.529C271.647 315.184 269.303 313.874 269.303 310.587V306.357C269.407 304.567 269.929 302.825 270.828 301.273C271.726 299.72 272.974 298.399 274.474 297.416Z" fill="#37474F"/>
<path d="M292.035 287.303C294.886 285.648 297.23 286.958 297.23 290.245V294.405C297.141 296.194 296.628 297.935 295.732 299.486C294.837 301.037 293.586 302.352 292.081 303.324C289.231 304.979 286.887 303.669 286.887 300.382V296.244C286.989 294.456 287.507 292.716 288.401 291.163C289.295 289.611 290.54 288.289 292.035 287.303Z" fill="#37474F"/>
<path d="M309.596 277.165C312.446 275.51 314.767 276.82 314.79 280.13V284.336C314.699 286.127 314.185 287.871 313.29 289.425C312.395 290.979 311.145 292.299 309.642 293.277C306.768 294.909 304.447 293.599 304.424 290.312V286.106C304.516 284.312 305.032 282.566 305.932 281.012C306.831 279.457 308.087 278.138 309.596 277.165Z" fill="#37474F"/>
<path d="M327.087 267.027C329.915 265.395 332.259 266.705 332.259 269.992V274.199C332.157 275.987 331.638 277.727 330.744 279.28C329.851 280.832 328.606 282.154 327.11 283.14C324.237 284.795 321.893 283.485 321.893 280.175V276.015C321.98 274.211 322.497 272.454 323.4 270.891C324.304 269.328 325.568 268.003 327.087 267.027Z" fill="#37474F"/>
<path d="M344.694 256.891C347.544 255.26 349.889 256.57 349.889 259.857V264.063C349.784 265.854 349.262 267.595 348.364 269.147C347.466 270.7 346.217 272.021 344.717 273.004C341.867 274.659 339.522 273.349 339.522 270.062V265.833C339.627 264.042 340.149 262.301 341.047 260.748C341.945 259.196 343.194 257.875 344.694 256.891Z" fill="#37474F"/>
<path d="M362.257 246.756C365.107 245.124 367.451 246.434 367.451 249.721V253.95C367.343 255.737 366.82 257.473 365.922 259.022C365.024 260.57 363.777 261.887 362.28 262.869C359.43 264.524 357.085 263.213 357.085 259.926V255.697C357.189 253.907 357.712 252.165 358.61 250.613C359.508 249.06 360.757 247.739 362.257 246.756Z" fill="#37474F"/>
<path d="M379.816 236.642C382.666 234.987 384.988 236.297 385.011 239.584V243.836C384.922 245.625 384.408 247.366 383.513 248.917C382.618 250.468 381.366 251.783 379.862 252.755C376.989 254.41 374.668 253.099 374.645 249.812V245.606C374.729 243.808 375.243 242.056 376.142 240.496C377.042 238.937 378.302 237.615 379.816 236.642Z" fill="#37474F"/>
<path d="M461.783 45.218C461.989 45.4461 462.173 45.6923 462.335 45.9536C461.249 44.0298 459.668 42.4314 457.756 41.3241C455.845 40.2167 453.672 39.6407 451.463 39.6556H451.095H450.635C433.097 41.9541 410.181 115.278 410.181 175.27L415.26 178.419C415.26 111.278 444.015 27.4502 461.783 45.218Z" fill="#FF592D"/>
<path d="M462.565 46.3213L462.381 46.0225C462.443 46.1171 462.497 46.2171 462.542 46.3213H462.565Z" fill="#455A64"/>
<path d="M462.542 46.3217C462.497 46.2175 462.443 46.1175 462.381 46.0229C462.22 45.7616 462.035 45.5154 461.829 45.2873C444.061 27.5195 415.307 111.348 415.307 178.603L465.369 149.596C467.829 108.222 468.15 56.2974 462.542 46.3217Z" fill="#FF592D"/>
<path opacity="0.2" d="M462.542 46.3217C462.497 46.2175 462.443 46.1175 462.381 46.0229C462.22 45.7616 462.035 45.5154 461.829 45.2873C444.061 27.5195 415.307 111.348 415.307 178.603L465.369 149.596C467.829 108.222 468.15 56.2974 462.542 46.3217Z" fill="black"/>
<path d="M562.644 208.53C563.518 209.978 563.035 211.312 560.898 212.461C547.106 219.839 459.003 224.735 416.089 215.541V221.747C459.003 230.941 547.106 226.045 560.898 218.644C561.429 218.375 561.911 218.018 562.323 217.587C564.414 215.587 564.782 212.369 562.644 208.53Z" fill="#FF592D"/>
<path d="M560.896 212.46C563.034 211.311 563.516 209.977 562.643 208.529C557.862 200.622 513.776 188.693 480.516 178.487L416.156 215.586C459.001 224.734 547.197 219.838 560.896 212.46Z" fill="#FF592D"/>
<path opacity="0.2" d="M560.896 212.46C563.034 211.311 563.516 209.977 562.643 208.529C557.862 200.622 513.776 188.693 480.516 178.487L416.156 215.586C459.001 224.734 547.197 219.838 560.896 212.46Z" fill="black"/>
<path d="M87.1188 385.955C80.8702 387.512 74.4763 388.414 68.0408 388.644C61.0397 388.91 54.1694 386.696 48.641 382.392C45.3208 379.562 43.0597 375.688 42.2281 371.405C39.209 376.23 36.6097 381.306 34.459 386.576C34.8708 389.332 35.8674 391.967 37.3818 394.307C38.8962 396.646 40.8934 398.634 43.2394 400.137C49.3076 404.114 56.8239 405.148 64.0873 405.148C72.0353 405.145 79.9433 404.023 87.5785 401.815C88.0965 401.663 88.5601 401.366 88.9145 400.958C89.2688 400.551 89.4992 400.051 89.5782 399.517C90.0651 395.919 90.3567 392.297 90.4517 388.667C90.4827 388.247 90.4117 387.825 90.2447 387.437C90.0777 387.05 89.8196 386.709 89.4924 386.442C89.1652 386.176 88.7785 385.993 88.3653 385.908C87.952 385.823 87.5244 385.839 87.1188 385.955Z" fill="#37474F"/>
</svg>
