<svg width="552" height="585" viewBox="0 0 552 585" fill="none" xmlns="http://www.w3.org/2000/svg">
<path d="M-66.1156 530.604C75.1051 602.404 303.966 602.404 445.153 530.604C586.341 458.803 586.374 342.435 445.153 270.634C303.933 198.834 75.0719 198.85 -66.1156 270.634C-207.303 342.419 -207.286 458.819 -66.1156 530.604Z" fill="#F5F5F5"/>
<path d="M428.803 268.194L441.247 274.549L442.294 266.965C436.13 250.05 441.197 230.871 447.86 222.882C454.522 214.893 453.242 209.023 450.833 206.404C448.424 203.784 439.287 201.795 430.248 212.08C421.21 222.365 419.134 234.849 420.645 247.446C421.609 255.322 425.862 263.407 428.803 268.194Z" fill="#FF592D"/>
<path opacity="0.2" d="M428.803 268.194L441.247 274.549L442.294 266.965C436.13 250.05 441.197 230.871 447.86 222.882C454.522 214.893 453.242 209.023 450.833 206.404C448.424 203.784 439.287 201.795 430.248 212.08C421.21 222.365 419.134 234.849 420.645 247.446C421.609 255.322 425.862 263.407 428.803 268.194Z" fill="black"/>
<path d="M433.94 270.814L436.398 272.075C436.375 272.03 436.347 271.987 436.315 271.946C432.793 267.871 428.241 247.915 430.152 236.224C432.511 221.783 440.12 212.355 446.633 208.36C446.713 208.313 446.782 208.25 446.836 208.175C446.89 208.101 446.929 208.017 446.949 207.928C446.969 207.839 446.971 207.747 446.953 207.657C446.936 207.568 446.901 207.482 446.849 207.406C446.744 207.252 446.58 207.143 446.394 207.104C446.208 207.065 446.014 207.098 445.852 207.196C439.206 211.352 431.165 221.103 428.723 236.013C426.962 246.897 430.484 264.135 433.94 270.814Z" fill="white"/>
<path d="M441.498 239.328C445.136 248.012 445.12 252.265 439.189 253.154C433.839 253.93 427.343 260.253 433.374 270.522L468.662 288.537C468.751 286.617 469.238 284.735 470.095 283.003C470.952 281.272 472.16 279.727 473.646 278.462C479.445 272.818 484.794 268.565 483.964 262.291C483.133 256.016 477.534 249.968 476.604 244.503C475.673 239.037 478.531 235.916 484.628 229.787C490.726 223.658 496.258 214.149 488.117 209.815C479.976 205.481 470.656 212.904 466.768 217.901C462.88 222.898 459.325 225.097 451.666 224.677C444.007 224.256 437.859 230.644 441.498 239.328Z" fill="#FF592D"/>
<path d="M451.483 279.773C451.316 253.122 470.938 221.912 481.853 215.605C482.014 215.505 482.13 215.349 482.176 215.168C482.223 214.988 482.196 214.797 482.103 214.635C482.003 214.479 481.845 214.367 481.662 214.322C481.48 214.277 481.286 214.302 481.122 214.392C470.057 220.861 450.27 252.087 450.054 279.077L451.483 279.773Z" fill="white"/>
<path d="M456.733 252.072C456.584 252.105 456.426 252.088 456.288 252.024C456.149 251.959 456.037 251.851 455.969 251.716C452.799 245.961 450.132 239.956 447.994 233.766C447.966 233.679 447.956 233.587 447.964 233.496C447.972 233.405 447.998 233.317 448.041 233.236C448.084 233.155 448.144 233.083 448.215 233.024C448.287 232.965 448.37 232.92 448.46 232.893C448.549 232.865 448.643 232.855 448.737 232.863C448.83 232.871 448.921 232.896 449.005 232.938C449.088 232.98 449.162 233.038 449.222 233.108C449.283 233.178 449.328 233.259 449.357 233.346C451.475 239.45 454.109 245.373 457.232 251.053C457.321 251.219 457.339 251.411 457.283 251.59C457.227 251.768 457.101 251.918 456.933 252.007L456.733 252.072Z" fill="white"/>
<path d="M452.014 268.406C451.878 268.43 451.738 268.417 451.609 268.369C451.48 268.32 451.367 268.238 451.283 268.131C451.174 267.976 451.132 267.786 451.166 267.601C451.2 267.416 451.308 267.252 451.466 267.144C458.621 262.269 467.301 259.981 476.005 260.676C476.195 260.699 476.367 260.795 476.484 260.942C476.6 261.089 476.652 261.276 476.628 261.46C476.604 261.645 476.505 261.812 476.354 261.926C476.203 262.039 476.012 262.09 475.822 262.067C467.488 261.449 459.187 263.623 452.297 268.228C452.216 268.305 452.12 268.365 452.014 268.406Z" fill="white"/>
<path d="M243.505 105.608L203.016 82.8555L162.544 105.608L203.016 128.361L243.505 105.608Z" fill="#F5F5F5"/>
<path d="M203.016 173.884L243.504 151.131V105.608L203.016 128.361V173.884Z" fill="#EBEBEB"/>
<path d="M210.826 158.779C210.612 158.783 210.4 158.733 210.211 158.633C209.953 158.45 209.747 158.205 209.613 157.922C209.479 157.639 209.422 157.327 209.447 157.016V152.165V151.809H209.696L213.584 149.594V154.979C213.579 155.672 213.402 156.354 213.07 156.968C212.737 157.581 212.258 158.108 211.673 158.504C211.422 158.669 211.129 158.764 210.826 158.779ZM210.078 152.521V156.984C210.051 157.192 210.077 157.403 210.156 157.598C210.234 157.793 210.362 157.966 210.527 158.1C210.661 158.158 210.81 158.18 210.956 158.163C211.102 158.146 211.241 158.091 211.358 158.003C211.855 157.665 212.265 157.218 212.553 156.699C212.842 156.179 213.001 155.601 213.019 155.011V154.623H211.574L211.291 152.731L210.078 152.521ZM212.072 154.009H212.969V150.693L210.643 152.003L211.79 152.213L212.072 154.009Z" fill="white"/>
<path d="M211.522 162.628C211.438 162.628 211.358 162.595 211.299 162.538C211.24 162.48 211.207 162.402 211.207 162.32V158.277C211.204 158.236 211.211 158.195 211.226 158.157C211.241 158.119 211.264 158.084 211.294 158.055C211.323 158.026 211.359 158.003 211.399 157.989C211.438 157.974 211.48 157.968 211.522 157.97C211.606 157.97 211.686 158.003 211.745 158.06C211.805 158.118 211.838 158.196 211.838 158.277V162.256C211.845 162.301 211.842 162.347 211.83 162.39C211.817 162.434 211.795 162.475 211.766 162.51C211.736 162.545 211.699 162.574 211.657 162.594C211.615 162.614 211.569 162.626 211.522 162.628Z" fill="white"/>
<path d="M209.713 163.648C209.658 163.647 209.603 163.632 209.556 163.604C209.51 163.575 209.472 163.534 209.447 163.486C209.424 163.453 209.409 163.415 209.402 163.376C209.396 163.337 209.398 163.296 209.409 163.258C209.42 163.219 209.44 163.184 209.466 163.153C209.493 163.123 209.526 163.098 209.563 163.082L213.169 161.044C213.205 161.024 213.244 161.011 213.286 161.006C213.327 161 213.369 161.003 213.409 161.013C213.449 161.024 213.487 161.042 213.52 161.067C213.552 161.092 213.58 161.122 213.601 161.157C213.639 161.229 213.648 161.312 213.626 161.39C213.605 161.467 213.554 161.534 213.484 161.578L209.862 163.599L209.713 163.648Z" fill="white"/>
<path d="M222.605 156.661C222.491 156.694 222.37 156.694 222.256 156.661C222.135 156.581 222.037 156.472 221.973 156.345C221.909 156.217 221.88 156.075 221.891 155.933V155.108C221.888 155.069 221.894 155.029 221.908 154.992C221.923 154.955 221.944 154.921 221.972 154.892C222 154.863 222.034 154.84 222.071 154.825C222.109 154.809 222.149 154.801 222.19 154.801C222.232 154.799 222.274 154.805 222.313 154.82C222.353 154.834 222.389 154.857 222.418 154.886C222.448 154.915 222.471 154.95 222.486 154.988C222.501 155.026 222.508 155.067 222.505 155.108V155.787C222.505 155.917 222.505 155.981 222.505 155.981C222.505 155.981 222.605 155.981 222.705 155.981C222.898 155.811 223.051 155.6 223.151 155.365C223.252 155.131 223.298 154.877 223.286 154.623V149.319C223.286 149.279 223.294 149.24 223.311 149.204C223.327 149.167 223.35 149.134 223.38 149.107C223.409 149.08 223.444 149.059 223.482 149.045C223.521 149.031 223.561 149.026 223.602 149.028C223.681 149.028 223.757 149.058 223.813 149.113C223.87 149.168 223.901 149.242 223.901 149.319V154.72C223.913 155.08 223.84 155.438 223.688 155.766C223.535 156.094 223.307 156.384 223.02 156.612C222.886 156.654 222.745 156.67 222.605 156.661Z" fill="white"/>
<path d="M219.315 151.956V151.438C219.393 150.092 219.794 148.781 220.487 147.613C221.179 146.445 222.144 145.451 223.303 144.711C223.718 144.372 224.23 144.164 224.77 144.118C225.309 144.071 225.851 144.187 226.321 144.45C226.791 144.713 227.166 145.11 227.396 145.588C227.626 146.066 227.699 146.601 227.606 147.121V147.299L219.315 151.956ZM225.164 144.776C224.614 144.793 224.08 144.955 223.619 145.245C222.632 145.878 221.795 146.709 221.165 147.683C220.535 148.656 220.125 149.749 219.963 150.889L226.975 146.959C227.001 146.577 226.926 146.195 226.758 145.85C226.589 145.504 226.332 145.207 226.011 144.986C225.753 144.844 225.46 144.771 225.164 144.776Z" fill="white"/>
<path d="M233.72 150.452C233.639 150.452 233.561 150.422 233.502 150.368C233.444 150.313 233.409 150.239 233.404 150.161V139.843C233.404 139.762 233.438 139.684 233.497 139.626C233.556 139.569 233.636 139.536 233.72 139.536C233.804 139.536 233.884 139.569 233.943 139.626C234.002 139.684 234.036 139.762 234.036 139.843V150.161C234.031 150.239 233.996 150.313 233.937 150.368C233.879 150.422 233.801 150.452 233.72 150.452Z" fill="white"/>
<path d="M232.872 142.189H232.755C232.717 142.173 232.683 142.15 232.653 142.121C232.624 142.092 232.602 142.058 232.586 142.02C232.571 141.982 232.563 141.942 232.564 141.902C232.564 141.861 232.573 141.821 232.589 141.784L233.702 139.294L234.932 140.685C234.958 140.714 234.978 140.749 234.99 140.786C235.003 140.823 235.008 140.863 235.005 140.902C235.002 140.941 234.991 140.979 234.972 141.014C234.954 141.049 234.929 141.08 234.899 141.105C234.868 141.131 234.833 141.15 234.794 141.162C234.756 141.174 234.716 141.179 234.676 141.176C234.636 141.173 234.597 141.162 234.561 141.145C234.525 141.127 234.493 141.103 234.467 141.073L233.869 140.426L233.154 142.043C233.126 142.091 233.085 142.13 233.035 142.156C232.985 142.181 232.928 142.193 232.872 142.189Z" fill="white"/>
<path d="M236.661 148.867C236.58 148.863 236.504 148.829 236.448 148.772C236.393 148.714 236.362 148.639 236.362 148.56V138.242C236.351 138.197 236.351 138.151 236.361 138.105C236.372 138.06 236.392 138.018 236.422 137.982C236.451 137.945 236.489 137.916 236.532 137.896C236.575 137.876 236.622 137.865 236.669 137.865C236.717 137.865 236.764 137.876 236.807 137.896C236.849 137.916 236.887 137.945 236.917 137.982C236.946 138.018 236.967 138.06 236.977 138.105C236.988 138.151 236.987 138.197 236.977 138.242V148.56C236.977 148.641 236.943 148.719 236.884 148.777C236.825 148.835 236.745 148.867 236.661 148.867Z" fill="white"/>
<path d="M235.746 140.587H235.629C235.591 140.571 235.557 140.548 235.528 140.519C235.498 140.49 235.476 140.456 235.46 140.418C235.445 140.381 235.437 140.341 235.438 140.3C235.438 140.26 235.447 140.22 235.463 140.183L236.576 137.692L237.806 139.083C237.861 139.14 237.891 139.215 237.891 139.293C237.891 139.371 237.861 139.447 237.806 139.504C237.745 139.558 237.665 139.588 237.582 139.588C237.499 139.588 237.419 139.558 237.357 139.504L236.776 138.841L236.061 140.458C236.027 140.507 235.979 140.545 235.923 140.568C235.867 140.591 235.806 140.597 235.746 140.587Z" fill="white"/>
<path d="M203.016 173.884L162.527 151.131L162.544 105.608L203.016 128.361V173.884Z" fill="#E0E0E0"/>
<path d="M184.972 118.221L225.428 95.4521L220.859 92.8809L180.387 115.65L184.972 118.221Z" fill="white"/>
<path d="M168.676 131.709L183.18 139.794C184.014 140.329 184.709 141.046 185.208 141.889C185.707 142.731 185.997 143.675 186.054 144.646V153.346C186.054 155.141 184.759 155.869 183.18 154.963L168.676 146.877C167.841 146.343 167.146 145.626 166.647 144.784C166.148 143.941 165.858 142.997 165.802 142.026V133.326C165.802 131.531 167.098 130.819 168.676 131.709Z" fill="#FF592D"/>
<path d="M167.561 133.876L168.109 134.199V143.854L167.561 143.546V133.876Z" fill="#FF592D"/>
<path d="M169.804 135.138L170.751 135.688V145.342L169.804 144.808V135.138Z" fill="#FF592D"/>
<path d="M172.047 136.399L172.595 136.707V146.377L172.047 146.07V136.399Z" fill="#FF592D"/>
<path d="M173.727 137.336L174.84 137.967V147.637L173.727 146.99V137.336Z" fill="#FF592D"/>
<path d="M176.518 138.922L177.082 139.229V148.9L176.518 148.576V138.922Z" fill="#FF592D"/>
<path d="M178.146 139.812L179.309 140.491V150.145L178.129 149.466L178.146 139.812Z" fill="#FF592D"/>
<path d="M181.002 141.443L181.55 141.751V151.405L181.002 151.098V141.443Z" fill="#FF592D"/>
<path d="M182.283 142.14L182.566 142.301V151.956L182.283 151.81V142.14Z" fill="#FF592D"/>
<path d="M179.99 140.91L180.256 141.072V150.726L179.99 150.581V140.91Z" fill="#FF592D"/>
<path d="M175.47 138.34L175.736 138.485V148.156L175.47 147.994V138.34Z" fill="#FF592D"/>
<path d="M172.996 136.948L173.279 137.11V146.78L172.996 146.619V136.948Z" fill="#FF592D"/>
<path d="M171.216 135.996L171.498 136.158V145.828L171.216 145.667V135.996Z" fill="#FF592D"/>
<path d="M168.808 134.57L169.09 134.732V144.402L168.808 144.241V134.57Z" fill="#FF592D"/>
<path d="M183.245 142.688L183.793 142.996V152.666L183.245 152.359V142.688Z" fill="#FF592D"/>
<path d="M189.526 98.0244L142.275 71.4873L95.041 98.0244L142.275 124.578L189.526 98.0244Z" fill="#F5F5F5"/>
<path d="M122.022 113.192L169.273 86.6552L164.687 84.084L117.453 110.621L122.022 113.192Z" fill="white"/>
<path d="M142.275 208.005L189.526 181.468V98.0244L142.275 124.578V208.005Z" fill="#EBEBEB"/>
<path d="M150.084 192.983C149.868 192.986 149.654 192.93 149.469 192.821C149.207 192.641 148.999 192.396 148.864 192.112C148.73 191.828 148.675 191.515 148.705 191.204V186.352V185.997H148.971L152.842 183.781V189.166C152.834 189.859 152.656 190.541 152.324 191.154C151.992 191.767 151.515 192.294 150.931 192.692C150.682 192.863 150.389 192.963 150.084 192.983ZM149.336 186.724V191.188C149.309 191.395 149.335 191.607 149.414 191.802C149.492 191.997 149.62 192.169 149.785 192.304C149.92 192.362 150.068 192.384 150.214 192.367C150.36 192.35 150.499 192.294 150.616 192.206C151.113 191.869 151.523 191.422 151.811 190.903C152.1 190.383 152.259 189.805 152.277 189.215V188.827H150.832L150.549 186.935L149.336 186.724ZM151.33 188.212H152.31V184.897L149.984 186.223L151.131 186.417L151.33 188.212Z" fill="white"/>
<path d="M150.782 196.767C150.699 196.767 150.618 196.735 150.559 196.677C150.5 196.62 150.467 196.541 150.467 196.46V192.401C150.467 192.361 150.475 192.322 150.491 192.286C150.507 192.249 150.531 192.216 150.56 192.189C150.59 192.162 150.625 192.141 150.663 192.127C150.701 192.114 150.742 192.108 150.782 192.11C150.863 192.11 150.941 192.14 151 192.194C151.059 192.248 151.094 192.322 151.098 192.401V196.46C151.094 196.54 151.06 196.616 151.001 196.673C150.943 196.73 150.865 196.763 150.782 196.767Z" fill="white"/>
<path d="M148.986 197.834C148.933 197.835 148.88 197.822 148.833 197.796C148.786 197.771 148.747 197.733 148.72 197.688C148.683 197.617 148.674 197.534 148.695 197.456C148.717 197.378 148.767 197.311 148.837 197.268L152.442 195.246C152.478 195.226 152.518 195.213 152.559 195.208C152.6 195.202 152.642 195.205 152.682 195.216C152.722 195.226 152.76 195.244 152.793 195.269C152.826 195.294 152.853 195.324 152.874 195.36C152.894 195.393 152.908 195.431 152.913 195.47C152.918 195.509 152.915 195.548 152.904 195.586C152.893 195.624 152.875 195.659 152.85 195.689C152.824 195.72 152.793 195.745 152.758 195.764L149.136 197.801C149.091 197.827 149.038 197.839 148.986 197.834Z" fill="white"/>
<path d="M161.863 190.8C161.742 190.8 161.622 190.772 161.514 190.719C161.393 190.639 161.295 190.53 161.231 190.403C161.167 190.275 161.138 190.133 161.149 189.991V189.15C161.148 189.11 161.157 189.071 161.173 189.035C161.189 188.998 161.212 188.966 161.242 188.938C161.271 188.911 161.306 188.89 161.345 188.876C161.383 188.863 161.424 188.857 161.464 188.859C161.503 188.859 161.542 188.867 161.579 188.881C161.615 188.896 161.648 188.917 161.676 188.944C161.703 188.971 161.725 189.003 161.74 189.039C161.755 189.074 161.763 189.112 161.763 189.15V189.991C161.763 190.104 161.763 190.169 161.763 190.185C161.763 190.201 161.863 190.185 161.963 190.185C162.157 190.011 162.309 189.798 162.409 189.56C162.51 189.323 162.556 189.067 162.544 188.81V183.425C162.544 183.344 162.577 183.266 162.637 183.208C162.696 183.151 162.776 183.118 162.86 183.118C162.942 183.122 163.02 183.156 163.079 183.213C163.137 183.269 163.171 183.345 163.175 183.425V188.81C163.191 189.173 163.118 189.533 162.962 189.862C162.806 190.191 162.572 190.479 162.278 190.702C162.149 190.765 162.007 190.798 161.863 190.8Z" fill="white"/>
<path d="M158.572 186.092V185.558C158.651 184.214 159.053 182.906 159.745 181.741C160.438 180.575 161.402 179.584 162.56 178.847C162.974 178.507 163.486 178.3 164.026 178.253C164.566 178.207 165.108 178.323 165.578 178.586C166.048 178.849 166.423 179.246 166.653 179.724C166.883 180.202 166.956 180.737 166.863 181.256V181.434L158.572 186.092ZM164.42 178.895C163.873 178.92 163.34 179.081 162.875 179.364C161.887 180 161.049 180.833 160.419 181.809C159.788 182.786 159.38 183.882 159.22 185.024L166.231 181.095C166.256 180.711 166.181 180.327 166.012 179.98C165.844 179.632 165.588 179.331 165.268 179.106C165.008 178.968 164.716 178.896 164.42 178.895Z" fill="white"/>
<path d="M173.043 184.588C172.959 184.588 172.879 184.556 172.82 184.498C172.761 184.44 172.728 184.362 172.728 184.281V173.964C172.728 173.882 172.761 173.804 172.82 173.746C172.879 173.689 172.959 173.656 173.043 173.656C173.127 173.656 173.207 173.689 173.266 173.746C173.326 173.804 173.359 173.882 173.359 173.964V184.281C173.359 184.362 173.326 184.44 173.266 184.498C173.207 184.556 173.127 184.588 173.043 184.588Z" fill="white"/>
<path d="M172.132 176.326H172.015C171.978 176.312 171.943 176.29 171.915 176.263C171.886 176.235 171.863 176.202 171.847 176.166C171.832 176.13 171.824 176.091 171.824 176.052C171.825 176.012 171.833 175.974 171.849 175.938L172.962 173.447L174.192 174.838C174.245 174.898 174.271 174.976 174.265 175.055C174.258 175.134 174.22 175.207 174.159 175.258C174.097 175.31 174.017 175.335 173.936 175.329C173.855 175.323 173.78 175.286 173.727 175.226L173.129 174.563L172.414 176.18C172.386 176.228 172.345 176.267 172.295 176.293C172.245 176.319 172.188 176.33 172.132 176.326Z" fill="white"/>
<path d="M175.919 182.988C175.839 182.988 175.763 182.958 175.707 182.903C175.651 182.848 175.62 182.774 175.62 182.697V172.38C175.617 172.34 175.623 172.301 175.637 172.264C175.651 172.226 175.673 172.192 175.701 172.164C175.729 172.135 175.763 172.112 175.8 172.096C175.838 172.081 175.878 172.073 175.919 172.073C175.961 172.07 176.003 172.077 176.042 172.091C176.082 172.106 176.117 172.128 176.147 172.158C176.177 172.187 176.2 172.221 176.215 172.26C176.23 172.298 176.237 172.339 176.234 172.38V182.697C176.234 182.737 176.226 182.776 176.21 182.813C176.194 182.849 176.171 182.882 176.141 182.909C176.111 182.936 176.076 182.957 176.038 182.971C176 182.985 175.959 182.991 175.919 182.988Z" fill="white"/>
<path d="M175.022 174.724H174.889C174.815 174.689 174.757 174.628 174.726 174.553C174.695 174.478 174.694 174.395 174.723 174.319L175.836 171.829L177.082 173.22C177.134 173.278 177.162 173.353 177.162 173.43C177.162 173.507 177.134 173.582 177.082 173.64C177.053 173.669 177.018 173.692 176.98 173.708C176.941 173.723 176.9 173.731 176.858 173.731C176.816 173.731 176.775 173.723 176.737 173.708C176.698 173.692 176.663 173.669 176.634 173.64L176.052 172.977L175.338 174.594C175.305 174.645 175.257 174.684 175.201 174.707C175.145 174.731 175.082 174.736 175.022 174.724Z" fill="white"/>
<path d="M142.275 208.005L95.041 181.468V98.0244L142.275 124.578V208.005Z" fill="#E0E0E0"/>
<path d="M104.644 164.116L119.131 172.201C119.97 172.733 120.668 173.45 121.17 174.292C121.672 175.135 121.964 176.08 122.022 177.053V185.769C122.022 187.548 120.726 188.276 119.131 187.386L104.644 179.3C103.806 178.769 103.109 178.053 102.609 177.21C102.11 176.367 101.822 175.421 101.77 174.449V165.749C101.77 163.873 103.065 163.226 104.644 164.116Z" fill="#F5F5F5"/>
<path d="M103.531 166.282L104.08 166.606V176.26L103.531 175.953V166.282Z" fill="#E0E0E0"/>
<path d="M105.773 167.544L106.72 168.094V177.764L105.773 177.214V167.544Z" fill="#E0E0E0"/>
<path d="M108 168.806L108.565 169.113L108.548 178.783L108 178.476V168.806Z" fill="#E0E0E0"/>
<path d="M109.693 169.743L110.79 170.374V180.044L109.693 179.397V169.743Z" fill="#E0E0E0"/>
<path d="M112.484 171.33L113.033 171.637V181.308L112.484 180.984V171.33Z" fill="#E0E0E0"/>
<path d="M114.098 172.218L115.277 172.897V182.551L114.098 181.872V172.218Z" fill="#E0E0E0"/>
<path d="M116.973 173.835L117.521 174.158V183.813L116.973 183.505V173.835Z" fill="#E0E0E0"/>
<path d="M118.25 174.546L118.532 174.708V184.378L118.25 184.216V174.546Z" fill="#E0E0E0"/>
<path d="M115.957 173.318L116.223 173.48V183.134L115.957 182.989V173.318Z" fill="#E0E0E0"/>
<path d="M111.438 170.747L111.704 170.893V180.563L111.438 180.401V170.747Z" fill="#E0E0E0"/>
<path d="M108.963 169.356L109.229 169.518V179.189L108.963 179.027V169.356Z" fill="#E0E0E0"/>
<path d="M107.186 168.402L107.468 168.564V178.234L107.186 178.073V168.402Z" fill="#E0E0E0"/>
<path d="M104.777 166.979L105.06 167.14V176.811L104.777 176.649V166.979Z" fill="#E0E0E0"/>
<path d="M119.215 175.097L119.763 175.404V185.074L119.215 184.767V175.097Z" fill="#E0E0E0"/>
<path d="M117.453 121.392L122.022 123.963V113.193L117.453 110.622V121.392Z" fill="#F0F0F0"/>
<path d="M47.7901 185.251L14.0467 166.298L-33.1875 192.835L0.555954 211.804L47.7901 185.251Z" fill="#F5F5F5"/>
<path d="M0.555664 287.649L47.7898 261.112V185.253L0.555664 211.806V287.649Z" fill="#EBEBEB"/>
<path d="M8.34699 272.561C8.13566 272.565 7.9277 272.509 7.74888 272.399C7.48803 272.218 7.28033 271.973 7.14631 271.689C7.01228 271.406 6.95655 271.093 6.98462 270.782V265.931V265.575H7.23382L11.1216 263.359V268.744C11.1134 269.437 10.9359 270.119 10.6036 270.732C10.2714 271.345 9.79399 271.872 9.21091 272.27C8.95428 272.439 8.65628 272.54 8.34699 272.561ZM7.61597 266.303V270.766C7.58507 270.974 7.61017 271.186 7.6888 271.381C7.76743 271.577 7.8969 271.749 8.06453 271.882C8.2004 271.934 8.34747 271.952 8.49249 271.935C8.6375 271.918 8.7759 271.867 8.89524 271.785C9.39279 271.447 9.80221 271 10.0907 270.481C10.3792 269.961 10.5388 269.383 10.5567 268.793V268.405H9.11123L8.82879 266.513L7.61597 266.303ZM9.60966 267.79H10.5068V264.459L8.18084 265.785L9.32723 265.979L9.60966 267.79Z" fill="white"/>
<path d="M9.06274 276.411C8.97902 276.411 8.89873 276.378 8.83953 276.321C8.78033 276.263 8.74707 276.185 8.74707 276.103V272.044C8.74701 272.005 8.75527 271.966 8.77133 271.929C8.78739 271.893 8.81091 271.86 8.84046 271.833C8.87002 271.805 8.90497 271.784 8.94319 271.771C8.98141 271.757 9.0221 271.751 9.06274 271.753C9.14206 271.753 9.21812 271.784 9.2742 271.839C9.33028 271.893 9.36181 271.967 9.36181 272.044V276.103C9.36193 276.182 9.33094 276.258 9.27529 276.315C9.21964 276.372 9.14355 276.407 9.06274 276.411Z" fill="white"/>
<path d="M7.25108 277.413C7.1971 277.416 7.14335 277.404 7.09623 277.378C7.04911 277.352 7.0106 277.314 6.98524 277.267C6.96139 277.234 6.94496 277.196 6.93705 277.156C6.92914 277.116 6.92992 277.075 6.93931 277.036C6.9487 276.996 6.9665 276.959 6.99158 276.926C7.01666 276.894 7.04846 276.867 7.08493 276.847L10.7068 274.825C10.7428 274.805 10.7825 274.792 10.8238 274.787C10.865 274.782 10.9068 274.784 10.947 274.795C10.9871 274.805 11.0247 274.823 11.0576 274.848C11.0905 274.873 11.1181 274.904 11.1388 274.939C11.1592 274.972 11.1725 275.01 11.1777 275.049C11.1829 275.088 11.18 275.127 11.1691 275.165C11.1583 275.203 11.1397 275.238 11.1145 275.268C11.0893 275.299 11.058 275.324 11.0225 275.343L7.4006 277.381C7.35548 277.406 7.30317 277.418 7.25108 277.413Z" fill="white"/>
<path d="M20.1442 270.443C20.0229 270.443 19.9033 270.415 19.7953 270.362C19.674 270.283 19.5763 270.174 19.5121 270.046C19.448 269.918 19.4196 269.776 19.4298 269.634V268.793C19.4298 268.716 19.4613 268.642 19.5174 268.587C19.5734 268.533 19.6495 268.502 19.7288 268.502C19.7695 268.5 19.8101 268.506 19.8484 268.52C19.8866 268.533 19.9216 268.554 19.9511 268.582C19.9807 268.609 20.0042 268.642 20.0202 268.678C20.0363 268.714 20.0445 268.754 20.0445 268.793V269.634C20.0445 269.747 20.0445 269.812 20.0445 269.828C20.0445 269.844 20.1442 269.828 20.2438 269.828C20.4343 269.652 20.5845 269.438 20.6847 269.201C20.7849 268.964 20.8328 268.71 20.8254 268.454V263.069C20.8145 263.024 20.8143 262.977 20.8247 262.932C20.8351 262.886 20.8558 262.844 20.8854 262.808C20.9149 262.771 20.9525 262.742 20.9954 262.722C21.0382 262.702 21.0851 262.691 21.1327 262.691C21.1803 262.691 21.2272 262.702 21.2701 262.722C21.3129 262.742 21.3505 262.771 21.3801 262.808C21.4096 262.844 21.4304 262.886 21.4408 262.932C21.4511 262.977 21.4509 263.024 21.4401 263.069V268.454C21.4537 268.814 21.3813 269.172 21.2285 269.501C21.0757 269.829 20.8467 270.118 20.5595 270.346C20.4305 270.408 20.2884 270.442 20.1442 270.443Z" fill="white"/>
<path d="M16.8535 265.753V265.219C16.9322 263.875 17.334 262.568 18.0266 261.402C18.7191 260.236 19.6831 259.245 20.8409 258.508C21.2536 258.165 21.7654 257.955 22.306 257.906C22.8466 257.858 23.3893 257.974 23.8594 258.238C24.3295 258.502 24.7039 258.902 24.931 259.382C25.1581 259.862 25.2267 260.398 25.1274 260.918V261.096L16.8535 265.753ZM22.7017 258.557C22.1538 258.581 21.6216 258.743 21.1566 259.026C20.168 259.661 19.3303 260.495 18.6999 261.471C18.0695 262.447 17.6609 263.543 17.5015 264.686L24.5127 260.74C24.5361 260.359 24.46 259.978 24.2915 259.633C24.123 259.288 23.8676 258.99 23.549 258.767C23.2954 258.626 23.0101 258.549 22.7183 258.541L22.7017 258.557Z" fill="white"/>
<path d="M31.3235 264.234C31.2397 264.234 31.1595 264.201 31.1003 264.144C31.0411 264.086 31.0078 264.008 31.0078 263.926V253.609C31.0078 253.528 31.0411 253.449 31.1003 253.392C31.1595 253.334 31.2397 253.302 31.3235 253.302C31.4072 253.302 31.4875 253.334 31.5467 253.392C31.6059 253.449 31.6391 253.528 31.6391 253.609V263.926C31.6391 264.008 31.6059 264.086 31.5467 264.144C31.4875 264.201 31.4072 264.234 31.3235 264.234Z" fill="white"/>
<path d="M30.412 256.05H30.2957C30.258 256.036 30.2237 256.015 30.1948 255.987C30.1659 255.96 30.143 255.927 30.1275 255.891C30.112 255.855 30.1042 255.816 30.1045 255.776C30.1049 255.737 30.1134 255.698 30.1296 255.662L31.2427 253.172L32.4721 254.563C32.525 254.623 32.5512 254.701 32.545 254.78C32.5388 254.858 32.5006 254.932 32.4389 254.983C32.4084 255.009 32.373 255.028 32.3347 255.04C32.2965 255.052 32.2561 255.057 32.216 255.054C32.135 255.048 32.0598 255.011 32.0069 254.951L31.4088 254.288L30.6944 255.905C30.6663 255.953 30.6248 255.992 30.5748 256.017C30.5249 256.043 30.4684 256.055 30.412 256.05Z" fill="white"/>
<path d="M34.1995 262.632C34.1185 262.632 34.0407 262.602 33.9819 262.548C33.9232 262.494 33.888 262.419 33.8838 262.341V252.024C33.8838 251.942 33.917 251.864 33.9762 251.806C34.0354 251.749 34.1157 251.716 34.1995 251.716C34.2415 251.714 34.2837 251.72 34.3231 251.735C34.3624 251.749 34.3982 251.772 34.428 251.801C34.4578 251.83 34.481 251.865 34.496 251.903C34.511 251.942 34.5175 251.983 34.5151 252.024V262.341C34.5152 262.38 34.5069 262.42 34.4909 262.456C34.4748 262.492 34.4513 262.525 34.4217 262.553C34.3922 262.58 34.3572 262.601 34.319 262.615C34.2808 262.628 34.2401 262.634 34.1995 262.632Z" fill="white"/>
<path d="M33.286 254.433C33.2485 254.447 33.2072 254.447 33.1697 254.433C33.1321 254.419 33.0978 254.398 33.0689 254.37C33.0399 254.343 33.017 254.31 33.0015 254.274C32.986 254.237 32.9782 254.198 32.9785 254.159C32.9789 254.12 32.9874 254.081 33.0036 254.045L34.1167 251.555L35.3462 252.945C35.4011 253.002 35.4316 253.078 35.4316 253.156C35.4316 253.234 35.4011 253.309 35.3462 253.366C35.3168 253.395 35.2819 253.418 35.2434 253.433C35.2049 253.449 35.1636 253.457 35.1219 253.457C35.0802 253.457 35.0389 253.449 35.0004 253.433C34.9619 253.418 34.9269 253.395 34.8976 253.366L34.3161 252.703L33.6017 254.32C33.5654 254.366 33.5165 254.401 33.4606 254.421C33.4048 254.441 33.3442 254.445 33.286 254.433Z" fill="white"/>
<path d="M0.555958 287.648L-33.1875 268.695V192.836L0.555958 211.805V287.648Z" fill="#E0E0E0"/>
<path d="M-12.9516 204.221L34.2992 177.668L29.7137 175.097L-17.5205 201.65L-12.9516 204.221Z" fill="white"/>
<path d="M-120.475 409.273L60.8524 511.152C63.0817 512.253 65.5464 512.826 68.0463 512.826C70.5462 512.826 73.0109 512.253 75.2402 511.152L472.536 287.988C476.506 285.757 476.506 282.134 472.536 279.903L291.208 178.023C288.981 176.915 286.516 176.337 284.014 176.337C281.513 176.337 279.047 176.915 276.82 178.023L-120.475 401.187C-124.446 403.419 -124.446 407.041 -120.475 409.273Z" fill="#455A64"/>
<path d="M-22.4697 456.573C-19.3783 458.091 -15.9639 458.882 -12.5012 458.882C-9.03855 458.882 -5.62419 458.091 -2.5327 456.573C2.99983 453.468 2.99983 448.487 -2.5327 445.333C-5.62187 443.808 -9.03714 443.013 -12.5012 443.013C-15.9653 443.013 -19.3806 443.808 -22.4697 445.333C-28.0023 448.487 -28.0023 453.5 -22.4697 456.573Z" fill="#263238"/>
<path d="M64.2577 511.152L-117.07 409.273C-120.625 407.268 -120.991 404.163 -118.183 401.932C-119.956 403.297 -121.414 405.011 -122.462 406.961C-123.51 408.912 -124.124 411.055 -124.264 413.252V419.833C-124.127 422.263 -123.405 424.627 -122.155 426.734C-120.905 428.841 -119.163 430.632 -117.07 431.962L64.2577 533.841C66.4748 534.968 68.9512 535.525 71.4517 535.458V512.834C68.9454 512.881 66.4687 512.302 64.2577 511.152Z" fill="#37474F"/>
<path d="M472.518 310.661C474.616 309.335 476.363 307.545 477.616 305.438C478.869 303.33 479.593 300.964 479.728 298.532V291.951C479.594 289.751 478.98 287.605 477.929 285.653C476.878 283.702 475.413 281.99 473.631 280.631C476.455 282.862 476.09 285.967 472.534 287.956L75.2389 511.152C73.0202 512.276 70.5449 512.832 68.0449 512.77V535.523C70.5449 535.585 73.0202 535.029 75.2389 533.905L472.518 310.661Z" fill="#263238"/>
<path d="M90.7242 490.049L-82.8277 392.471C-85.2202 391.129 -85.2202 388.946 -82.8277 387.62L252.646 199.047C253.985 198.385 255.465 198.04 256.966 198.04C258.467 198.04 259.947 198.385 261.286 199.047L434.904 296.608C437.28 297.95 437.28 300.117 434.904 301.46L99.2971 490.049C97.9673 490.7 96.4994 491.039 95.0107 491.039C93.522 491.039 92.054 490.7 90.7242 490.049Z" fill="white"/>
<path d="M20.7952 435.568L41.0479 424.183L34.3025 420.399L14.0498 431.768L20.7952 435.568Z" fill="#FF592D"/>
<path d="M263.761 299.033L284.014 287.648L277.252 283.864L257.016 295.249L263.761 299.033Z" fill="#FF592D"/>
<path d="M304.249 276.28L324.502 264.895L317.757 261.111L297.504 272.48L304.249 276.28Z" fill="#FF592D"/>
<path d="M369.245 236.418C370.031 236.8 370.899 237 371.778 237C372.658 237 373.525 236.8 374.312 236.418C374.617 236.316 374.882 236.124 375.069 235.869C375.256 235.614 375.357 235.308 375.357 234.994C375.357 234.681 375.256 234.375 375.069 234.12C374.882 233.865 374.617 233.673 374.312 233.571C373.527 233.181 372.659 232.978 371.778 232.978C370.897 232.978 370.029 233.181 369.245 233.571C368.94 233.673 368.675 233.865 368.487 234.12C368.3 234.375 368.199 234.681 368.199 234.994C368.199 235.308 368.3 235.614 368.487 235.869C368.675 236.124 368.94 236.316 369.245 236.418Z" fill="#263238"/>
<path d="M377.336 258.751C378.904 259.524 380.637 259.927 382.395 259.927C384.152 259.927 385.885 259.524 387.454 258.751C390.245 257.134 390.245 254.627 387.454 253.059C385.885 252.286 384.152 251.883 382.395 251.883C380.637 251.883 378.904 252.286 377.336 253.059C374.544 254.627 374.544 257.182 377.336 258.751Z" fill="#263238"/>
<path d="M370.192 248.854C372.052 247.803 371.953 246.056 369.976 244.94L336.747 226.23C335.678 225.672 334.487 225.37 333.274 225.347C332.061 225.325 330.86 225.583 329.769 226.101C327.908 227.152 328.008 228.899 329.985 230.014L363.313 248.725C364.37 249.265 365.543 249.559 366.737 249.581C367.931 249.604 369.114 249.355 370.192 248.854Z" fill="#263238"/>
<path d="M313.469 172.975L314.598 172.328C313.818 175.088 313.438 177.94 313.469 180.802V184.748C313.469 198.914 330.93 235.105 337.36 247.913C338.024 249.255 329.202 258.392 329.202 258.392L339.686 252.506C339.686 252.506 365.886 231.483 365.886 214.212V210.266C365.886 192.915 354.157 172.264 339.686 164.13C332.376 160.038 325.78 159.893 321.028 162.998L311.06 168.561L313.469 172.975ZM326.577 186.22C326.577 178.134 332.442 174.787 339.686 178.862C339.088 184.085 348.89 200.353 352.778 200.952C352.778 209.037 346.913 212.385 339.686 208.31C335.882 205.884 332.718 202.62 330.452 198.782C328.187 194.944 326.882 190.64 326.644 186.22H326.577Z" fill="#FF592D"/>
<path d="M302.686 191.072C302.985 208.408 330.033 258.393 330.033 258.393C330.033 258.393 355.885 237.015 355.603 219.679V215.733C355.303 198.398 343.225 177.925 328.604 170.033C313.984 162.142 302.387 169.775 302.686 187.126V191.072ZM315.812 192.334C315.679 184.248 321.494 180.803 328.787 184.749C332.642 187.108 335.872 190.319 338.213 194.121C340.554 197.922 341.941 202.208 342.261 206.629C342.411 214.715 336.596 218.159 329.286 214.213C325.435 211.849 322.209 208.638 319.869 204.837C317.528 201.036 316.138 196.753 315.812 192.334Z" fill="#FF592D"/>
<path opacity="0.1" d="M302.686 191.072C302.985 208.408 330.033 258.393 330.033 258.393C330.033 258.393 355.885 237.015 355.603 219.679V215.733C355.303 198.398 343.225 177.925 328.604 170.033C313.984 162.142 302.387 169.775 302.686 187.126V191.072ZM315.812 192.334C315.679 184.248 321.494 180.803 328.787 184.749C332.642 187.108 335.872 190.319 338.213 194.121C340.554 197.922 341.941 202.208 342.261 206.629C342.411 214.715 336.596 218.159 329.286 214.213C325.435 211.849 322.209 208.638 319.869 204.837C317.528 201.036 316.138 196.753 315.812 192.334Z" fill="black"/>
<path d="M49.3037 422.273C66.1006 431.685 105.476 424.845 137.259 406.975L224.567 357.928C256.35 340.059 268.478 317.969 251.648 308.573C234.818 299.178 195.409 306.05 163.593 323.903L76.4513 372.886C44.6849 390.739 32.5233 412.91 49.3037 422.273Z" fill="#F0F0F0"/>
<path d="M303.499 11.0866H303.582L317.953 3.00099H318.069C327.124 -1.46228 339.219 -0.233251 352.245 8.0141C378.429 24.4118 398.416 62.2526 396.904 92.509C396.139 107.597 390.258 117.946 381.17 122.507H381.087L366.699 130.592H366.599C357.545 135.072 345.433 133.827 332.391 125.595C306.223 109.182 286.236 71.357 287.748 41.1005C288.546 25.9966 294.51 15.6469 303.499 11.0866Z" fill="#37474F"/>
<path d="M367.43 130.173L381.136 122.411H381.236C390.241 117.834 396.189 107.484 396.953 92.4128C397.618 78.926 394.012 63.9352 387.5 50.0117L373.112 58.0974C379.641 72.0208 383.246 87.0116 382.565 100.515C381.851 115.23 376.136 125.467 367.43 130.173Z" fill="#263238"/>
<path d="M332.457 125.579C306.29 109.165 286.303 71.3407 287.815 41.0843C289.327 10.8278 311.806 -0.411207 337.923 15.9865C364.041 32.3841 384.094 70.2249 382.582 100.481C381.07 130.738 358.625 141.977 332.457 125.579Z" fill="#455A64"/>
<path d="M354.389 123.444C369.824 124.172 372.333 107.273 372.665 99.9957C373.994 73.3131 355.619 38.5449 332.542 24.0716C327.625 20.7191 321.902 18.6582 315.927 18.0882C300.51 17.3605 298.001 34.2595 297.652 41.5366C296.323 68.2192 314.681 102.987 337.775 117.542C342.692 120.894 348.415 122.955 354.389 123.525V123.444Z" fill="#FAFAFA"/>
<path d="M332.174 75.7873C332.356 75.7879 332.537 75.7549 332.706 75.6903C333.053 75.5807 333.353 75.3629 333.561 75.0706C333.768 74.7784 333.87 74.4279 333.852 74.0732V35.537C333.852 35.1082 333.677 34.6968 333.366 34.3936C333.054 34.0903 332.632 33.9199 332.191 33.9199C331.75 33.9199 331.328 34.0903 331.016 34.3936C330.705 34.6968 330.53 35.1082 330.53 35.537V69.3835L312.038 46.2586C311.765 45.9155 311.363 45.6921 310.92 45.6375C310.478 45.5829 310.031 45.7016 309.679 45.9675C309.326 46.2334 309.097 46.6248 309.041 47.0554C308.985 47.486 309.107 47.9207 309.38 48.2638L330.895 75.1567C331.046 75.3481 331.24 75.5041 331.461 75.6133C331.683 75.7224 331.926 75.7819 332.174 75.7873Z" fill="#37474F"/>
<path d="M341.711 104.298C341.788 104.313 341.867 104.313 341.944 104.298C342.12 104.246 342.269 104.129 342.359 103.972C342.448 103.816 342.472 103.631 342.426 103.457L333.105 72.9099C333.052 72.7362 332.931 72.5901 332.767 72.5037C332.603 72.4172 332.411 72.3976 332.233 72.449C332.054 72.5005 331.904 72.6189 331.815 72.7781C331.727 72.9373 331.707 73.1243 331.759 73.298L341.063 103.846C341.111 103.976 341.198 104.09 341.314 104.171C341.43 104.252 341.569 104.296 341.711 104.298Z" fill="#FF592D"/>
<path d="M332.707 66.424C329.616 64.4996 326.975 65.8256 326.809 69.3833C326.819 71.3238 327.299 73.2345 328.212 74.96C329.124 76.6854 330.442 78.1767 332.059 79.3125C335.132 81.253 337.774 79.927 337.957 76.3693C337.943 74.4272 337.46 72.5155 336.548 70.7881C335.636 69.0607 334.321 67.5659 332.707 66.424Z" fill="#FF592D"/>
<path d="M61.3 412.813L81.5361 401.429L74.7908 397.645L54.5547 409.013L61.3 412.813Z" fill="#FF592D"/>
<path d="M101.788 390.06L122.041 378.676L115.279 374.892L95.043 386.26L101.788 390.06Z" fill="#FF592D"/>
<path d="M93.4636 385.418C93.4636 394.927 86.6186 406.44 78.1619 411.292C73.6595 413.831 69.6056 413.912 66.8144 412.003C65.6891 411.143 64.7649 410.059 64.1032 408.824C63.4415 407.588 63.0574 406.23 62.9766 404.84C63.5448 404.581 64.0993 404.295 64.638 403.982C73.0946 399.244 79.9397 387.682 79.9397 378.108C79.9476 377.4 79.9032 376.692 79.8068 375.99C81.0742 375.337 82.4672 374.948 83.8974 374.848C85.3275 374.748 86.7635 374.939 88.1139 375.408C91.4367 376.766 93.4636 380.275 93.4636 385.418Z" fill="#263238"/>
<path d="M94.8432 365.883L94.5607 365.721C90.3075 363.522 84.5922 363.926 78.1625 367.516C65.1204 374.842 54.5371 392.663 54.5371 407.33C54.5371 414.704 57.212 419.863 61.5317 422.256C65.8514 424.65 71.683 424.245 78.1459 420.639C91.188 413.314 101.755 395.477 101.755 380.809C101.771 373.435 99.1463 368.277 94.8432 365.883ZM78.229 411.26C73.7099 413.799 69.6561 413.88 66.8649 411.955C64.406 410.338 62.9107 407.104 62.9107 402.657C62.9107 393.164 69.7723 381.634 78.229 376.783C82.0835 374.616 85.5891 374.244 88.1975 375.36C91.4207 376.702 93.4476 380.211 93.4476 385.386C93.4642 394.959 86.6191 406.522 78.1625 411.292L78.229 411.26Z" fill="#37474F"/>
<path d="M88.9769 375.797L88.7942 375.7C86.0362 374.261 82.298 374.536 78.1611 376.848C69.7044 381.603 62.8428 393.165 62.8428 402.722C62.8428 407.574 64.5042 410.808 67.3785 412.425C70.2527 414.042 74.0241 413.719 78.1611 411.358C86.6177 406.603 93.4628 395.041 93.4628 385.484C93.4628 380.697 91.7515 377.333 88.9769 375.797ZM78.1611 407.897C74.5392 409.935 71.2828 409.999 69.0233 408.447C67.0628 407.105 65.85 404.533 65.85 400.976C66.0827 396.819 67.3187 392.774 69.4577 389.17C71.5967 385.565 74.5784 382.502 78.1611 380.228C79.3249 379.437 80.6624 378.921 82.067 378.722C83.4717 378.523 84.9048 378.645 86.2522 379.08C88.844 380.163 90.4722 382.977 90.4722 387.166C90.2408 391.32 89.0053 395.363 86.8661 398.966C84.7268 402.568 81.7443 405.628 78.1611 407.897Z" fill="#FF592D"/>
<path d="M142.277 367.291L162.529 355.922L155.784 352.122L135.531 363.507L142.277 367.291Z" fill="#FF592D"/>
<path d="M182.781 344.538L203.018 333.169L196.272 329.369L176.02 340.754L182.781 344.538Z" fill="#FF592D"/>
<path d="M223.27 321.785L243.506 310.416L236.76 306.616L216.508 318.001L223.27 321.785Z" fill="#FF592D"/>
<path d="M122.506 215.976C122.717 215.701 123.014 215.498 123.351 215.398C123.689 215.298 124.051 215.305 124.384 215.419C124.718 215.532 125.005 215.746 125.205 216.03C125.405 216.313 125.507 216.651 125.496 216.995C125.626 217.915 125.53 218.853 125.215 219.73C124.9 220.607 124.376 221.399 123.685 222.04C122.356 223.156 121.01 222.703 120.695 221.021C120.566 220.101 120.663 219.164 120.978 218.287C121.293 217.41 121.816 216.618 122.506 215.976Z" fill="#FF592D"/>
<path d="M138.089 223.124L124.548 215.508L121.574 222.478L135.165 230.11L138.089 223.124Z" fill="#FF592D"/>
<path d="M136.012 223.56C137.341 222.461 138.67 222.914 139.002 224.595C139.125 225.514 139.023 226.449 138.706 227.322C138.388 228.196 137.864 228.985 137.175 229.625C135.846 230.74 134.5 230.288 134.184 228.606C134.063 227.684 134.165 226.748 134.483 225.872C134.8 224.996 135.324 224.204 136.012 223.56Z" fill="#FF592D"/>
<path d="M240.084 287.34C240.084 287.663 240.084 287.954 240.084 288.278C240.084 288.925 240.084 289.588 240.084 290.251C237.392 289.135 233.887 289.507 230.032 291.674C221.576 296.428 214.714 307.991 214.714 317.548C214.714 321.979 216.209 325.181 218.668 326.846C217.978 327.324 217.262 327.767 216.525 328.172L215.744 328.56L213.401 337.147L199.844 329.789C195.558 327.38 192.916 322.237 192.916 314.896C192.916 300.228 203.483 282.408 216.525 275.066C222.971 271.443 228.803 271.072 233.139 273.449L246.43 280.693L246.713 280.855L240.084 287.34Z" fill="#455A64"/>
<path d="M246.697 280.709L246.414 280.548C242.161 278.348 236.446 278.753 230.016 282.343C216.974 289.668 206.391 307.489 206.391 322.156C206.391 329.53 209.066 334.689 213.385 337.082C217.705 339.476 223.537 339.071 229.999 335.465C243.042 328.14 253.608 310.303 253.608 295.635C253.658 288.261 250.983 283.103 246.697 280.709ZM230.082 326.086C225.563 328.625 221.51 328.706 218.718 326.781C216.259 325.164 214.764 321.93 214.764 317.483C214.764 307.99 221.626 296.46 230.082 291.609C233.937 289.442 237.443 289.07 240.134 290.186C243.357 291.528 245.384 295.037 245.384 300.212C245.351 309.785 238.473 321.348 230.016 326.086H230.082Z" fill="#37474F"/>
<path d="M245.351 300.276C245.351 309.785 238.506 321.299 230.05 326.15C225.547 328.689 221.493 328.77 218.702 326.862C217.577 326.001 216.653 324.917 215.991 323.682C215.329 322.447 214.945 321.089 214.864 319.698C215.433 319.44 215.987 319.154 216.526 318.841C224.982 314.103 231.827 302.54 231.827 292.967C231.835 292.258 231.791 291.55 231.694 290.848C232.962 290.196 234.355 289.807 235.785 289.707C237.215 289.606 238.651 289.797 240.002 290.266C243.291 291.625 245.351 295.101 245.351 300.276Z" fill="#263238"/>
<path d="M240.833 290.621L240.651 290.508C237.893 289.084 234.138 289.343 230.018 291.672C221.561 296.426 214.699 307.972 214.699 317.546C214.699 322.397 216.361 325.632 219.235 327.249C222.109 328.866 225.881 328.526 230.018 326.165C238.474 321.427 245.319 309.865 245.319 300.291C245.352 295.521 243.691 292.173 240.833 290.621ZM230.018 322.705C226.379 324.758 223.123 324.823 220.88 323.271C218.903 321.928 217.706 319.357 217.706 315.799C217.939 311.643 219.175 307.598 221.314 303.993C223.453 300.388 226.435 297.325 230.018 295.052C233.108 293.305 235.932 292.998 238.092 293.903C240.684 294.987 242.312 297.801 242.312 301.989C242.081 306.14 240.848 310.179 238.711 313.779C236.575 317.378 233.596 320.436 230.018 322.705Z" fill="#FF592D"/>
<path d="M216.509 305.113L254.721 283.637C259.157 281.131 244.753 266.496 234.037 265.509C228.137 264.816 222.153 265.367 216.492 267.127C216.492 267.127 224.65 277.298 223.254 283.071C221.859 288.845 216.509 305.113 216.509 305.113Z" fill="#FF592D"/>
<path d="M162.529 244.421C162.529 244.421 217.921 271.621 220.313 273.254C222.706 274.888 220.313 293.856 216.509 305.112C212.704 316.367 206.856 333.67 204.513 338.522C202.171 343.373 199.113 345.184 193.498 348.338L153.624 370.767L99.6443 377.171L78.2119 365.851L83.7943 331.713C83.7943 331.713 141.163 302.007 149.022 297.592C156.88 293.177 180.123 272.462 162.529 244.421Z" fill="#FF592D"/>
<path opacity="0.2" d="M162.529 244.421C162.529 244.421 217.921 271.621 220.313 273.254C222.706 274.888 220.313 293.856 216.509 305.112C212.704 316.367 206.856 333.67 204.513 338.522C202.171 343.373 199.113 345.184 193.498 348.338L153.624 370.767L99.6443 377.171L78.2119 365.851L83.7943 331.713C83.7943 331.713 141.163 302.007 149.022 297.592C156.88 293.177 180.123 272.462 162.529 244.421Z" fill="black"/>
<path d="M221.377 298.627C226.362 285.593 230.083 274.791 229.452 267.498C228.688 258.846 225.365 251.779 210.711 248.222C196.057 244.664 175.572 244.729 175.572 244.729L169.342 248.238C169.342 248.238 211.475 272.01 216.26 274.597C219.184 276.214 222.308 283.346 216.576 305.128L217.556 305.678C218.038 305.969 219.783 302.816 221.377 298.627Z" fill="#FF592D"/>
<path opacity="0.3" d="M221.377 298.627C226.362 285.593 230.083 274.791 229.452 267.498C228.688 258.846 225.365 251.779 210.711 248.222C196.057 244.664 175.572 244.729 175.572 244.729L169.342 248.238C169.342 248.238 211.475 272.01 216.26 274.597C219.184 276.214 222.308 283.346 216.576 305.128L217.556 305.678C218.038 305.969 219.783 302.816 221.377 298.627Z" fill="white"/>
<path d="M189.461 259.591L196.273 255.807C196.273 255.807 195.874 232.828 185.939 227.249C176.003 221.67 142.277 225.47 142.277 225.47L135.531 229.254L189.461 259.591Z" fill="#FF592D"/>
<path d="M167.363 232.504C164.124 234.332 164.124 237.275 167.363 239.086C169.18 239.986 171.19 240.456 173.228 240.456C175.267 240.456 177.276 239.986 179.093 239.086C182.316 237.275 182.316 234.316 179.093 232.504C177.274 231.612 175.265 231.146 173.228 231.146C171.191 231.146 169.182 231.612 167.363 232.504Z" fill="#F0F0F0"/>
<path d="M177.73 243.484C175.453 244.777 175.453 246.863 177.73 248.141C179.015 248.781 180.439 249.115 181.883 249.115C183.327 249.115 184.751 248.781 186.037 248.141C188.329 246.863 188.329 244.777 186.037 243.484C184.749 242.851 183.326 242.521 181.883 242.521C180.44 242.521 179.018 242.851 177.73 243.484Z" fill="#F0F0F0"/>
<path d="M151.63 229.575C149.337 230.853 149.337 232.939 151.63 234.233C152.918 234.865 154.34 235.195 155.783 235.195C157.226 235.195 158.649 234.865 159.937 234.233C162.23 232.939 162.23 230.853 159.937 229.575C158.651 228.935 157.227 228.602 155.783 228.602C154.339 228.602 152.916 228.935 151.63 229.575Z" fill="#F0F0F0"/>
<path d="M190.524 252.928C191.853 251.812 193.183 252.265 193.515 253.947C193.637 254.868 193.536 255.805 193.218 256.681C192.901 257.558 192.377 258.349 191.687 258.992C191.476 259.267 191.179 259.47 190.842 259.57C190.504 259.67 190.142 259.663 189.809 259.549C189.475 259.436 189.188 259.222 188.988 258.938C188.788 258.655 188.686 258.317 188.697 257.973C188.569 257.052 188.668 256.113 188.986 255.236C189.303 254.359 189.831 253.568 190.524 252.928Z" fill="#FF592D"/>
<path d="M206.025 260.075L192.468 252.458L189.511 259.428L203.085 267.045L206.025 260.075Z" fill="#FF592D"/>
<path d="M203.932 260.511C204.143 260.236 204.44 260.034 204.777 259.933C205.115 259.833 205.477 259.841 205.81 259.954C206.144 260.068 206.431 260.282 206.631 260.565C206.831 260.848 206.933 261.186 206.922 261.53C207.049 262.452 206.949 263.389 206.631 264.266C206.314 265.143 205.787 265.935 205.095 266.575C203.765 267.691 202.436 267.222 202.104 265.557C201.98 264.635 202.081 263.698 202.399 262.821C202.716 261.945 203.241 261.153 203.932 260.511Z" fill="#FF592D"/>
<path d="M203.932 260.511C204.143 260.236 204.44 260.034 204.777 259.933C205.115 259.833 205.477 259.841 205.81 259.954C206.144 260.068 206.431 260.282 206.631 260.565C206.831 260.848 206.933 261.186 206.922 261.53C207.049 262.452 206.949 263.389 206.631 264.266C206.314 265.143 205.787 265.935 205.095 266.575C203.765 267.691 202.436 267.222 202.104 265.557C201.98 264.635 202.081 263.698 202.399 262.821C202.716 261.945 203.241 261.153 203.932 260.511Z" fill="black"/>
<path d="M88.2302 372.481C88.2302 372.805 88.2302 373.096 88.2302 373.419C88.2302 374.066 88.2302 374.729 88.2302 375.392C85.5387 374.276 82.0331 374.648 78.2616 376.815C69.805 381.57 62.9434 393.132 62.9434 402.689C62.9434 407.12 64.4386 410.322 66.8975 411.988C66.2072 412.466 65.4918 412.908 64.7543 413.314L63.9734 413.702L61.6308 422.289L48.0736 414.931C43.7872 412.521 41.1455 407.379 41.1455 400.037C41.1455 385.37 51.7122 367.549 64.7543 360.207C71.2006 356.585 77.0322 356.213 81.3685 358.59L94.6599 365.835L94.9423 365.997L88.2302 372.481Z" fill="#455A64"/>
<path d="M47.7919 346.818L37.6738 380.956L57.9265 392.34L68.4101 358.413L47.7919 346.818Z" fill="#FF592D"/>
<path opacity="0.2" d="M47.7919 346.818L37.6738 380.956L57.9265 392.34L68.4101 358.413L47.7919 346.818Z" fill="black"/>
<path d="M47.791 346.818C47.791 346.818 59.2714 356.311 68.4092 358.413C80.4047 361.243 99.4778 361.55 106.24 362.003C116.574 362.699 124.382 362.682 128.038 361.405C132.773 359.788 145.499 352.592 149.021 350.619C155.767 346.835 158.641 331.941 140.05 327.866C127.479 325.331 114.675 324.057 101.837 324.065L47.791 346.818Z" fill="#FF592D"/>
<path d="M162.279 342.452C161.701 343.858 161.311 345.331 161.116 346.834C160.581 348.396 160.455 350.064 160.751 351.686C162.017 353.724 164.01 355.238 166.35 355.939C168.035 356.303 169.78 356.327 171.475 356.007C173.17 355.687 174.779 355.031 176.202 354.079C179.641 352.074 182.233 349.648 187.117 348.29C190.609 347.57 193.897 346.119 196.754 344.037C199.462 341.918 203.084 336.064 197.9 334.706C192.716 333.347 181.452 338.134 171.184 338.571L162.279 342.452Z" fill="#37474F"/>
<path d="M162.281 336.21V343.681C162.596 344.521 163.142 345.259 163.86 345.816C164.579 346.372 165.441 346.725 166.352 346.834C167.186 346.953 168.038 346.864 168.827 346.576C170.072 346.113 171.15 345.306 171.93 344.255C172.709 343.203 173.155 341.953 173.213 340.657L173.512 336.21H162.281Z" fill="#FFA8A7"/>
<path d="M176.9 290.009C176.9 299.307 174.209 339.509 174.209 339.509C174.209 339.509 170.305 344.36 161.815 339.509L158.957 294.585L176.9 290.009Z" fill="#37474F"/>
<path d="M132.374 329.627L158.957 314.717C160.046 314.161 160.958 313.325 161.595 312.3C162.231 311.276 162.568 310.101 162.568 308.904C162.568 307.706 162.231 306.532 161.595 305.507C160.958 304.482 160.046 303.647 158.957 303.09L139.153 291.964C138.038 291.414 136.806 291.128 135.556 291.128C134.306 291.128 133.074 291.414 131.959 291.964L105.376 306.874C104.291 307.434 103.384 308.272 102.751 309.296C102.119 310.32 101.784 311.493 101.784 312.688C101.784 313.883 102.119 315.056 102.751 316.08C103.384 317.104 104.291 317.941 105.376 318.501L125.18 329.627C126.295 330.177 127.527 330.464 128.777 330.464C130.027 330.464 131.259 330.177 132.374 329.627Z" fill="#FF592D"/>
<path d="M132.374 329.627L158.957 314.717C160.046 314.161 160.958 313.325 161.595 312.3C162.231 311.276 162.568 310.101 162.568 308.904C162.568 307.706 162.231 306.532 161.595 305.507C160.958 304.482 160.046 303.647 158.957 303.09L139.153 291.964C138.038 291.414 136.806 291.128 135.556 291.128C134.306 291.128 133.074 291.414 131.959 291.964L105.376 306.874C104.291 307.434 103.384 308.272 102.751 309.296C102.119 310.32 101.784 311.493 101.784 312.688C101.784 313.883 102.119 315.056 102.751 316.08C103.384 317.104 104.291 317.941 105.376 318.501L125.18 329.627C126.295 330.177 127.527 330.464 128.777 330.464C130.027 330.464 131.259 330.177 132.374 329.627Z" fill="white"/>
<path d="M105.376 310.917L125.18 322.043C126.295 322.593 127.527 322.879 128.777 322.879C130.027 322.879 131.259 322.593 132.374 322.043L158.957 307.133C159.391 306.99 159.768 306.718 160.035 306.355C160.302 305.992 160.445 305.558 160.445 305.112C160.445 304.665 160.302 304.231 160.035 303.868C159.768 303.506 159.391 303.233 158.957 303.09L139.153 291.964C138.038 291.414 136.806 291.128 135.556 291.128C134.306 291.128 133.074 291.414 131.959 291.964L105.376 306.874C104.942 307.018 104.565 307.29 104.298 307.652C104.031 308.015 103.888 308.45 103.888 308.896C103.888 309.342 104.031 309.777 104.298 310.139C104.565 310.502 104.942 310.774 105.376 310.917Z" fill="#FF592D"/>
<path d="M121.575 211.948L118.202 225.484L103.715 226.341L106.838 207.582L121.575 211.948Z" fill="#FFA8A7"/>
<path d="M135.696 201.762C135.696 201.762 137.357 207.486 136.676 207.81C135.63 207.965 134.566 207.965 133.52 207.81L135.696 201.762Z" fill="#F28F8F"/>
<path d="M132.922 183.487C135.248 186.155 137.375 190.538 135.73 201.276C133.936 213.016 131.709 214.374 129.915 215.506C127.572 216.994 118.202 216.202 115.56 214.326C112.387 212.078 107.486 204.947 106.323 197.912C104.961 189.648 107.802 180.479 114.049 178.911C122.837 176.695 130.945 181.223 132.922 183.487Z" fill="#FFA8A7"/>
<path d="M105.376 211.383C107.619 213.647 112.221 214.262 115.112 214.779C118.003 215.297 126.892 215.863 129.517 209.702C132.142 203.54 130.347 199.109 133.57 197.622C136.794 196.134 140.017 195.164 140.864 194.387C141.711 193.611 141.728 183.472 133.072 178.216C124.416 172.96 111.158 171.748 102.435 182.404C95.823 190.636 98.5311 204.43 105.376 211.383Z" fill="#455A64"/>
<path d="M114.1 214.86C116.343 215.054 123.437 213.97 125.58 211.124C127.723 208.278 128.587 203.184 128.903 200.516C128.932 199.465 129.328 198.455 130.025 197.653C130.723 196.85 131.681 196.303 132.741 196.101C134.884 195.438 139.619 193.174 139.619 193.174V191.913C141.146 191.819 142.678 191.819 144.205 191.913C145.201 192.091 144.653 193.53 142.128 194.775C139.602 196.02 132.674 198.43 131.611 199.255C130.548 200.079 130.049 203.556 129.202 207.259C128.355 210.963 125.73 216.493 114.1 214.86Z" fill="#37474F"/>
<path d="M134.037 230.173L142.344 225.532C143.141 223.187 141.862 222.007 139.603 222.152C137.343 222.298 138.041 220.163 136.662 219.565C134.851 218.757 133.821 219.209 133.007 218.837C132.193 218.465 131.844 217.528 130.78 217.414C126.029 216.978 122.789 223.576 122.789 223.576L134.037 230.173Z" fill="#F28F8F"/>
<path d="M77.6465 289.556C77.6465 289.556 114.347 271.848 120.744 268.986C127.14 266.124 137.175 261.968 142.508 261.968C144.592 262.135 146.545 263.029 148.006 264.484C149.468 265.94 150.342 267.86 150.467 269.892C150.536 273.011 150.352 276.131 149.918 279.223C139.835 282.442 129.531 284.966 119.082 286.775C103.814 289.362 77.6465 289.556 77.6465 289.556Z" fill="#37474F"/>
<path d="M81.6343 279.32C81.6343 286.661 80.9199 294.294 84.06 299.663C87.2001 305.032 104.213 317.451 120.229 314.848C130.696 313.134 161.765 299.21 161.765 299.21C161.765 299.21 176.834 293.825 176.9 289.993C177 284.349 176.601 276.393 163.459 276.732C151.48 277.039 116.142 284.22 116.142 284.22L81.6343 279.32Z" fill="#455A64"/>
<path d="M91.8853 221.151C97.5673 215.378 101.405 214.892 104.13 215.604C110.392 217.348 116.454 219.711 122.223 222.655C122.223 222.655 120.03 243.321 130.414 249.272V281.486C130.414 281.486 130.098 284.979 125.579 288.455C121.591 291.512 112.57 294.601 101.804 293.727C89.011 292.692 81.6343 279.319 81.6343 279.319C81.6343 279.319 81.302 252.976 83.113 242.513C85.2396 230.304 89.9248 223.156 91.8853 221.151Z" fill="#455A64"/>
<path d="M130.413 250.842C130.413 250.842 124.133 245.99 122.223 239.684C122.223 239.684 122.97 249.58 130.413 254.594V250.842Z" fill="#37474F"/>
<path d="M188.547 266.041C191.53 266.161 194.464 265.275 196.854 263.535C196.854 263.535 199.745 258.069 203.301 258.538C203.301 258.538 203.932 256.209 202.47 255.449C201.008 254.689 200.376 254.899 199.778 254.09C199.18 253.282 199.114 251.778 196.456 251.778C195.359 251.778 195.508 251.018 192.85 250.711C190.192 250.403 187.567 256.371 185.623 256.371L188.547 266.041Z" fill="#FFA8A7"/>
<path d="M122.223 222.654C131.344 224.029 134.65 226.665 137.973 229.656C141.296 232.648 161.632 252.506 161.632 252.506L186.254 255.951C187.548 256.971 188.497 258.345 188.979 259.897C189.975 262.711 189.078 265.783 188.131 266.511C188.131 266.511 163.708 267.934 158.907 267.044C154.105 266.155 130.33 250.792 130.33 250.792C128.058 249.124 126.152 247.03 124.725 244.633C123.299 242.236 122.38 239.585 122.023 236.836C120.478 227.085 122.223 222.654 122.223 222.654Z" fill="#455A64"/>
<path d="M100.325 308.071L62.5943 352.898C62.1754 352.95 61.7538 352.977 61.3316 352.979C59.8355 353.002 58.3569 352.663 57.0285 351.992L25.1625 334.075L23.0026 332.862C21.823 332.199 20.8428 329.482 20.8428 326.798V319.246C20.8415 311.488 22.9381 303.867 26.9219 297.148C30.9057 290.429 36.6363 284.849 43.5378 280.968L81.5843 259.59L122.073 282.343L100.325 308.071Z" fill="#FF592D"/>
<g opacity="0.1">
<path d="M100.326 308.071L62.5952 352.898C62.1764 352.95 61.7548 352.977 61.3326 352.979C59.8364 353.002 58.3578 352.663 57.0295 351.992L25.1635 334.075L23.0036 332.862C21.824 332.199 20.8438 329.482 20.8438 326.798V319.246C20.8425 311.488 22.9391 303.867 26.9229 297.148C30.9066 290.429 36.6373 284.849 43.5388 280.968L81.5853 259.59L122.074 282.343L100.326 308.071Z" fill="black"/>
</g>
<path d="M87.3155 323.531L122.023 282.358L81.5338 259.605L43.5039 280.968C38.5845 283.74 34.2447 287.388 30.7109 291.722L87.3155 323.531Z" fill="#FF592D"/>
<path d="M122.023 315.412C122.023 318.096 121.059 320.813 119.863 321.476L117.703 322.689L65.6009 351.975C64.6529 352.473 63.6147 352.786 62.5439 352.897C62.1251 352.949 61.7034 352.976 61.2813 352.978V341.998C61.28 334.238 63.3783 326.615 67.3653 319.896C71.3523 313.176 77.0871 307.597 83.9929 303.72L88.2959 301.311L122.023 282.342V315.412Z" fill="#FF592D"/>
<g opacity="0.2">
<path d="M122.025 315.412C122.025 318.096 121.061 320.813 119.865 321.476L117.705 322.689L65.6029 351.975C64.6549 352.473 63.6166 352.786 62.5459 352.897C62.127 352.949 61.7054 352.976 61.2832 352.978V341.998C61.2819 334.238 63.3803 326.615 67.3673 319.896C71.3542 313.176 77.0891 307.597 83.9948 303.72L88.2979 301.311L122.025 282.342V315.412Z" fill="black"/>
</g>
<path d="M133.205 370.881L153.591 370.817L182.766 354.419L154.189 374.52L132.674 374.811L133.205 370.881Z" fill="#E0E0E0"/>
<path d="M83.7115 399.116C83.7115 399.116 120.462 385.629 123.586 384.044C127.251 381.858 130.73 379.386 133.986 376.654C134.651 375.798 134.963 374.732 134.861 373.664C134.76 372.596 134.252 371.603 133.438 370.881C133.438 370.881 118.485 370.218 114.647 371.366C112.504 371.997 77.9131 382.799 77.9131 382.799L83.7115 399.116Z" fill="#E0E0E0"/>
<path d="M82.0659 384.044C79.0255 381.505 75.9685 382.556 75.2208 386.372C74.9353 388.478 75.1641 390.62 75.8887 392.623C76.6133 394.626 77.8132 396.435 79.391 397.903C82.4314 400.441 85.4884 399.406 86.236 395.574C86.5202 393.468 86.2908 391.327 85.5663 389.324C84.8417 387.321 83.6426 385.512 82.0659 384.044Z" fill="#455A64"/>
</svg>
