<svg width="804" height="731" viewBox="0 0 804 731" fill="none" xmlns="http://www.w3.org/2000/svg">
<path d="M656.074 663.551C459.934 753.302 142.071 753.302 -54.0233 663.551C-250.117 573.8 -250.163 428.339 -54.0233 338.589C142.117 248.838 459.98 248.858 656.074 338.589C852.168 428.319 852.145 573.821 656.074 663.551Z" fill="#F5F5F5"/>
<path d="M535.364 544.758L507.235 530.527L516.604 525.797L544.732 540.007L535.364 544.758Z" fill="#FF592D"/>
<path d="M197.911 374.088L169.782 359.857L179.173 355.127L207.279 369.358L197.911 374.088Z" fill="#FF592D"/>
<path d="M141.676 345.646L113.548 331.416L122.916 326.686L151.045 340.896L141.676 345.646Z" fill="#FF592D"/>
<path d="M128.872 216.514L127.303 215.706C128.386 219.155 128.915 222.72 128.872 226.298V231.23C128.872 248.938 104.62 294.177 95.6895 310.186C94.7665 311.864 107.019 323.285 107.019 323.285L92.459 315.927C92.459 315.927 56.0692 289.649 56.0692 268.06V263.128C56.0692 241.438 72.3604 215.625 92.459 205.457C102.612 200.343 111.773 200.161 118.373 204.042L132.218 210.996L128.872 216.514ZM110.665 233.069C110.665 222.962 102.52 218.778 92.459 223.872C93.2897 230.401 79.6752 250.737 74.2756 251.485C74.2756 261.592 82.4212 265.776 92.459 260.682C97.7425 257.65 102.136 253.57 105.283 248.772C108.43 243.975 110.243 238.595 110.573 233.069H110.665Z" fill="#FF592D"/>
<path d="M143.848 239.135C143.432 260.805 105.866 323.287 105.866 323.287C105.866 323.287 69.9605 296.564 70.3528 274.894V269.962C70.7681 248.292 87.5439 222.701 107.85 212.837C128.156 202.972 144.263 212.513 143.848 234.203V239.135ZM125.618 240.712C125.803 230.605 117.726 226.299 107.596 231.232C102.242 234.18 97.7568 238.194 94.5052 242.946C91.2536 247.698 89.3272 253.055 88.8822 258.581C88.6746 268.688 96.7509 272.994 106.904 268.062C112.252 265.107 116.732 261.092 119.983 256.341C123.234 251.59 125.164 246.237 125.618 240.712Z" fill="#FF592D"/>
<path opacity="0.1" d="M143.848 239.135C143.432 260.805 105.866 323.287 105.866 323.287C105.866 323.287 69.9605 296.564 70.3528 274.894V269.962C70.7681 248.292 87.5439 222.701 107.85 212.837C128.156 202.972 144.263 212.513 143.848 234.203V239.135ZM125.618 240.712C125.803 230.605 117.726 226.299 107.596 231.232C102.242 234.18 97.7568 238.194 94.5052 242.946C91.2536 247.698 89.3272 253.055 88.8822 258.581C88.6746 268.688 96.7509 272.994 106.904 268.062C112.252 265.107 116.732 261.092 119.983 256.341C123.234 251.59 125.164 246.237 125.618 240.712Z" fill="black"/>
<path d="M495.768 528.138C472.439 539.903 417.751 531.352 373.607 509.015L252.347 447.706C208.204 425.369 191.359 397.757 214.734 386.013C238.109 374.268 292.844 382.859 337.033 405.176L458.063 466.404C502.183 488.72 519.074 516.434 495.768 528.138Z" fill="#F0F0F0"/>
<path d="M142.72 14.1537H142.605L122.644 4.04666H122.483C109.907 -1.53244 93.108 0.00384516 75.0169 10.3131C38.6502 30.8102 10.8906 78.1113 12.9904 115.932C14.0519 134.792 22.2206 147.729 34.8428 153.429H34.9581L54.9414 163.536H55.0798C67.6558 169.135 84.4778 167.579 102.592 157.29C138.936 136.773 166.695 89.4918 164.595 51.6712C163.488 32.7912 155.204 19.8541 142.72 14.1537Z" fill="#37474F"/>
<path d="M53.9268 163.01L34.8896 153.307H34.7512C22.2443 147.587 13.9834 134.65 12.9219 115.81C11.9989 98.9515 17.0063 80.213 26.0518 62.8086L46.035 72.9157C36.9664 90.3201 31.9591 109.059 32.9052 125.937C33.8974 144.332 41.8353 157.128 53.9268 163.01Z" fill="#263238"/>
<path d="M102.499 157.269C138.843 136.751 166.602 89.4706 164.503 51.6499C162.403 13.8292 131.182 -0.219606 94.9074 20.2775C58.633 40.7747 30.7811 88.0758 32.8809 125.896C34.9808 163.717 66.1556 177.766 102.499 157.269Z" fill="#455A64"/>
<path d="M72.0381 154.6C50.6011 155.51 47.1167 134.386 46.6552 125.289C44.8092 91.936 70.3305 48.4754 102.382 30.3837C109.211 26.1931 117.159 23.6169 125.457 22.9044C146.871 21.9948 150.356 43.1187 150.84 52.2151C152.686 85.5685 127.188 129.029 95.1134 147.222C88.2842 151.413 80.3363 153.989 72.0381 154.701V154.6Z" fill="#FAFAFA"/>
<path d="M102.892 95.0298C102.64 95.0304 102.389 94.9893 102.154 94.9085C101.672 94.7714 101.255 94.4992 100.967 94.1339C100.679 93.7686 100.537 93.3304 100.562 92.8871V44.7167C100.562 44.1806 100.805 43.6665 101.237 43.2874C101.67 42.9083 102.257 42.6953 102.869 42.6953C103.481 42.6953 104.068 42.9083 104.501 43.2874C104.934 43.6665 105.177 44.1806 105.177 44.7167V87.025L130.859 58.1187C131.239 57.6898 131.797 57.4106 132.412 57.3423C133.026 57.2741 133.647 57.4225 134.136 57.7549C134.626 58.0872 134.945 58.5764 135.022 59.1147C135.1 59.653 134.931 60.1964 134.551 60.6253L104.669 94.2414C104.459 94.4807 104.19 94.6758 103.883 94.8122C103.575 94.9486 103.237 95.023 102.892 95.0298Z" fill="#37474F"/>
<path d="M89.6465 130.668C89.5399 130.687 89.4301 130.687 89.3234 130.668C89.0786 130.603 88.8723 130.456 88.7476 130.261C88.6229 130.065 88.5895 129.834 88.6543 129.617L101.6 91.4326C101.673 91.2155 101.842 91.0328 102.069 90.9247C102.296 90.8167 102.563 90.7921 102.811 90.8565C103.059 90.9208 103.267 91.0688 103.391 91.2678C103.514 91.4668 103.542 91.7006 103.469 91.9177L90.5465 130.102C90.4805 130.266 90.3588 130.408 90.1979 130.509C90.037 130.61 89.8446 130.666 89.6465 130.668Z" fill="#FF592D"/>
<path d="M102.153 83.3254C106.445 80.9199 110.114 82.5774 110.345 87.0245C110.331 89.4501 109.663 91.8386 108.396 93.9953C107.129 96.1521 105.298 98.0162 103.053 99.4359C98.784 101.862 95.115 100.204 94.8612 95.757C94.8807 93.3294 95.5507 90.9398 96.8173 88.7806C98.0838 86.6213 99.9114 84.7527 102.153 83.3254Z" fill="#FF592D"/>
<path d="M479.107 516.312L451.001 502.082L460.37 497.352L488.476 511.562L479.107 516.312Z" fill="#FF592D"/>
<path d="M422.874 487.873L394.745 473.642L404.136 468.912L432.242 483.122L422.874 487.873Z" fill="#FF592D"/>
<path d="M434.435 482.069C434.435 493.955 443.942 508.347 455.687 514.411C461.941 517.585 467.571 517.686 471.448 515.301C473.011 514.225 474.295 512.87 475.214 511.326C476.133 509.782 476.666 508.084 476.778 506.346C475.989 506.023 475.219 505.665 474.471 505.274C462.725 499.352 453.218 484.899 453.218 472.932C453.207 472.046 453.269 471.162 453.403 470.284C451.643 469.468 449.708 468.982 447.722 468.857C445.735 468.731 443.741 468.97 441.865 469.556C437.25 471.254 434.435 475.641 434.435 482.069Z" fill="#263238"/>
<path d="M432.519 457.65L432.912 457.448C438.819 454.699 446.757 455.204 455.687 459.692C473.801 468.849 488.5 491.125 488.5 509.459C488.5 518.677 484.785 525.125 478.785 528.117C472.786 531.109 464.686 530.603 455.71 526.095C437.596 516.938 422.92 494.642 422.92 476.308C422.897 467.09 426.543 460.642 432.519 457.65ZM455.595 514.371C461.871 517.545 467.501 517.646 471.378 515.24C474.793 513.219 476.87 509.176 476.87 503.617C476.87 491.752 467.34 477.339 455.595 471.275C450.241 468.566 445.372 468.101 441.749 469.496C437.273 471.174 434.458 475.56 434.458 482.029C434.434 493.995 443.942 508.448 455.687 514.412L455.595 514.371Z" fill="#37474F"/>
<path d="M440.667 470.042L440.921 469.921C444.752 468.122 449.944 468.466 455.689 471.356C467.435 477.299 476.965 491.752 476.965 503.699C476.965 509.763 474.657 513.806 470.665 515.827C466.673 517.849 461.435 517.444 455.689 514.493C443.944 508.55 434.437 494.097 434.437 482.151C434.437 476.167 436.814 471.963 440.667 470.042ZM455.689 510.167C460.72 512.714 465.243 512.795 468.381 510.855C471.104 509.177 472.788 505.963 472.788 501.516C472.465 496.32 470.748 491.264 467.777 486.758C464.807 482.252 460.665 478.423 455.689 475.581C454.073 474.592 452.215 473.948 450.264 473.699C448.314 473.449 446.323 473.602 444.452 474.146C440.852 475.5 438.591 479.017 438.591 484.253C438.912 489.446 440.628 494.5 443.599 499.003C446.57 503.506 450.713 507.331 455.689 510.167Z" fill="#FF592D"/>
<path d="M366.639 459.408L338.51 445.198L347.879 440.447L376.008 454.678L366.639 459.408Z" fill="#FF592D"/>
<path d="M310.383 430.969L282.277 416.758L291.646 412.008L319.774 426.239L310.383 430.969Z" fill="#FF592D"/>
<path d="M254.148 402.527L226.043 388.317L235.411 383.566L263.54 397.797L254.148 402.527Z" fill="#FF592D"/>
<path d="M394.099 270.267C393.805 269.923 393.393 269.67 392.924 269.545C392.455 269.42 391.952 269.429 391.489 269.571C391.026 269.712 390.627 269.98 390.349 270.334C390.072 270.688 389.93 271.111 389.945 271.54C389.765 272.691 389.899 273.863 390.336 274.959C390.773 276.056 391.501 277.046 392.46 277.847C394.306 279.242 396.175 278.676 396.614 276.574C396.792 275.423 396.658 274.252 396.22 273.156C395.783 272.06 395.056 271.07 394.099 270.267Z" fill="#FF592D"/>
<path d="M372.456 279.202L391.262 269.681L395.393 278.393L376.517 287.934L372.456 279.202Z" fill="#FF592D"/>
<path d="M375.34 279.746C373.494 278.372 371.648 278.938 371.187 281.04C371.017 282.189 371.158 283.357 371.599 284.449C372.04 285.541 372.768 286.527 373.725 287.327C375.571 288.722 377.44 288.156 377.879 286.053C378.047 284.901 377.905 283.731 377.464 282.636C377.023 281.541 376.296 280.551 375.34 279.746Z" fill="#FF592D"/>
<path d="M230.796 359.471C230.796 359.875 230.796 360.239 230.796 360.643C230.796 361.452 230.796 362.281 230.796 363.109C234.534 361.715 239.403 362.179 244.756 364.888C256.502 370.831 266.032 385.284 266.032 397.231C266.032 402.77 263.955 406.772 260.54 408.854C261.499 409.451 262.492 410.005 263.517 410.512L264.601 410.997L267.855 421.73L286.684 412.533C292.638 409.521 296.307 403.093 296.307 393.916C296.307 375.582 281.631 353.305 263.517 344.128C254.563 339.6 246.464 339.135 240.441 342.107L221.981 351.163L221.589 351.365L230.796 359.471Z" fill="#455A64"/>
<path d="M221.611 351.183L222.003 350.98C227.911 348.231 235.849 348.737 244.779 353.224C262.893 362.381 277.592 384.657 277.592 402.991C277.592 412.209 273.877 418.657 267.877 421.649C261.877 424.641 253.778 424.135 244.802 419.628C226.688 410.471 212.012 388.174 212.012 369.84C211.942 360.623 215.658 354.174 221.611 351.183ZM244.686 407.903C250.963 411.077 256.593 411.178 260.47 408.773C263.885 406.751 265.962 402.708 265.962 397.15C265.962 385.284 256.432 370.871 244.686 364.807C239.333 362.098 234.464 361.633 230.726 363.028C226.249 364.706 223.434 369.092 223.434 375.561C223.48 387.528 233.033 401.981 244.779 407.903H244.686Z" fill="#37474F"/>
<path d="M223.48 375.642C223.48 387.528 232.987 401.921 244.732 407.985C250.986 411.158 256.616 411.26 260.493 408.874C262.056 407.798 263.339 406.443 264.259 404.899C265.178 403.355 265.711 401.658 265.823 399.919C265.034 399.596 264.264 399.239 263.516 398.848C251.77 392.925 242.263 378.472 242.263 366.505C242.252 365.62 242.314 364.735 242.448 363.857C240.688 363.041 238.753 362.555 236.766 362.43C234.78 362.305 232.786 362.543 230.91 363.129C226.341 364.827 223.48 369.173 223.48 375.642Z" fill="#263238"/>
<path d="M229.755 363.572L230.009 363.431C233.84 361.652 239.055 361.975 244.777 364.886C256.523 370.829 266.053 385.262 266.053 397.229C266.053 403.293 263.745 407.336 259.753 409.357C255.761 411.379 250.523 410.954 244.777 408.003C233.032 402.08 223.525 387.627 223.525 375.66C223.479 369.697 225.786 365.513 229.755 363.572ZM244.777 403.677C249.831 406.244 254.354 406.325 257.469 404.385C260.215 402.707 261.876 399.493 261.876 395.046C261.553 389.85 259.836 384.794 256.865 380.288C253.895 375.782 249.753 371.953 244.777 369.111C240.485 366.928 236.562 366.544 233.563 367.676C229.963 369.03 227.701 372.547 227.701 377.783C228.022 382.971 229.735 388.02 232.703 392.52C235.67 397.019 239.807 400.842 244.777 403.677Z" fill="#FF592D"/>
<path d="M263.539 381.687L210.466 354.842C204.305 351.709 224.311 333.415 239.195 332.182C247.389 331.315 255.7 332.004 263.562 334.203C263.562 334.203 252.232 346.918 254.171 354.134C256.109 361.351 263.539 381.687 263.539 381.687Z" fill="#FF592D"/>
<path d="M338.511 305.822C338.511 305.822 261.578 339.822 258.255 341.864C254.932 343.906 258.255 367.617 263.539 381.686C268.823 395.755 276.946 417.384 280.2 423.448C283.453 429.512 287.699 431.776 295.499 435.718L350.879 463.755L425.851 471.76L455.618 457.61L447.865 414.938C447.865 414.938 368.186 377.805 357.271 372.286C346.356 366.768 314.074 340.874 338.511 305.822Z" fill="#FF592D"/>
<path opacity="0.2" d="M338.511 305.822C338.511 305.822 261.578 339.822 258.255 341.864C254.932 343.906 258.255 367.617 263.539 381.686C268.823 395.755 276.946 417.384 280.2 423.448C283.453 429.512 287.699 431.776 295.499 435.718L350.879 463.755L425.851 471.76L455.618 457.61L447.865 414.938C447.865 414.938 368.186 377.805 357.271 372.286C346.356 366.768 314.074 340.874 338.511 305.822Z" fill="black"/>
<path d="M256.777 373.581C249.854 357.288 244.685 343.785 245.562 334.669C246.624 323.854 251.239 315.02 271.591 310.573C291.944 306.126 320.396 306.207 320.396 306.207L329.049 310.594C329.049 310.594 270.53 340.308 263.884 343.543C259.823 345.564 255.485 354.478 263.446 381.707L262.084 382.394C261.415 382.758 258.992 378.816 256.777 373.581Z" fill="#FF592D"/>
<path opacity="0.3" d="M256.777 373.581C249.854 357.288 244.685 343.785 245.562 334.669C246.624 323.854 251.239 315.02 271.591 310.573C291.944 306.126 320.396 306.207 320.396 306.207L329.049 310.594C329.049 310.594 270.53 340.308 263.884 343.543C259.823 345.564 255.485 354.478 263.446 381.707L262.084 382.394C261.415 382.758 258.992 378.816 256.777 373.581Z" fill="white"/>
<path d="M301.105 324.785L291.644 320.055C291.644 320.055 292.198 291.33 305.997 284.356C319.796 277.382 366.639 282.133 366.639 282.133L376.008 286.863L301.105 324.785Z" fill="#FF592D"/>
<path d="M331.796 290.926C336.296 293.21 336.296 296.889 331.796 299.153C329.273 300.279 326.482 300.865 323.651 300.865C320.819 300.865 318.028 300.279 315.505 299.153C311.028 296.889 311.028 293.19 315.505 290.926C318.031 289.81 320.821 289.229 323.651 289.229C326.48 289.229 329.27 289.81 331.796 290.926Z" fill="#F0F0F0"/>
<path d="M317.4 304.651C320.561 306.268 320.561 308.876 317.4 310.473C315.614 311.273 313.637 311.69 311.631 311.69C309.625 311.69 307.648 311.273 305.862 310.473C302.677 308.876 302.677 306.268 305.862 304.651C307.651 303.86 309.627 303.448 311.631 303.448C313.635 303.448 315.61 303.86 317.4 304.651Z" fill="#F0F0F0"/>
<path d="M353.649 287.264C356.833 288.861 356.833 291.469 353.649 293.086C351.86 293.877 349.884 294.289 347.88 294.289C345.876 294.289 343.9 293.877 342.111 293.086C338.927 291.469 338.927 288.861 342.111 287.264C343.897 286.464 345.874 286.047 347.88 286.047C349.886 286.047 351.863 286.464 353.649 287.264Z" fill="#F0F0F0"/>
<path d="M299.629 316.456C297.783 315.061 295.937 315.627 295.475 317.729C295.305 318.881 295.446 320.052 295.887 321.148C296.328 322.243 297.056 323.233 298.013 324.036C298.307 324.38 298.719 324.633 299.188 324.758C299.657 324.884 300.16 324.875 300.623 324.733C301.086 324.591 301.485 324.323 301.763 323.969C302.04 323.615 302.182 323.192 302.167 322.763C302.344 321.611 302.207 320.438 301.766 319.341C301.324 318.245 300.592 317.256 299.629 316.456Z" fill="#FF592D"/>
<path d="M278.099 325.389L296.929 315.868L301.036 324.58L282.184 334.101L278.099 325.389Z" fill="#FF592D"/>
<path d="M281.008 325.935C280.714 325.591 280.302 325.338 279.833 325.213C279.364 325.088 278.861 325.097 278.398 325.238C277.935 325.38 277.536 325.648 277.258 326.002C276.981 326.356 276.839 326.779 276.854 327.208C276.678 328.36 276.817 329.532 277.258 330.629C277.699 331.725 278.431 332.714 279.392 333.515C281.238 334.909 283.084 334.323 283.546 332.241C283.718 331.089 283.578 329.918 283.137 328.823C282.696 327.727 281.966 326.738 281.008 325.935Z" fill="#FF592D"/>
<path d="M281.008 325.935C280.714 325.591 280.302 325.338 279.833 325.213C279.364 325.088 278.861 325.097 278.398 325.238C277.935 325.38 277.536 325.648 277.258 326.002C276.981 326.356 276.839 326.779 276.854 327.208C276.678 328.36 276.817 329.532 277.258 330.629C277.699 331.725 278.431 332.714 279.392 333.515C281.238 334.909 283.084 334.323 283.546 332.241C283.718 331.089 283.578 329.918 283.137 328.823C282.696 327.727 281.966 326.738 281.008 325.935Z" fill="black"/>
<path d="M441.704 465.897C441.704 466.302 441.704 466.666 441.704 467.07C441.704 467.878 441.704 468.707 441.704 469.536C445.442 468.141 450.311 468.606 455.549 471.315C467.295 477.258 476.825 491.711 476.825 503.657C476.825 509.196 474.748 513.198 471.333 515.28C472.292 515.878 473.285 516.431 474.31 516.938L475.394 517.423L478.648 528.157L497.477 518.959C503.431 515.947 507.1 509.519 507.1 500.342C507.1 482.008 492.424 459.732 474.31 450.555C465.356 446.027 457.257 445.562 451.234 448.534L432.774 457.589L432.382 457.792L441.704 465.897Z" fill="#455A64"/>
<path d="M497.868 433.818L511.921 476.49L483.792 490.721L469.232 448.312L497.868 433.818Z" fill="#FF592D"/>
<path opacity="0.2" d="M497.868 433.818L511.921 476.49L483.792 490.721L469.232 448.312L497.868 433.818Z" fill="black"/>
<path d="M497.87 433.82C497.87 433.82 481.925 445.686 469.234 448.313C452.573 451.851 426.083 452.235 416.691 452.801C402.338 453.67 391.493 453.65 386.416 452.053C379.84 450.032 362.164 441.036 357.272 438.57C347.904 433.84 343.912 415.223 369.733 410.129C387.192 406.96 404.976 405.369 422.806 405.379L497.87 433.82Z" fill="#FF592D"/>
<path d="M338.858 428.36C339.66 430.118 340.203 431.959 340.473 433.838C341.216 435.79 341.391 437.875 340.981 439.902C339.222 442.45 336.454 444.342 333.204 445.218C330.863 445.674 328.44 445.703 326.086 445.303C323.732 444.903 321.497 444.083 319.521 442.893C314.744 440.387 311.144 437.355 304.36 435.657C299.511 434.758 294.944 432.944 290.976 430.341C287.215 427.693 282.185 420.375 289.384 418.677C296.584 416.979 312.229 422.963 326.489 423.508L338.858 428.36Z" fill="#37474F"/>
<path d="M338.855 420.559V429.898C338.419 430.947 337.66 431.87 336.662 432.566C335.665 433.261 334.467 433.702 333.202 433.839C332.043 433.988 330.86 433.877 329.764 433.516C328.035 432.938 326.537 431.929 325.455 430.615C324.373 429.3 323.753 427.737 323.672 426.117L323.257 420.559H338.855Z" fill="#FFA8A7"/>
<path d="M318.55 362.807C318.55 374.43 322.289 424.682 322.289 424.682C322.289 424.682 327.711 430.746 339.503 424.682L343.472 368.527L318.55 362.807Z" fill="#37474F"/>
<path d="M380.393 412.33L343.472 393.693C341.959 392.997 340.692 391.952 339.809 390.672C338.925 389.391 338.457 387.922 338.457 386.426C338.457 384.929 338.925 383.461 339.809 382.18C340.692 380.899 341.959 379.854 343.472 379.159L370.978 365.252C372.527 364.564 374.238 364.206 375.974 364.206C377.71 364.206 379.421 364.564 380.97 365.252L417.89 383.889C419.397 384.589 420.657 385.636 421.536 386.916C422.415 388.196 422.879 389.662 422.879 391.156C422.879 392.65 422.415 394.115 421.536 395.396C420.657 396.676 419.397 397.722 417.89 398.423L390.384 412.33C388.836 413.017 387.125 413.375 385.389 413.375C383.653 413.375 381.941 413.017 380.393 412.33Z" fill="#FF592D"/>
<path d="M380.393 412.33L343.472 393.693C341.959 392.997 340.692 391.952 339.809 390.672C338.925 389.391 338.457 387.922 338.457 386.426C338.457 384.929 338.925 383.461 339.809 382.18C340.692 380.899 341.959 379.854 343.472 379.159L370.978 365.252C372.527 364.564 374.238 364.206 375.974 364.206C377.71 364.206 379.421 364.564 380.97 365.252L417.89 383.889C419.397 384.589 420.657 385.636 421.536 386.916C422.415 388.196 422.879 389.662 422.879 391.156C422.879 392.65 422.415 394.115 421.536 395.396C420.657 396.676 419.397 397.722 417.89 398.423L390.384 412.33C388.836 413.017 387.125 413.375 385.389 413.375C383.653 413.375 381.941 413.017 380.393 412.33Z" fill="white"/>
<path d="M417.89 388.942L390.384 402.85C388.836 403.537 387.124 403.895 385.388 403.895C383.652 403.895 381.941 403.537 380.392 402.85L343.472 384.212C342.869 384.033 342.346 383.693 341.975 383.24C341.604 382.787 341.405 382.243 341.405 381.686C341.405 381.128 341.604 380.584 341.975 380.131C342.346 379.678 342.869 379.338 343.472 379.159L370.978 365.252C372.526 364.564 374.238 364.206 375.973 364.206C377.709 364.206 379.421 364.564 380.969 365.252L417.89 383.889C418.493 384.068 419.016 384.408 419.387 384.861C419.758 385.314 419.957 385.858 419.957 386.416C419.957 386.973 419.758 387.517 419.387 387.97C419.016 388.423 418.493 388.763 417.89 388.942Z" fill="#FF592D"/>
<path d="M395.391 265.231L400.076 282.15L420.197 283.222L415.859 259.773L395.391 265.231Z" fill="#FFA8A7"/>
<path d="M375.779 252.498C375.779 252.498 373.471 259.654 374.417 260.058C375.87 260.252 377.349 260.252 378.802 260.058L375.779 252.498Z" fill="#F28F8F"/>
<path d="M379.632 229.655C376.401 232.99 373.448 238.468 375.732 251.89C378.224 266.566 381.316 268.264 383.808 269.679C387.062 271.539 400.076 270.548 403.745 268.203C408.153 265.393 414.96 256.479 416.575 247.686C418.467 237.357 414.522 225.895 405.845 223.934C393.638 221.165 382.378 226.825 379.632 229.655Z" fill="#FFA8A7"/>
<path d="M417.89 264.525C414.775 267.355 408.383 268.123 404.368 268.77C400.353 269.417 388.007 270.124 384.362 262.423C380.716 254.721 383.208 249.182 378.731 247.323C374.255 245.463 369.778 244.25 368.601 243.28C367.424 242.31 367.401 229.635 379.423 223.066C391.446 216.496 409.86 214.98 421.974 228.301C431.158 238.59 427.397 255.833 417.89 264.525Z" fill="#455A64"/>
<path d="M405.774 268.871C402.659 269.113 392.806 267.759 389.829 264.201C386.853 260.644 385.653 254.276 385.214 250.941C385.174 249.628 384.624 248.365 383.655 247.362C382.686 246.359 381.356 245.675 379.884 245.423C376.907 244.594 370.331 241.764 370.331 241.764V240.187C368.21 240.07 366.083 240.07 363.962 240.187C362.577 240.41 363.339 242.209 366.846 243.765C370.354 245.322 379.976 248.333 381.453 249.364C382.93 250.395 383.622 254.741 384.799 259.37C385.976 263.999 389.622 270.913 405.774 268.871Z" fill="#37474F"/>
<path d="M378.083 288.013L366.545 282.211C365.438 279.28 367.215 277.805 370.353 277.987C373.491 278.169 372.522 275.5 374.437 274.752C376.952 273.742 378.383 274.308 379.514 273.843C380.644 273.378 381.129 272.206 382.606 272.064C389.205 271.518 393.705 279.765 393.705 279.765L378.083 288.013Z" fill="#F28F8F"/>
<path d="M456.403 362.241C456.403 362.241 405.43 340.107 396.546 336.529C387.662 332.951 373.724 327.756 366.317 327.756C363.423 327.965 360.711 329.082 358.681 330.902C356.651 332.721 355.438 335.121 355.264 337.661C355.168 341.56 355.423 345.46 356.026 349.324C370.031 353.349 384.342 356.503 398.853 358.764C420.06 361.998 456.403 362.241 456.403 362.241Z" fill="#37474F"/>
<path d="M450.865 349.446C450.865 358.623 451.857 368.164 447.496 374.875C443.135 381.586 419.506 397.11 397.261 393.856C382.723 391.713 339.573 374.309 339.573 374.309C339.573 374.309 318.643 367.578 318.551 362.787C318.413 355.732 318.966 345.787 337.219 346.211C353.856 346.595 402.937 355.571 402.937 355.571L450.865 349.446Z" fill="#455A64"/>
<path d="M436.628 276.735C428.736 269.519 423.406 268.912 419.621 269.802C410.924 271.982 402.504 274.935 394.492 278.615C394.492 278.615 397.538 304.449 383.116 311.888V352.154C383.116 352.154 383.554 356.52 389.831 360.866C395.369 364.687 407.899 368.548 422.852 367.456C440.62 366.163 450.865 349.445 450.865 349.445C450.865 349.445 451.327 316.517 448.811 303.438C445.858 288.176 439.351 279.242 436.628 276.735Z" fill="#455A64"/>
<path d="M383.116 313.848C383.116 313.848 391.839 307.784 394.492 299.9C394.492 299.9 393.454 312.271 383.116 318.538V313.848Z" fill="#37474F"/>
<path d="M302.374 332.849C298.231 332.998 294.157 331.892 290.837 329.716C290.837 329.716 286.822 322.884 281.883 323.47C281.883 323.47 281.007 320.559 283.037 319.609C285.068 318.659 285.945 318.922 286.775 317.911C287.606 316.9 287.698 315.02 291.39 315.02C292.913 315.02 292.706 314.07 296.398 313.686C300.09 313.302 303.736 320.761 306.436 320.761L302.374 332.849Z" fill="#FFA8A7"/>
<path d="M394.492 278.613C381.824 280.331 377.232 283.626 372.617 287.366C368.002 291.106 339.758 315.928 339.758 315.928L305.56 320.234C303.763 321.509 302.444 323.227 301.776 325.166C300.391 328.683 301.637 332.524 302.953 333.434C302.953 333.434 336.873 335.213 343.542 334.101C350.211 332.989 383.232 313.786 383.232 313.786C386.388 311.701 389.035 309.083 391.016 306.087C392.998 303.09 394.274 299.776 394.769 296.341C396.915 284.152 394.492 278.613 394.492 278.613Z" fill="#455A64"/>
<path d="M424.905 385.385L477.31 441.419C477.891 441.483 478.477 441.517 479.063 441.52C481.141 441.548 483.195 441.125 485.04 440.287L529.298 417.889L532.298 416.373C533.936 415.545 535.298 412.149 535.298 408.793V399.353C535.3 389.656 532.388 380.129 526.855 371.73C521.322 363.332 513.362 356.357 503.777 351.506L450.934 324.783L394.7 353.224L424.905 385.385Z" fill="#FF592D"/>
<g opacity="0.1">
<path d="M424.904 385.385L477.308 441.418C477.889 441.483 478.475 441.516 479.061 441.519C481.139 441.548 483.193 441.124 485.038 440.286L529.296 417.889L532.296 416.373C533.934 415.544 535.296 412.148 535.296 408.793V399.353C535.298 389.656 532.386 380.129 526.853 371.73C521.32 363.331 513.36 356.356 503.775 351.506L450.933 324.783L394.698 353.224L424.904 385.385Z" fill="black"/>
</g>
<path d="M442.974 404.708L394.77 353.243L451.004 324.802L503.824 351.505C510.656 354.97 516.684 359.53 521.592 364.947L442.974 404.708Z" fill="#FF592D"/>
<path d="M394.769 394.562C394.769 397.917 396.108 401.313 397.769 402.142L400.769 403.658L473.133 440.266C474.45 440.887 475.892 441.279 477.379 441.418C477.961 441.482 478.546 441.516 479.133 441.519V427.794C479.135 418.094 476.22 408.565 470.683 400.166C465.145 391.767 457.18 384.793 447.589 379.947L441.612 376.935L394.769 353.224V394.562Z" fill="#FF592D"/>
<g opacity="0.2">
<path d="M394.767 394.561C394.767 397.916 396.106 401.312 397.767 402.141L400.767 403.657L473.131 440.265C474.448 440.886 475.89 441.278 477.377 441.417C477.959 441.482 478.544 441.515 479.131 441.518V427.793C479.133 418.093 476.218 408.564 470.681 400.165C465.143 391.766 457.178 384.792 447.587 379.946L441.61 376.934L394.767 353.223V394.561Z" fill="black"/>
</g>
<path d="M379.238 463.898L350.925 463.817L310.404 443.32L350.094 468.446L379.977 468.81L379.238 463.898Z" fill="#E0E0E0"/>
<path d="M447.98 499.19C447.98 499.19 396.937 482.331 392.599 480.35C387.508 477.617 382.677 474.528 378.154 471.113C377.231 470.043 376.797 468.71 376.938 467.375C377.079 466.04 377.784 464.799 378.915 463.896C378.915 463.896 399.683 463.067 405.014 464.503C407.99 465.291 456.033 478.794 456.033 478.794L447.98 499.19Z" fill="#E0E0E0"/>
<path d="M450.266 480.351C454.489 477.177 458.734 478.491 459.773 483.262C460.169 485.894 459.852 488.571 458.845 491.075C457.839 493.58 456.172 495.841 453.981 497.675C449.758 500.849 445.512 499.555 444.474 494.764C444.079 492.132 444.398 489.455 445.404 486.951C446.41 484.447 448.076 482.186 450.266 480.351Z" fill="#455A64"/>
</svg>
