<svg width="380" height="300" viewBox="0 0 380 300" fill="none" xmlns="http://www.w3.org/2000/svg">
<path d="M379.711 265.704H0V265.894H379.711V265.704Z" fill="#EBEBEB"/>
<path d="M179.983 231.834H33.3463C32.1975 231.832 31.0965 231.374 30.285 230.561C29.4734 229.748 29.0176 228.647 29.0176 227.498V21.3677C29.0276 20.2255 29.4878 19.1334 30.2983 18.3286C31.1088 17.5238 32.2041 17.0713 33.3463 17.0693H179.983C181.133 17.0693 182.236 17.5262 183.049 18.3394C183.863 19.1526 184.32 20.2556 184.32 21.4056V227.498C184.32 228.648 183.863 229.751 183.049 230.564C182.236 231.377 181.133 231.834 179.983 231.834ZM33.3463 17.2212C32.2479 17.2232 31.1952 17.661 30.4192 18.4384C29.6432 19.2158 29.2074 20.2693 29.2074 21.3677V227.498C29.2074 228.596 29.6432 229.65 30.4192 230.427C31.1952 231.205 32.2479 231.642 33.3463 231.644H179.983C181.082 231.642 182.136 231.205 182.913 230.428C183.69 229.65 184.128 228.597 184.13 227.498V21.3677C184.128 20.2686 183.69 19.2151 182.913 18.4379C182.136 17.6607 181.082 17.2232 179.983 17.2212H33.3463Z" fill="#EBEBEB"/>
<path d="M344.254 231.834H197.61C196.46 231.832 195.359 231.375 194.546 230.562C193.733 229.749 193.275 228.647 193.273 227.498V21.3677C193.285 20.2248 193.747 19.1327 194.559 18.3281C195.371 17.5236 196.467 17.0713 197.61 17.0693H344.254C345.395 17.0733 346.489 17.5267 347.297 18.3313C348.106 19.1359 348.565 20.2268 348.575 21.3677V227.498C348.575 228.645 348.121 229.746 347.311 230.559C346.501 231.371 345.402 231.83 344.254 231.834ZM197.61 17.2212C196.511 17.2232 195.457 17.6607 194.68 18.4379C193.903 19.2151 193.465 20.2686 193.463 21.3677V227.498C193.465 228.597 193.903 229.65 194.68 230.428C195.457 231.205 196.511 231.642 197.61 231.644H344.254C345.353 231.642 346.407 231.205 347.184 230.428C347.961 229.65 348.399 228.597 348.401 227.498V21.3677C348.399 20.2686 347.961 19.2151 347.184 18.4379C346.407 17.6607 345.353 17.2232 344.254 17.2212H197.61Z" fill="#EBEBEB"/>
<path d="M152.219 272.935H132.474V273.124H152.219V272.935Z" fill="#EBEBEB"/>
<path d="M80.9236 270.876H39.8389V271.066H80.9236V270.876Z" fill="#EBEBEB"/>
<path d="M131.715 279.989H111.727V280.179H131.715V279.989Z" fill="#EBEBEB"/>
<path d="M225.594 278.713H196.105V278.903H225.594V278.713Z" fill="#EBEBEB"/>
<path d="M240.471 278.713H232.353V278.903H240.471V278.713Z" fill="#EBEBEB"/>
<path d="M341.672 275.509H300.238V275.699H341.672V275.509Z" fill="#EBEBEB"/>
<path d="M87.8203 95.7988H144.018C145.16 95.7988 146.255 96.2525 147.062 97.06C147.87 97.8675 148.323 98.9628 148.323 100.105V265.704H83.5371V100.097C83.5391 98.9604 83.9905 97.8706 84.7929 97.0653C85.5953 96.2601 86.6835 95.8048 87.8203 95.7988Z" fill="#F5F5F5"/>
<path d="M97.2511 105.839H88.8975V124.437H97.2511V105.839Z" fill="#EBEBEB"/>
<path d="M142.939 105.839H134.585V124.437H142.939V105.839Z" fill="#EBEBEB"/>
<path d="M112.478 105.839H104.124V124.437H112.478V105.839Z" fill="#EBEBEB"/>
<path d="M127.712 105.839H119.358V124.437H127.712V105.839Z" fill="#EBEBEB"/>
<path d="M97.2511 135.198H88.8975V153.797H97.2511V135.198Z" fill="#EBEBEB"/>
<path d="M142.939 135.198H134.585V153.797H142.939V135.198Z" fill="#EBEBEB"/>
<path d="M112.478 135.198H104.124V153.797H112.478V135.198Z" fill="#EBEBEB"/>
<path d="M127.712 135.198H119.358V153.797H127.712V135.198Z" fill="#EBEBEB"/>
<path d="M97.2511 164.557H88.8975V183.155H97.2511V164.557Z" fill="#EBEBEB"/>
<path d="M142.939 164.557H134.585V183.155H142.939V164.557Z" fill="#EBEBEB"/>
<path d="M112.478 164.557H104.124V183.155H112.478V164.557Z" fill="#EBEBEB"/>
<path d="M127.712 164.557H119.358V183.155H127.712V164.557Z" fill="#EBEBEB"/>
<path d="M97.2511 193.916H88.8975V212.514H97.2511V193.916Z" fill="#EBEBEB"/>
<path d="M142.939 193.916H134.585V212.514H142.939V193.916Z" fill="#EBEBEB"/>
<path d="M112.478 193.916H104.124V212.514H112.478V193.916Z" fill="#EBEBEB"/>
<path d="M127.712 193.916H119.358V212.514H127.712V193.916Z" fill="#EBEBEB"/>
<path d="M97.2511 223.275H88.8975V241.874H97.2511V223.275Z" fill="#EBEBEB"/>
<path d="M142.939 223.275H134.585V241.874H142.939V223.275Z" fill="#EBEBEB"/>
<path d="M112.478 223.275H104.124V241.874H112.478V223.275Z" fill="#EBEBEB"/>
<path d="M127.712 223.275H119.358V241.874H127.712V223.275Z" fill="#EBEBEB"/>
<path d="M287.062 111.238H327.311C327.771 111.238 328.226 111.329 328.651 111.505C329.076 111.681 329.461 111.939 329.787 112.264C330.112 112.589 330.37 112.975 330.545 113.399C330.721 113.824 330.812 114.279 330.812 114.739V265.705H283.599V114.747C283.597 113.824 283.959 112.937 284.608 112.28C285.256 111.623 286.138 111.248 287.062 111.238Z" fill="#F5F5F5"/>
<path d="M297.177 120.366H289.583V137.271H297.177V120.366Z" fill="#EBEBEB"/>
<path d="M311.022 120.366H303.428V137.271H311.022V120.366Z" fill="#EBEBEB"/>
<path d="M324.866 120.366H317.271V137.271H324.866V120.366Z" fill="#EBEBEB"/>
<path d="M297.177 147.06H289.583V163.964H297.177V147.06Z" fill="#EBEBEB"/>
<path d="M311.022 147.06H303.428V163.964H311.022V147.06Z" fill="#EBEBEB"/>
<path d="M324.866 147.06H317.271V163.964H324.866V147.06Z" fill="#EBEBEB"/>
<path d="M297.177 173.754H289.583V190.659H297.177V173.754Z" fill="#EBEBEB"/>
<path d="M311.022 173.754H303.428V190.659H311.022V173.754Z" fill="#EBEBEB"/>
<path d="M324.866 173.754H317.271V190.659H324.866V173.754Z" fill="#EBEBEB"/>
<path d="M297.177 200.439H289.583V217.344H297.177V200.439Z" fill="#EBEBEB"/>
<path d="M311.022 200.439H303.428V217.344H311.022V200.439Z" fill="#EBEBEB"/>
<path d="M324.866 200.439H317.271V217.344H324.866V200.439Z" fill="#EBEBEB"/>
<path d="M297.177 227.134H289.583V244.039H297.177V227.134Z" fill="#EBEBEB"/>
<path d="M311.022 227.134H303.428V244.039H311.022V227.134Z" fill="#EBEBEB"/>
<path d="M324.866 227.134H317.271V244.039H324.866V227.134Z" fill="#EBEBEB"/>
<path d="M194.86 68.0342H260.239C261.566 68.0342 262.839 68.5614 263.778 69.5C264.716 70.4385 265.243 71.7115 265.243 73.0388V265.704H189.855V73.0388C189.855 71.7115 190.383 70.4385 191.321 69.5C192.26 68.5614 193.533 68.0342 194.86 68.0342Z" fill="#F5F5F5"/>
<path d="M205.834 79.7139H196.113V101.35H205.834V79.7139Z" fill="#EBEBEB"/>
<path d="M258.986 79.7139H249.266V101.35H258.986V79.7139Z" fill="#EBEBEB"/>
<path d="M223.552 79.7139H213.831V101.35H223.552V79.7139Z" fill="#EBEBEB"/>
<path d="M241.268 79.7139H231.548V101.35H241.268V79.7139Z" fill="#EBEBEB"/>
<path d="M205.834 113.873H196.113V135.509H205.834V113.873Z" fill="#EBEBEB"/>
<path d="M258.986 113.873H249.266V135.509H258.986V113.873Z" fill="#EBEBEB"/>
<path d="M223.552 113.873H213.831V135.509H223.552V113.873Z" fill="#EBEBEB"/>
<path d="M241.268 113.873H231.548V135.509H241.268V113.873Z" fill="#EBEBEB"/>
<path d="M205.834 148.032H196.113V169.668H205.834V148.032Z" fill="#EBEBEB"/>
<path d="M258.986 148.032H249.266V169.668H258.986V148.032Z" fill="#EBEBEB"/>
<path d="M223.552 148.032H213.831V169.668H223.552V148.032Z" fill="#EBEBEB"/>
<path d="M241.268 148.032H231.548V169.668H241.268V148.032Z" fill="#EBEBEB"/>
<path d="M205.834 182.19H196.113V203.826H205.834V182.19Z" fill="#EBEBEB"/>
<path d="M258.986 182.19H249.266V203.826H258.986V182.19Z" fill="#EBEBEB"/>
<path d="M223.552 182.19H213.831V203.826H223.552V182.19Z" fill="#EBEBEB"/>
<path d="M241.268 182.19H231.548V203.826H241.268V182.19Z" fill="#EBEBEB"/>
<path d="M205.834 216.342H196.113V237.978H205.834V216.342Z" fill="#EBEBEB"/>
<path d="M258.986 216.342H249.266V237.978H258.986V216.342Z" fill="#EBEBEB"/>
<path d="M223.552 216.342H213.831V237.978H223.552V216.342Z" fill="#EBEBEB"/>
<path d="M241.268 216.342H231.548V237.978H241.268V216.342Z" fill="#EBEBEB"/>
<path d="M189.856 138.828H148.323V265.705H189.856V138.828Z" fill="#E6E6E6"/>
<path d="M283.599 152.414H265.251V265.705H283.599V152.414Z" fill="#E6E6E6"/>
<path d="M83.514 265.704H47.168V212.735L83.514 200.439V265.704Z" fill="#E6E6E6"/>
<path d="M319.717 46.9756C325.663 42.0165 337.761 32.3415 327.357 30.9593C317.363 29.6303 302.638 35.4779 297.937 40.6116C297.937 35.6981 295.62 31.0201 286.796 27.2382C273.217 21.4058 271.114 42.6013 271.828 46.4895C266.368 43.8695 249.129 44.3556 261.014 51.7447H321.342C321.342 51.7447 333.797 43.9607 319.717 46.9756Z" fill="#F5F5F5"/>
<path d="M47.5397 72.5075C47.4942 69.6825 47.1904 64.1539 52.1874 63.3944C56.987 62.635 60.2449 65.9689 59.6981 68.8927C62.0979 66.0904 65.333 63.4324 70.8464 61.2984C79.3444 57.9722 69.8896 70.047 67.6872 72.2645C71.2337 70.7457 78.1597 71.0418 69.6162 75.249H44.5552C44.5552 75.249 43.1807 70.7836 47.5397 72.5075Z" fill="#FAFAFA"/>
<path d="M152.697 38.9865H71.9707C71.9707 38.9865 76.6488 33.306 83.9544 35.0982C80.5142 30.7164 78.684 14.2901 90.1969 12.2396C96.052 11.1992 102.963 21.8463 103.107 27.4281C105.993 14.0698 113.967 -2.90328 126.209 0.422992C138.451 3.74926 128.965 27.99 128.965 27.99C128.965 27.99 140.729 10.8575 150.495 18.4593C156.312 23.0158 145.392 33.4047 145.392 33.4047C145.392 33.4047 158.765 33.306 152.697 38.9865Z" fill="#F5F5F5"/>
<path d="M189.856 300C271.177 300 337.1 296.151 337.1 291.403C337.1 286.655 271.177 282.807 189.856 282.807C108.535 282.807 42.6113 286.655 42.6113 291.403C42.6113 296.151 108.535 300 189.856 300Z" fill="#F5F5F5"/>
<path d="M150.51 233.224C146.264 233.315 142.222 235.067 139.251 238.102C136.281 241.138 134.617 245.217 134.617 249.464C134.617 253.711 136.281 257.79 139.251 260.825C142.222 263.861 146.264 265.612 150.51 265.704H153.76V233.224H150.51Z" fill="#263238"/>
<path d="M268.836 233.224C266.674 233.177 264.524 233.562 262.513 234.357C260.502 235.153 258.67 236.341 257.124 237.854C255.578 239.367 254.35 241.173 253.512 243.166C252.673 245.16 252.241 247.301 252.241 249.464C252.241 251.627 252.673 253.768 253.512 255.761C254.35 257.755 255.578 259.561 257.124 261.074C258.67 262.586 260.502 263.775 262.513 264.57C264.524 265.365 266.674 265.751 268.836 265.704H272.079V233.224H268.836Z" fill="#263238"/>
<path d="M215.221 265.697C224.188 265.697 231.457 258.427 231.457 249.46C231.457 240.493 224.188 233.224 215.221 233.224C206.254 233.224 198.984 240.493 198.984 249.46C198.984 258.427 206.254 265.697 215.221 265.697Z" fill="#263238"/>
<path d="M96.8878 265.697C105.855 265.697 113.124 258.427 113.124 249.46C113.124 240.493 105.855 233.224 96.8878 233.224C87.9207 233.224 80.6514 240.493 80.6514 249.46C80.6514 258.427 87.9207 265.697 96.8878 265.697Z" fill="#263238"/>
<path d="M232.855 163.38H171.243V241.661H232.855V163.38Z" fill="#FF592D"/>
<path opacity="0.2" d="M232.855 163.38H171.243V241.661H232.855V163.38Z" fill="black"/>
<path d="M295.047 182.846L294.469 183.339L296.921 186.218L297.499 185.725L295.047 182.846Z" fill="#FF592D"/>
<path d="M285.052 171.099L284.474 171.592L292.114 180.556L292.692 180.064L285.052 171.099Z" fill="#FF592D"/>
<path d="M232.854 241.654H309.374V207.685C309.375 205.162 308.476 202.722 306.837 200.804L283.03 172.827C280.506 169.864 277.368 167.485 273.835 165.854C270.301 164.223 266.455 163.379 262.563 163.38H232.854V241.654Z" fill="#FF592D"/>
<path d="M245.393 204.457V175.675C245.393 175.055 245.515 174.441 245.752 173.868C245.99 173.296 246.338 172.776 246.777 172.338C247.215 171.9 247.736 171.552 248.309 171.316C248.882 171.079 249.496 170.958 250.116 170.959H257.445C261.28 170.959 265.07 171.791 268.552 173.399C272.035 175.006 275.127 177.351 277.615 180.269L295.621 201.397C296.344 202.244 296.742 203.32 296.745 204.434C296.745 205.686 296.248 206.886 295.364 207.772C294.48 208.657 293.28 209.156 292.029 209.158H250.116C248.867 209.158 247.669 208.663 246.784 207.782C245.899 206.902 245.399 205.706 245.393 204.457Z" fill="white"/>
<path d="M309.375 232.404H299.927C299.417 232.404 298.915 232.27 298.472 232.017C298.028 231.763 297.659 231.398 297.401 230.957C297.142 230.517 297.003 230.016 296.997 229.505C296.992 228.995 297.119 228.491 297.368 228.045L298.963 225.19C299.215 224.731 299.586 224.348 300.036 224.081C300.486 223.814 300.999 223.673 301.522 223.671H309.375V232.404Z" fill="white"/>
<path d="M219.253 150.227H70.3379V241.653H219.253V150.227Z" fill="#FF592D"/>
<path opacity="0.6" d="M219.253 150.227H70.3379V241.653H219.253V150.227Z" fill="white"/>
<path opacity="0.5" d="M136.006 227.718H110.664V233.224H136.006V227.718Z" fill="#FF592D"/>
<path opacity="0.5" d="M77.2942 227.718H70.3379V233.224H77.2942V227.718Z" fill="#FF592D"/>
<path opacity="0.4" d="M121.781 150.227H70.3379V241.653H121.781V150.227Z" fill="#FF592D"/>
<path opacity="0.4" d="M93.4547 150.227H92.627V241.653H93.4547V150.227Z" fill="#FF592D"/>
<path d="M310.118 241.653H69.5941C68.9062 241.653 68.3486 242.211 68.3486 242.899V246.749C68.3486 247.437 68.9062 247.994 69.5941 247.994H310.118C310.806 247.994 311.364 247.437 311.364 246.749V242.899C311.364 242.211 310.806 241.653 310.118 241.653Z" fill="#263238"/>
<path d="M272.094 265.697C281.061 265.697 288.33 258.427 288.33 249.46C288.33 240.493 281.061 233.224 272.094 233.224C263.127 233.224 255.857 240.493 255.857 249.46C255.857 258.427 263.127 265.697 272.094 265.697Z" fill="#263238"/>
<path d="M272.094 259.91C277.865 259.91 282.544 255.232 282.544 249.46C282.544 243.689 277.865 239.011 272.094 239.011C266.323 239.011 261.645 243.689 261.645 249.46C261.645 255.232 266.323 259.91 272.094 259.91Z" fill="white"/>
<path d="M153.761 265.697C162.728 265.697 169.997 258.427 169.997 249.46C169.997 240.493 162.728 233.224 153.761 233.224C144.794 233.224 137.524 240.493 137.524 249.46C137.524 258.427 144.794 265.697 153.761 265.697Z" fill="#263238"/>
<path d="M153.761 259.91C159.532 259.91 164.211 255.232 164.211 249.46C164.211 243.689 159.532 239.011 153.761 239.011C147.99 239.011 143.312 243.689 143.312 249.46C143.312 255.232 147.99 259.91 153.761 259.91Z" fill="white"/>
<path d="M174.926 284.789L168.471 284.69L166.717 269.722L173.164 269.828L174.926 284.789Z" fill="#FF592D"/>
<path d="M168.304 283.946L175.336 284.053C175.461 284.052 175.581 284.097 175.673 284.18C175.766 284.263 175.824 284.377 175.838 284.501L176.453 290.257C176.464 290.403 176.445 290.549 176.397 290.687C176.349 290.825 176.272 290.952 176.172 291.058C176.072 291.165 175.95 291.249 175.816 291.306C175.681 291.363 175.536 291.391 175.389 291.389C172.861 291.305 169.208 291.1 166.018 291.054C162.289 290.994 162.654 291.146 158.28 291.054C155.637 291.017 155.242 288.321 156.351 288.1C161.515 287.075 162.031 287.022 166.694 284.402C167.181 284.111 167.737 283.954 168.304 283.946Z" fill="#263238"/>
<path d="M162.001 91.88C159.89 96.391 157.627 100.651 155.113 104.904C153.852 107.015 152.554 109.119 151.149 111.185C150.465 112.217 149.729 113.243 149 114.268C148.27 115.293 147.481 116.303 146.638 117.305L146.015 118.065C145.699 118.455 145.359 118.826 144.997 119.174C144.759 119.408 144.505 119.626 144.238 119.827C143.945 120.051 143.636 120.252 143.311 120.427C142.602 120.821 141.832 121.095 141.033 121.239C139.58 121.479 138.089 121.3 136.735 120.723C135.803 120.318 134.931 119.787 134.145 119.143C132.96 118.164 131.903 117.039 131.001 115.794C130.203 114.715 129.463 113.595 128.784 112.438C127.518 110.244 126.39 107.974 125.404 105.641C124.428 103.351 123.574 101.011 122.845 98.6313C122.666 98.0183 122.713 97.3612 122.979 96.7804C123.245 96.1996 123.71 95.7339 124.291 95.4683C124.872 95.2028 125.529 95.1553 126.142 95.3345C126.755 95.5137 127.283 95.9076 127.629 96.4441L127.675 96.5125C130.062 100.449 132.663 104.252 135.467 107.904C136.123 108.735 136.822 109.531 137.563 110.288C138.156 110.913 138.815 111.47 139.53 111.952C139.803 112.111 140.023 112.187 140.038 112.157C140.054 112.126 139.765 111.982 139.279 112.035C138.955 112.09 138.645 112.209 138.368 112.384C138.33 112.384 138.292 112.438 138.512 112.134L138.983 111.458C141.517 107.666 143.857 103.747 145.992 99.7172C148.21 95.6467 150.389 91.4243 152.462 87.3311V87.2551C153.08 85.9872 154.176 85.0165 155.509 84.5565C156.842 84.0965 158.303 84.1848 159.571 84.8022C160.839 85.4195 161.809 86.5152 162.269 87.8483C162.729 89.1813 162.641 90.6425 162.024 91.9104L162.001 91.88Z" fill="#FF592D"/>
<path d="M127.88 98.3277L126.149 91.1436L119.397 94.0521C119.397 94.0521 119.997 99.7554 124.713 100.462L127.88 98.3277Z" fill="#263238"/>
<path d="M127.523 96.5586C127.523 96.5586 129.718 99.3837 130.257 100.158C129.497 100.918 124.523 103.431 124.128 103.196C123.498 101.396 122.609 99.0191 122.609 99.0191L127.523 96.5586Z" fill="#263238"/>
<path d="M121.098 86.5717L118.615 88.9563C118.418 89.1503 118.278 89.3943 118.21 89.6619C118.142 89.9295 118.148 90.2107 118.228 90.4751L119.397 94.0216L126.148 91.113L123.376 86.8223C123.253 86.6438 123.092 86.4939 122.905 86.3828C122.719 86.2716 122.51 86.2018 122.294 86.1781C122.078 86.1543 121.86 86.1771 121.654 86.2451C121.447 86.313 121.258 86.4243 121.098 86.5717Z" fill="#263238"/>
<path d="M124.926 94.9635C124.69 93.5055 126.148 88.9337 127.371 88.2806C128.594 87.6275 127.895 90.7791 128.054 91.8423C128.495 94.7585 128.647 97.538 127.151 97.3861C125.655 97.2342 125.305 97.5 124.926 94.9635Z" fill="#263238"/>
<path opacity="0.2" d="M166.717 269.729L167.621 277.445L174.076 277.544L173.172 269.828L166.717 269.729Z" fill="black"/>
<path d="M156.783 83.2613C169.055 81.7425 180.933 83.3828 187.403 84.6359C188.055 84.7634 188.675 85.0194 189.227 85.389C189.779 85.7586 190.251 86.2343 190.617 86.7885C190.984 87.3427 191.236 87.9642 191.359 88.6168C191.483 89.2694 191.475 89.9401 191.337 90.5897C186.522 113.6 187.274 136.747 186.871 141.669L152.363 141.114C150.001 112.902 151.49 94.9336 152.401 87.6052C152.544 86.4967 153.052 85.4674 153.846 84.6805C154.64 83.8937 155.673 83.3942 156.783 83.2613Z" fill="#FF592D"/>
<path d="M178.579 66.9941C177.485 71.6342 176.24 80.1853 179.43 83.5723C176.772 85.9266 173.309 88.6149 167.697 88.3947C162.084 88.1744 163.208 84.4077 164.765 82.4864C170.081 81.6206 170.081 77.7172 169.322 73.996L178.579 66.9941Z" fill="#FFB573"/>
<path opacity="0.2" d="M174.797 69.8496L169.299 74.0264C169.494 74.8902 169.614 75.7694 169.656 76.654C171.676 76.5173 174.516 74.5201 174.812 72.4392C174.965 71.5823 174.96 70.7047 174.797 69.8496Z" fill="black"/>
<path d="M180.143 59.9547C179.33 66.2958 179.186 70.055 175.746 73.0851C170.582 77.6416 162.904 74.1407 161.795 67.6704C160.801 61.838 162.289 52.4819 168.699 50.3707C170.118 49.9126 171.63 49.8219 173.094 50.1071C174.557 50.3923 175.925 51.0441 177.068 52.0015C178.211 52.959 179.093 54.1907 179.631 55.5816C180.169 56.9726 180.345 58.4771 180.143 59.9547Z" fill="#FFB573"/>
<path d="M180.516 65.4605C178.01 66.9794 175.146 66.2199 174.911 64.6252C174.676 63.0304 176.536 60.2737 177.235 58.9295C177.037 56.6512 175.427 55.9829 175.716 54.373C173.84 54.5476 163.611 55.0109 163.854 52.7022C164.097 50.3936 168.152 48.0166 172.967 48.6165C177.782 49.2165 180.933 51.3125 180.478 54.2438C183.166 53.811 184.404 58.3599 180.516 65.4605Z" fill="#263238"/>
<path d="M182.756 66.4324C182.331 67.1069 181.777 67.6904 181.125 68.1492C180.473 68.608 179.737 68.9331 178.959 69.1056C176.878 69.5537 175.921 67.6627 176.612 65.7641C177.212 64.0478 179.019 61.7544 181.07 62.1569C181.516 62.2499 181.932 62.4523 182.281 62.7461C182.629 63.0399 182.899 63.4157 183.067 63.8397C183.234 64.2638 183.293 64.7227 183.239 65.1753C183.184 65.6279 183.018 66.0599 182.756 66.4324Z" fill="#FFB573"/>
<path d="M172.39 205.148C172.131 172.705 179.308 141.546 179.308 141.546L152.409 141.113C152.409 141.113 155.5 187.97 156.578 207.601C157.695 228.006 165.069 275.949 165.069 275.949L175.989 276.108C175.989 276.108 173.908 230.756 172.39 205.148Z" fill="#FF592D"/>
<path opacity="0.4" d="M172.39 205.148C172.131 172.705 179.308 141.546 179.308 141.546L152.409 141.113C152.409 141.113 155.5 187.97 156.578 207.601C157.695 228.006 165.069 275.949 165.069 275.949L175.989 276.108C175.989 276.108 173.908 230.756 172.39 205.148Z" fill="black"/>
<path opacity="0.2" d="M173.437 159.4C165.767 169.895 169.215 189.64 172.359 203.599C172.484 188.209 173.791 172.851 176.27 157.661L173.437 159.4Z" fill="black"/>
<path d="M163.61 271.696L164.317 276.146L176.391 276.352L177.075 272.144L163.61 271.696Z" fill="#263238"/>
<path d="M171.63 61.0175C171.63 61.5339 171.296 61.9364 170.954 61.906C170.612 61.8756 170.369 61.4427 170.407 60.9263C170.445 60.4099 170.741 60.0074 171.083 60.0302C171.425 60.053 171.691 60.4935 171.63 61.0175Z" fill="#263238"/>
<path d="M164.939 60.2655C164.939 60.7895 164.605 61.1844 164.264 61.1616C163.922 61.1388 163.679 60.6908 163.717 60.1744C163.755 59.658 164.051 59.2555 164.393 59.2783C164.734 59.301 164.977 59.7491 164.939 60.2655Z" fill="#263238"/>
<path d="M166.314 60.6826C165.593 62.2226 164.66 63.654 163.542 64.9354C163.88 65.2147 164.274 65.4177 164.697 65.5304C165.12 65.6432 165.563 65.663 165.995 65.5885L166.314 60.6826Z" fill="#ED893E"/>
<path d="M168.107 67.4269C168.691 67.3983 169.262 67.2485 169.785 66.987C170.308 66.7255 170.771 66.3581 171.144 65.9081C171.169 65.8758 171.179 65.8353 171.173 65.7954C171.168 65.7556 171.146 65.7196 171.114 65.6954C171.082 65.6712 171.041 65.6609 171.001 65.6666C170.962 65.6723 170.926 65.6936 170.901 65.7258C170.474 66.2093 169.938 66.5841 169.337 66.8192C168.736 67.0542 168.088 67.1428 167.446 67.0776C167.423 67.0724 167.399 67.0725 167.375 67.0779C167.352 67.0833 167.33 67.0939 167.312 67.1088C167.293 67.1238 167.278 67.1427 167.268 67.1643C167.257 67.1858 167.252 67.2094 167.252 67.2332C167.252 67.2571 167.257 67.2807 167.268 67.3022C167.278 67.3238 167.293 67.3427 167.312 67.3576C167.33 67.3726 167.352 67.3832 167.375 67.3886C167.399 67.394 167.423 67.3941 167.446 67.3889C167.665 67.4161 167.886 67.4288 168.107 67.4269Z" fill="#263238"/>
<path d="M172.724 59.278C172.775 59.2771 172.825 59.2613 172.868 59.2324C172.902 59.2102 172.931 59.1816 172.953 59.1481C172.976 59.1146 172.991 59.0769 172.999 59.0373C173.007 58.9977 173.007 58.957 172.998 58.9175C172.99 58.878 172.974 58.8405 172.952 58.8072C172.697 58.3918 172.346 58.0438 171.928 57.7927C171.51 57.5416 171.038 57.3946 170.552 57.3643C170.471 57.3643 170.394 57.3963 170.337 57.4532C170.28 57.5102 170.248 57.5875 170.248 57.668C170.248 57.7506 170.281 57.8298 170.339 57.8882C170.398 57.9466 170.477 57.9794 170.559 57.9794C170.943 58.0114 171.313 58.1332 171.64 58.3351C171.967 58.537 172.242 58.8132 172.443 59.1413C172.473 59.1874 172.515 59.2245 172.564 59.2486C172.614 59.2726 172.669 59.2828 172.724 59.278Z" fill="#263238"/>
<path d="M162.062 57.8582C162.111 57.8653 162.161 57.86 162.207 57.8427C162.254 57.8255 162.295 57.7968 162.328 57.7595C162.57 57.4619 162.879 57.2267 163.231 57.0734C163.582 56.9201 163.965 56.8533 164.348 56.8785C164.428 56.8872 164.509 56.8644 164.572 56.8148C164.636 56.7652 164.678 56.6927 164.69 56.6127C164.695 56.5728 164.692 56.5322 164.682 56.4933C164.671 56.4544 164.653 56.418 164.628 56.3862C164.603 56.3544 164.573 56.3279 164.538 56.3081C164.502 56.2883 164.464 56.2757 164.424 56.271C163.941 56.2353 163.458 56.3152 163.013 56.504C162.567 56.6929 162.174 56.9853 161.864 57.357C161.814 57.4186 161.789 57.4978 161.796 57.5774C161.803 57.657 161.841 57.7306 161.902 57.7823C161.945 57.825 162.002 57.8518 162.062 57.8582Z" fill="#263238"/>
<path d="M209.116 284.789L202.653 284.69L199.995 269.722L206.458 269.828L209.116 284.789Z" fill="#FF592D"/>
<path d="M202.303 283.946L209.335 284.053C209.461 284.053 209.582 284.099 209.676 284.181C209.771 284.263 209.833 284.377 209.851 284.501L210.664 290.257C210.683 290.401 210.67 290.546 210.627 290.684C210.584 290.822 210.512 290.949 210.415 291.057C210.319 291.164 210.2 291.25 210.067 291.307C209.934 291.364 209.791 291.392 209.646 291.389C207.11 291.305 206.313 291.1 203.123 291.055C199.387 290.994 201.118 291.146 196.736 291.055C194.093 291.017 193.577 288.336 194.701 288.1C198.255 287.341 199.144 285.921 200.708 284.402C201.16 284.048 201.732 283.885 202.303 283.946Z" fill="#263238"/>
<path d="M203.648 284.622C202.531 284.66 201.931 284.622 201.643 284.113C201.354 283.604 200.344 282.123 200.42 281.569C200.496 281.015 205.03 280.559 205.478 281.455C205.926 282.351 205.926 284.561 203.648 284.622Z" fill="#263238"/>
<path d="M168.061 284.622C167.362 284.66 166.99 284.622 166.823 284.113C166.476 283.3 166.236 282.445 166.109 281.569C166.163 281.007 169.01 280.559 169.276 281.455C169.542 282.352 169.481 284.561 168.061 284.622Z" fill="#263238"/>
<path opacity="0.2" d="M199.995 269.729L201.37 277.445L207.832 277.544L206.458 269.828L199.995 269.729Z" fill="black"/>
<path d="M198.066 201.313C195.028 172.091 191.459 148.154 186.887 141.668L164.036 141.304C164.036 141.304 177.364 187.142 182.498 206.462C187.814 226.549 198.301 274.005 198.301 274.005L208.705 274.15C208.705 274.15 204.399 224.142 198.066 201.313Z" fill="#FF592D"/>
<path opacity="0.4" d="M198.066 201.313C195.028 172.091 191.459 148.154 186.887 141.668L164.036 141.304C164.036 141.304 177.364 187.142 182.498 206.462C187.814 226.549 198.301 274.005 198.301 274.005L208.705 274.15C208.705 274.15 204.399 224.142 198.066 201.313Z" fill="black"/>
<path d="M196.995 271.696L197.838 276.146L209.518 276.352L210.034 272.144L196.995 271.696Z" fill="#263238"/>
<path d="M171.759 93.0878C171.691 91.4626 169.822 89.2907 168.607 88.4021C177.607 85.9188 179.292 82.6533 179.292 82.6533C179.939 82.8215 180.56 83.077 181.138 83.4127C181.669 88.4553 175.427 91.9259 171.759 93.0878Z" fill="white"/>
<path d="M166.451 88.2731C164.433 89.2123 162.776 90.7858 161.735 92.7537C157.991 86.0708 163.254 82.2129 163.254 82.2129C163.837 82.0484 164.447 82.007 165.046 82.0914C164.036 84.3241 165.198 87.263 166.451 88.2731Z" fill="white"/>
<path d="M219.876 95.9974L162.71 104.837L169.116 146.265L226.282 137.425L219.876 95.9974Z" fill="#FF592D"/>
<path opacity="0.9" d="M219.876 95.9974L162.71 104.837L169.116 146.265L226.282 137.425L219.876 95.9974Z" fill="white"/>
<path opacity="0.2" d="M219.881 95.9932L190.078 100.602L196.484 142.029L226.287 137.421L219.881 95.9932Z" fill="#FF592D"/>
<path opacity="0.3" d="M178.212 133.186L171.037 134.296L172.119 141.291L179.294 140.181L178.212 133.186Z" fill="#FF592D"/>
<path opacity="0.3" d="M176.871 124.509L169.696 125.618L170.778 132.613L177.953 131.503L176.871 124.509Z" fill="#FF592D"/>
<path opacity="0.5" d="M181.136 101.99L171.02 103.555L171.559 107.045L181.676 105.48L181.136 101.99Z" fill="#FF592D"/>
<path opacity="0.5" d="M212.779 97.0895L205.672 98.1885L206.212 101.678L213.319 100.579L212.779 97.0895Z" fill="#FF592D"/>
<path d="M189.271 85.4175C193.653 87.5109 197.879 89.9169 201.916 92.6169C204.035 94.0055 206.064 95.5274 207.991 97.1734C209.047 98.0866 210.041 99.0684 210.968 100.112C211.499 100.728 211.988 101.377 212.434 102.056C213.008 102.919 213.461 103.857 213.778 104.844C213.995 105.512 214.123 106.207 214.158 106.909C214.168 107.03 214.168 107.152 214.158 107.274V107.532V108.056L214.12 109.104L214.028 110.084C213.968 110.737 213.899 111.39 213.793 112.005C213.687 112.62 213.618 113.258 213.497 113.858C213.094 116.311 212.502 118.642 211.91 120.966C210.675 125.57 209.153 130.093 207.353 134.507C207.112 135.103 206.663 135.591 206.089 135.88C205.515 136.169 204.856 136.24 204.233 136.079C203.611 135.919 203.068 135.537 202.706 135.006C202.344 134.475 202.187 133.831 202.265 133.193V133.132C202.804 128.576 203.465 123.973 203.943 119.462C204.209 117.184 204.414 114.959 204.551 112.78C204.596 112.233 204.596 111.709 204.627 111.17C204.657 110.63 204.627 110.114 204.627 109.605V108.846V108.147V107.798V107.623C204.627 107.623 204.627 107.448 204.627 107.547C204.621 107.669 204.621 107.79 204.627 107.912C204.627 107.995 204.543 107.828 204.361 107.623C204.126 107.353 203.872 107.099 203.602 106.864C202.934 106.212 202.226 105.604 201.483 105.041C199.873 103.818 198.065 102.618 196.205 101.472C192.476 99.1935 188.466 97.0063 184.555 94.9331H184.502C183.288 94.2744 182.377 93.1688 181.964 91.8505C181.551 90.5322 181.667 89.1049 182.288 87.8708C182.909 86.6367 183.986 85.6928 185.291 85.2391C186.596 84.7855 188.026 84.8576 189.279 85.4403L189.271 85.4175Z" fill="#FF592D"/>
<path d="M202.819 131.978L198.946 137.233L206.297 139.921C206.297 139.921 209.229 134.734 206.723 132.737L202.819 131.978Z" fill="#263238"/>
<path d="M199.919 143.947L202.653 144.456C203.179 144.549 203.722 144.454 204.186 144.187C204.65 143.921 205.005 143.5 205.189 142.997L206.298 139.96L198.97 137.233L198.134 141.266C198.016 141.858 198.137 142.473 198.472 142.976C198.806 143.478 199.327 143.828 199.919 143.947Z" fill="#263238"/>
<path d="M202.182 133.436C202.182 133.436 202.318 129.859 202.409 128.925C203.48 128.856 208.903 130.109 209.039 130.55C208.371 132.342 207.52 134.727 207.52 134.727L202.182 133.436Z" fill="#263238"/>
<path d="M183.637 58.8378C179.969 58.4277 164.902 54.7597 163.504 53.3092C163.406 50.5069 165.023 47.6743 166.018 47.0364C168.79 45.2138 174.888 45.1454 176.825 45.6922C178.761 46.239 184.062 48.9349 184.943 51.5322C185.626 53.5902 183.637 58.8378 183.637 58.8378Z" fill="#FF592D"/>
<path d="M168.426 52.4357C163.801 51.7143 159.404 52.0332 157.847 54.3723C156.108 56.9847 161.834 53.104 165.251 54.7748C170.97 57.5846 169.61 58.0251 178.275 57.8125C173.817 55.5494 173.787 53.2711 168.426 52.4357Z" fill="#FF592D"/>
<path opacity="0.6" d="M168.426 52.4357C163.801 51.7143 159.404 52.0332 157.847 54.3723C156.108 56.9847 161.834 53.104 165.251 54.7748C170.97 57.5846 169.61 58.0251 178.275 57.8125C173.817 55.5494 173.787 53.2711 168.426 52.4357Z" fill="white"/>
<path d="M178.739 63.3109C178.83 63.2453 178.892 63.1468 178.912 63.0363C178.932 62.9257 178.908 62.8118 178.845 62.7186C178.78 62.6271 178.68 62.5653 178.569 62.5468C178.458 62.5283 178.344 62.5546 178.253 62.6199C176.667 63.7143 175.19 64.9578 173.841 66.3334C172.185 64.6095 167.53 62.7945 165.092 62.8325C163.353 62.8325 162.199 62.749 160.9 64.0324C159.791 65.1184 160.71 70.8672 161.409 72.4924C161.812 73.3839 162.411 74.1727 163.162 74.8C163.913 75.4273 164.796 75.8767 165.745 76.1148C168.312 76.578 173.795 76.8742 174.023 73.1227C174.071 72.2805 174.18 71.4429 174.349 70.6166C174.713 70.6789 175.081 70.7119 175.45 70.7153C176.561 70.7394 177.647 70.389 178.534 69.7205C178.578 69.6869 178.615 69.6449 178.643 69.5968C178.671 69.5486 178.689 69.4954 178.696 69.4403C178.703 69.3851 178.699 69.3291 178.685 69.2754C178.67 69.2218 178.644 69.1718 178.61 69.1281C178.575 69.0835 178.533 69.0461 178.484 69.0181C178.435 68.99 178.381 68.972 178.326 68.9649C178.27 68.9579 178.213 68.9619 178.159 68.9769C178.105 68.9919 178.054 69.0175 178.01 69.0522C177.511 69.4057 176.945 69.6552 176.348 69.7856C175.75 69.9161 175.133 69.9249 174.532 69.8116C174.775 68.7028 174.896 67.989 174.357 67.0625C175.689 65.6688 177.157 64.412 178.739 63.3109Z" fill="#FF592D"/>
<path opacity="0.6" d="M178.739 63.3109C178.83 63.2453 178.892 63.1468 178.912 63.0363C178.932 62.9257 178.908 62.8118 178.845 62.7186C178.78 62.6271 178.68 62.5653 178.569 62.5468C178.458 62.5283 178.344 62.5546 178.253 62.6199C176.667 63.7143 175.19 64.9578 173.841 66.3334C172.185 64.6095 167.53 62.7945 165.092 62.8325C163.353 62.8325 162.199 62.749 160.9 64.0324C159.791 65.1184 160.71 70.8672 161.409 72.4924C161.812 73.3839 162.411 74.1727 163.162 74.8C163.913 75.4273 164.796 75.8767 165.745 76.1148C168.312 76.578 173.795 76.8742 174.023 73.1227C174.071 72.2805 174.18 71.4429 174.349 70.6166C174.713 70.6789 175.081 70.7119 175.45 70.7153C176.561 70.7394 177.647 70.389 178.534 69.7205C178.578 69.6869 178.615 69.6449 178.643 69.5968C178.671 69.5486 178.689 69.4954 178.696 69.4403C178.703 69.3851 178.699 69.3291 178.685 69.2754C178.67 69.2218 178.644 69.1718 178.61 69.1281C178.575 69.0835 178.533 69.0461 178.484 69.0181C178.435 68.99 178.381 68.972 178.326 68.9649C178.27 68.9579 178.213 68.9619 178.159 68.9769C178.105 68.9919 178.054 69.0175 178.01 69.0522C177.511 69.4057 176.945 69.6552 176.348 69.7856C175.75 69.9161 175.133 69.9249 174.532 69.8116C174.775 68.7028 174.896 67.989 174.357 67.0625C175.689 65.6688 177.157 64.412 178.739 63.3109Z" fill="white"/>
</svg>
