<svg width="448" height="292" viewBox="0 0 448 292" fill="none" xmlns="http://www.w3.org/2000/svg">
<path d="M223.973 292.002C319.668 292.002 397.244 288.034 397.244 283.14C397.244 278.246 319.668 274.278 223.973 274.278C128.278 274.278 50.7021 278.246 50.7021 283.14C50.7021 288.034 128.278 292.002 223.973 292.002Z" fill="#F5F5F5"/>
<path d="M447.494 256.305H0.666016V256.5H447.494V256.305Z" fill="#E0E0E0"/>
<path d="M98.4497 265.69H46.8232V265.887H98.4497V265.69Z" fill="#E0E0E0"/>
<path d="M211.265 261.439H187.744V261.635H211.265V261.439Z" fill="#E0E0E0"/>
<path d="M265.688 261.338H219.861V261.534H265.688V261.338Z" fill="#E0E0E0"/>
<path d="M352.918 263.688H341.756V263.883H352.918V263.688Z" fill="#E0E0E0"/>
<path d="M303.213 263.688H258.691V263.883H303.213V263.688Z" fill="#E0E0E0"/>
<path d="M115.948 265.69H107.101V265.887H115.948V265.69Z" fill="#E0E0E0"/>
<path d="M398.86 263.688H360.21V263.883H398.86V263.688Z" fill="#E0E0E0"/>
<path d="M212.462 0H39.879C38.7927 0.000877322 37.7349 0.30489 36.8592 0.867945C35.9834 1.431 35.3352 2.22382 35.0086 3.13139C34.8614 3.53912 34.786 3.96413 34.7852 4.39177V216.919C34.7852 218.103 35.3215 219.239 36.2766 220.077C37.2316 220.915 38.5272 221.387 39.879 221.389H212.462C213.815 221.389 215.113 220.918 216.07 220.08C217.027 219.242 217.564 218.105 217.564 216.919V4.47006C217.564 3.28452 217.027 2.14755 216.07 1.30925C215.113 0.470951 213.815 0 212.462 0ZM217.341 216.919C217.339 218.052 216.824 219.138 215.909 219.939C214.995 220.74 213.755 221.191 212.462 221.193H39.879C38.5865 221.191 37.3477 220.74 36.4345 219.939C35.5214 219.137 35.0086 218.051 35.0086 216.919V4.43091C35.0086 3.29864 35.5214 2.21263 36.4345 1.41126C37.3477 0.609889 38.5865 0.158641 39.879 0.156567H212.462C213.754 0.160692 214.993 0.612348 215.907 1.41305C216.821 2.21375 217.336 3.29856 217.341 4.43091V216.919Z" fill="#E0E0E0"/>
<path d="M405.769 0H233.204C231.859 0.00199492 230.57 0.468228 229.614 1.29764C228.659 2.12706 228.116 3.25282 228.102 4.43091V216.919C228.102 218.105 228.639 219.242 229.596 220.08C230.553 220.918 231.851 221.389 233.204 221.389H405.769C407.119 221.385 408.413 220.912 409.366 220.074C410.319 219.237 410.854 218.102 410.854 216.919V4.43091C410.842 3.25488 410.302 2.13029 409.35 1.30088C408.398 0.471469 407.112 0.00407432 405.769 0ZM410.648 216.919C410.646 218.052 410.131 219.138 409.217 219.939C408.302 220.74 407.062 221.191 405.769 221.193H233.204C231.91 221.193 230.669 220.743 229.754 219.942C228.839 219.14 228.325 218.053 228.325 216.919V4.43091C228.327 3.29792 228.842 2.21193 229.757 1.41078C230.671 0.609635 231.911 0.158636 233.204 0.156567H405.769C407.062 0.160692 408.3 0.612348 409.214 1.41305C410.128 2.21375 410.644 3.29856 410.648 4.43091V216.919Z" fill="#E0E0E0"/>
<path d="M332.238 38.4604H426.832C426.832 38.4604 421.121 29.3951 409.343 32.1977C409.343 32.1977 410.773 17.0497 401.488 14.6229C392.203 12.1961 387.189 21.5667 387.189 21.5667C387.189 21.5667 380.764 4.05453 368.628 6.24649C356.492 8.43845 351.497 26.6004 351.497 26.6004C351.497 26.6004 333.668 20.9483 332.238 38.4604Z" fill="#F5F5F5"/>
<path d="M195.474 68.1074H290.103C290.103 68.1074 284.384 59.0343 272.605 61.8447C272.605 61.8447 274.035 46.6968 264.75 44.2622C255.465 41.8276 250.451 51.2138 250.451 51.2138C250.451 51.2138 244.026 33.7017 231.89 35.8858C219.754 38.0699 214.75 56.2396 214.75 56.2396C214.75 56.2396 196.903 50.5953 195.474 68.1074Z" fill="#F5F5F5"/>
<path d="M193.758 12.2441H35.1074V256.305H193.758V12.2441Z" fill="#F5F5F5"/>
<path d="M167.324 90.1846H66.752V256.5H167.324V90.1846Z" fill="#FAFAFA"/>
<path d="M160.97 95.4678H73.999V256.5H160.97V95.4678Z" fill="#E6E6E6"/>
<path d="M199.505 14.0205H35.0723V3.17038C35.4862 2.22651 36.2242 1.41839 37.1846 0.857527C38.145 0.296661 39.2804 0.0106793 40.4342 0.0390309H193.884L193.955 0.195599L197.986 10.2707L199.505 14.0205Z" fill="#EBEBEB"/>
<path d="M43.043 20.5732C47.5886 20.5732 51.2736 17.6397 51.2736 14.021C51.2736 10.4023 47.5886 7.46875 43.043 7.46875C38.4974 7.46875 34.8125 10.4023 34.8125 14.021C34.8125 17.6397 38.4974 20.5732 43.043 20.5732Z" fill="#EBEBEB"/>
<path d="M59.5128 20.5732C64.0584 20.5732 67.7434 17.6397 67.7434 14.021C67.7434 10.4023 64.0584 7.46875 59.5128 7.46875C54.9672 7.46875 51.2822 10.4023 51.2822 14.021C51.2822 17.6397 54.9672 20.5732 59.5128 20.5732Z" fill="#EBEBEB"/>
<path d="M75.9825 20.5732C80.5282 20.5732 84.2131 17.6397 84.2131 14.021C84.2131 10.4023 80.5282 7.46875 75.9825 7.46875C71.4369 7.46875 67.752 10.4023 67.752 14.021C67.752 17.6397 71.4369 20.5732 75.9825 20.5732Z" fill="#EBEBEB"/>
<path d="M92.4532 20.5732C96.9988 20.5732 100.684 17.6397 100.684 14.021C100.684 10.4023 96.9988 7.46875 92.4532 7.46875C87.9076 7.46875 84.2227 10.4023 84.2227 14.021C84.2227 17.6397 87.9076 20.5732 92.4532 20.5732Z" fill="#EBEBEB"/>
<path d="M108.924 20.5732C113.47 20.5732 117.155 17.6397 117.155 14.021C117.155 10.4023 113.47 7.46875 108.924 7.46875C104.378 7.46875 100.693 10.4023 100.693 14.021C100.693 17.6397 104.378 20.5732 108.924 20.5732Z" fill="#EBEBEB"/>
<path d="M125.394 20.5732C129.939 20.5732 133.624 17.6397 133.624 14.021C133.624 10.4023 129.939 7.46875 125.394 7.46875C120.848 7.46875 117.163 10.4023 117.163 14.021C117.163 17.6397 120.848 20.5732 125.394 20.5732Z" fill="#EBEBEB"/>
<path d="M141.855 20.5732C146.4 20.5732 150.085 17.6397 150.085 14.021C150.085 10.4023 146.4 7.46875 141.855 7.46875C137.309 7.46875 133.624 10.4023 133.624 14.021C133.624 17.6397 137.309 20.5732 141.855 20.5732Z" fill="#EBEBEB"/>
<path d="M158.324 20.5732C162.87 20.5732 166.555 17.6397 166.555 14.021C166.555 10.4023 162.87 7.46875 158.324 7.46875C153.779 7.46875 150.094 10.4023 150.094 14.021C150.094 17.6397 153.779 20.5732 158.324 20.5732Z" fill="#EBEBEB"/>
<path d="M174.795 20.5732C179.341 20.5732 183.026 17.6397 183.026 14.021C183.026 10.4023 179.341 7.46875 174.795 7.46875C170.249 7.46875 166.564 10.4023 166.564 14.021C166.564 17.6397 170.249 20.5732 174.795 20.5732Z" fill="#EBEBEB"/>
<path d="M199.505 14.0206C199.505 17.6372 195.814 20.5728 191.265 20.5728C186.716 20.5728 183.025 17.6372 183.025 14.0206C183.025 10.4041 186.716 7.46852 191.265 7.46852C192.551 7.45258 193.824 7.69309 194.989 8.17183C196.153 8.65057 197.178 9.355 197.985 10.2318L199.505 14.0206Z" fill="#EBEBEB"/>
<path d="M193.758 33.4277H35.1074V35.7134H193.758V33.4277Z" fill="#FAFAFA"/>
<path d="M316.824 204.574H193.768V209.419H316.824V204.574Z" fill="#E0E0E0"/>
<path d="M219.648 256.297H201.068V180.76L210.353 173.809L219.648 180.76V256.297Z" fill="#E6E6E6"/>
<path d="M246.261 256.297H227.682V180.76L236.976 173.809L246.261 180.76V256.297Z" fill="#E6E6E6"/>
<path d="M272.882 256.297H254.303V180.76L263.588 173.809L272.882 180.76V256.297Z" fill="#E6E6E6"/>
<path d="M299.495 256.297H280.916V180.76L290.21 173.809L299.495 180.76V256.297Z" fill="#E6E6E6"/>
<path d="M326.108 256.297H307.538V180.76L316.823 173.809L326.108 180.76V256.297Z" fill="#E6E6E6"/>
<path d="M134.133 27.4146C134.133 27.4146 132.408 23.7195 121.782 24.8155C111.157 25.9115 110.058 38.2336 104.749 46.9937C99.4409 55.7538 93.8019 60.0047 93.8019 60.0047C93.8019 60.0047 93.0245 65.3437 104.588 68.3577C116.152 71.3717 138.815 66.3379 138.815 66.3379C138.815 66.3379 141.747 43.0168 137.394 35.9007C133.042 28.7845 134.133 27.4146 134.133 27.4146Z" fill="#263238"/>
<path d="M165.196 260.367L150.799 261.15C150.799 261.15 144.696 212.551 137.975 177.166C137.975 177.049 137.975 176.915 137.913 176.782C135.16 162.339 132.31 150.166 129.736 144.459C129.736 144.459 126.429 189.762 125.446 209.873C124.463 229.985 119.879 265.174 119.879 265.174L106.572 266.904C106.572 266.904 104.374 196.855 105.679 183.624C106.983 170.394 101.041 121.388 111.282 109.254H148.324C148.324 109.254 162.667 178.098 163.704 197.183C164.74 216.269 165.196 260.367 165.196 260.367Z" fill="#263238"/>
<path d="M116.751 265.33L116.537 269.088L116.036 277.786L108.583 278.756L108.413 269.37L108.351 265.761L116.751 265.33Z" fill="#FF8B7B"/>
<path d="M161.996 274.857L153.659 276.892C153.659 276.892 153.462 272.5 153.265 268.281C153.14 265.564 153.015 262.918 152.935 261.564C152.935 261.039 152.881 260.719 152.863 260.648L161.853 259.865V262.339L161.916 267.929L161.996 274.857Z" fill="#FF8B7B"/>
<path d="M119.039 275.86C119.039 275.86 120.424 270.999 122.614 271.241C124.803 271.484 119.039 275.86 119.039 275.86Z" stroke="#FF592D" stroke-miterlimit="10"/>
<path d="M119.664 275.86C119.664 275.86 124.874 272.642 125.839 274.294C126.804 275.946 119.664 275.86 119.664 275.86Z" stroke="#FF592D" stroke-miterlimit="10"/>
<path d="M165.196 276.353C165.196 276.353 166.358 271.21 167.672 271.21C168.985 271.21 165.196 276.353 165.196 276.353Z" stroke="#FF592D" stroke-miterlimit="10"/>
<path d="M164.919 277.95C164.919 277.95 167.975 272.681 169.575 273.816C171.175 274.952 164.919 277.95 164.919 277.95Z" stroke="#FF592D" stroke-miterlimit="10"/>
<path d="M125.545 282.17C125.545 282.17 109.655 282.53 108.503 282.405C107.35 282.279 106.072 282.225 105.982 281.129C105.982 280.596 106.528 277.363 106.617 276.236C106.706 275.108 106.385 274.521 108.002 274.161C109.62 273.801 117.475 273.003 118.422 273.856C119.369 274.709 122.604 277.958 124.999 278.334C127.394 278.71 129.405 278.561 129.575 279.751C129.745 280.941 129.798 282.084 125.545 282.17Z" fill="#263238"/>
<path d="M171.291 282.17C171.291 282.17 155.411 282.53 154.249 282.405C153.087 282.279 151.944 281.974 151.756 281.465C151.568 280.956 152.283 277.363 152.364 276.236C152.444 275.108 152.131 274.521 153.749 274.161C155.366 273.801 163.221 273.003 164.169 273.856C165.116 274.709 168.351 277.958 170.755 278.334C173.159 278.71 175.152 278.561 175.322 279.751C175.491 280.941 175.545 282.084 171.291 282.17Z" fill="#263238"/>
<path opacity="0.3" d="M137.913 176.774C135.161 162.33 132.31 150.157 129.736 144.45L131.443 136.246C131.443 136.246 135.867 165.524 137.913 176.774Z" fill="black"/>
<path opacity="0.2" d="M116.733 265.33L116.519 269.088C114.428 269.158 110.263 269.291 108.396 269.37L108.333 265.761L116.733 265.33Z" fill="black"/>
<path opacity="0.2" d="M161.935 267.922L153.266 268.282C153.141 265.566 153.016 262.92 152.936 261.565L161.872 262.348L161.935 267.922Z" fill="black"/>
<path d="M167.653 259.859L166.322 265.817L150.45 266.897L148.368 259.859H167.653Z" fill="#FF592D"/>
<path d="M122.015 261.8L120.621 267.687L104.053 268.376L104.062 261.8H122.015Z" fill="#FF592D"/>
<path d="M171.157 91.0689C167.582 92.5641 157.752 94.2002 157.752 94.2002C157.752 94.2002 151.318 79.6315 149.62 71.3489C149.087 68.388 147.472 65.6582 145.018 63.5691C142.564 61.4801 139.403 60.1445 136.009 59.7628C131.666 59.2696 113.328 59.434 106.894 60.5926C100.46 61.7512 99.3425 70.0259 98.7706 74.997C98.1986 79.9681 94.6151 98.4824 97.6356 103.962C100.656 109.442 111.246 107.266 111.246 107.266V109.254H148.297L147.403 94.0672C147.403 94.0672 150.906 102.13 156.34 102.459C161.773 102.788 174.106 94.85 174.106 94.85L171.157 91.0689ZM105.92 99.5628C105.92 99.5628 106.331 90.106 107.064 87.3816L108.181 92.431L109.754 99.5628H105.92Z" fill="#FF592D"/>
<path d="M129.486 97.4175L135.312 91.2406L143.489 90.1445L144.74 96.5093L138.485 98.5135C138.485 98.5135 135.473 101.692 129.459 101.144L129.486 97.4175Z" fill="#FF8B7B"/>
<path d="M171.156 91.068L174.186 86.1988L181.576 83.4746L184.373 90.1051L178.252 92.1953C178.252 92.1953 176.652 95.2796 174.186 94.8804L171.156 91.068Z" fill="#FF8B7B"/>
<path d="M129.611 53.8282C129.571 54.3913 129.571 54.9561 129.611 55.5192C129.7 56.5917 129.468 58.5566 131.872 59.59C130.63 61.9385 127.636 67.8255 125.822 69.8218C123.06 67.8412 116.572 59.8483 116.572 59.8483C116.572 59.8483 121.13 55.5192 117.859 47.3619C117.859 47.3619 113.266 44.4184 114.186 42.7979C115.241 40.9112 118.235 41.9289 118.869 42.7274C118.199 41.8663 115.08 32.4173 118.869 28.9415C121.228 26.773 123.588 26.7495 127.984 26.593H128.351C131.166 26.5068 133.257 26.593 133.257 26.593C134.213 27.4948 135.054 28.4843 135.768 29.5443C137.762 32.3958 138.985 35.6092 139.343 38.9385C140.174 46.6965 138.431 52.9827 129.611 53.8282Z" fill="#FF8B7B"/>
<path d="M132.041 44.1842C132.041 44.1842 128.038 45.3737 126.581 42.7129" stroke="#263238" stroke-width="0.5" stroke-linecap="round" stroke-linejoin="round"/>
<path d="M127.206 32.9896C126.537 32.9724 125.875 33.1203 125.297 33.4165C124.718 33.7127 124.247 34.1453 123.936 34.665" stroke="#263238" stroke-linecap="round" stroke-linejoin="round"/>
<path d="M137.395 32.1831C137.07 31.872 136.677 31.6214 136.24 31.4465C135.802 31.2716 135.329 31.1758 134.848 31.165" stroke="#263238" stroke-linecap="round" stroke-linejoin="round"/>
<path d="M133.712 42.7429L132.926 36.8799L136.867 41.3104C136.867 41.3104 136.483 42.8368 133.712 42.7429Z" fill="#FF5652"/>
<path d="M127.242 36.9267C127.287 37.5217 127.689 37.9836 128.136 37.9601C128.583 37.9366 128.896 37.4277 128.842 36.8249C128.788 36.2221 128.404 35.7681 127.948 35.7994C127.493 35.8307 127.189 36.3552 127.242 36.9267Z" fill="#263238"/>
<path d="M135.036 35.9488C135.089 36.5515 135.482 37.0132 135.929 36.9819C136.376 36.9506 136.689 36.4497 136.635 35.8471C136.582 35.2445 136.188 34.7905 135.742 34.8218C135.295 34.8531 134.991 35.354 135.036 35.9488Z" fill="#263238"/>
<path d="M116.153 38.3911C116.153 38.3911 111.586 33.0285 115.357 29.5526C117.717 27.3841 124.062 25.9671 128.449 25.8027C128.351 26.7109 128.449 34.6647 116.153 38.3911Z" fill="#263238"/>
<path d="M135.839 29.5679C133.034 29.3196 130.401 28.2655 128.35 26.5699L128.002 26.249C129.762 26.1852 131.525 26.2955 133.257 26.5777C134.212 27.4795 135.054 28.4689 135.768 29.5287L135.839 29.5679Z" fill="#263238"/>
<path opacity="0.2" d="M129.637 55.519C127.695 55.0018 125.972 53.9912 124.687 52.6152C126.226 53.288 127.897 53.6997 129.611 53.8284C129.579 54.3919 129.588 54.9565 129.637 55.519Z" fill="black"/>
<path opacity="0.2" d="M108.189 92.4307L107.072 87.3812V80.1318C107.072 80.1318 108.359 87.7804 108.189 92.4307Z" fill="black"/>
<path d="M272.425 68.9806L207.283 72.2109L210.121 116.129L275.263 112.898L272.425 68.9806Z" fill="#FF592D"/>
<path opacity="0.3" d="M272.425 68.9806L207.283 72.2109L210.121 116.129L275.263 112.898L272.425 68.9806Z" fill="black"/>
<path d="M248.749 70.1573L183.607 73.3877L186.445 117.306L251.587 114.076L248.749 70.1573Z" fill="#FF592D"/>
<path opacity="0.3" d="M248.749 70.1573L183.607 73.3877L186.445 117.306L251.587 114.076L248.749 70.1573Z" fill="white"/>
<path opacity="0.3" d="M256.808 73.9537L242.902 74.6846L243.184 78.7945L257.089 78.0637L256.808 73.9537Z" fill="black"/>
<path opacity="0.5" d="M201.558 77.9942L187.675 78.6826L188.104 85.3262L201.987 84.6377L201.558 77.9942Z" fill="white"/>
<path opacity="0.3" d="M206.406 95.3194L185.1 96.376L185.434 101.558L206.741 100.501L206.406 95.3194Z" fill="black"/>
<path d="M291.247 32.7793L287.672 36.7716C288.662 37.3772 289.801 37.7713 290.996 37.9224L291.247 32.7793Z" fill="#A02724"/>
<path d="M352.944 277.639L342.56 277.122L340.451 269.364L339.298 265.114L338.869 263.548L346.858 263.07L347.43 263.031L349.128 267.533L352.944 277.639Z" fill="#B55B52"/>
<path d="M293.23 278.915C293.426 279.533 283.587 278.429 283.587 278.429L283.239 271.188L282.971 265.598V265.293H283.051L293.042 266.162C293.042 266.162 293.042 268.511 293.042 271.18C293.06 274.609 293.114 278.578 293.23 278.915Z" fill="#B55B52"/>
<path d="M314.07 53.7752C314.07 53.7752 300.039 57.1024 301.076 54.6912C301.598 53.2318 301.808 51.7002 301.693 50.1741C301.693 49.172 301.55 48.4596 301.55 48.4596C296.474 48.718 293.06 45.5005 291.541 41.5392C289.584 36.4585 290.299 30.7828 292.676 25.9604C292.863 25.5689 293.4 23.9093 293.873 23.7057L299.378 21.4824C299.378 21.4824 304.74 24.559 307.528 26.4692C310.316 28.3794 312.56 37.257 312.56 44.1618C312.56 51.0666 314.07 53.7752 314.07 53.7752Z" fill="#B55B52"/>
<path d="M290.826 31.3164C290.578 31.3758 290.358 31.5025 290.198 31.6783C290.037 31.8542 289.944 32.0701 289.933 32.2951C289.896 32.504 289.933 32.7178 290.038 32.908C290.144 33.0982 290.313 33.2558 290.523 33.3599L290.826 31.3164Z" fill="#263238"/>
<path d="M290.826 27.3395C291.41 27.3281 291.985 27.4664 292.479 27.7373" stroke="#263238" stroke-linecap="round" stroke-linejoin="round"/>
<path d="M295.705 40.0449C295.705 40.0449 299.78 45.6189 306.268 46.8949C312.756 48.171 314.802 46.1982 315.669 42.9806C316.42 39.9469 318.083 37.1441 320.486 34.8624C322.729 32.8348 321.38 27.3312 318.529 22.8063C318.529 22.8063 321.585 20.5595 316.661 18.3988C311.737 16.2381 309.923 19.8314 305.651 17.7334C301.38 15.6353 307.081 14.9385 303.051 21.4833C299.021 28.028 296.795 23.2682 296.197 26.1804C295.598 29.0927 292.479 34.15 295.705 40.0449Z" fill="#263238"/>
<path d="M296.197 27.5347C295.795 27.4172 282.872 23.3231 282.747 21.4678C282.622 19.6125 292.765 22.9865 293.149 23.1195L295.768 26.744L296.197 27.5347Z" fill="#FF592D"/>
<path d="M322.274 32.0206C322.149 32.3572 321.38 34.5884 321.049 34.5884L319.968 34.5336C318.961 34.4605 317.96 34.3587 316.965 34.2283C315.866 34.0795 314.785 33.8916 313.721 33.6724H313.677C312.595 33.4454 311.532 33.1949 310.495 32.8896C307.951 32.2165 305.453 31.414 303.016 30.4862C301.639 29.9617 300.424 29.4528 299.441 29.0144C297.43 28.1376 296.233 27.5191 296.233 27.5191L296.054 27.2608L295.321 26.2509L293.757 24.0824L293.221 23.3543V23.2995C293.196 23.2335 293.196 23.162 293.221 23.096C293.275 22.2661 295.214 19.9645 295.562 19.5731C296.998 17.8925 298.826 16.4994 300.924 15.4866C303.802 14.0931 307.046 14.7037 310.102 15.1734C311.113 15.3573 312.099 15.6355 313.042 16.0032L313.641 16.2303L313.757 16.2772C313.864 16.332 313.981 16.3712 314.088 16.4182L314.284 16.5043C316.555 17.436 318.622 18.7106 320.388 20.2698C324.41 24.2233 322.774 30.7445 322.274 32.0206Z" fill="#FF592D"/>
<path d="M317.903 57.9799C317.903 57.9799 317.26 54.0656 315.857 53.2827C314.454 52.4999 300.513 52.6173 298.341 53.956C296.169 55.2947 296.554 59.6709 296.554 59.6709L317.903 57.9799Z" fill="#FF592D"/>
<path d="M293.158 33.8602C293.158 33.8602 295.536 31.1673 298.082 32.8347C300.629 34.5021 298.61 38.4553 295.616 39.5669C295.616 39.5669 291.746 40.6707 291.246 37.2185C290.746 33.7663 293.158 33.8602 293.158 33.8602Z" fill="#B55B52"/>
<path d="M283.623 127.583C283.623 127.583 278.306 172.15 276.822 192.645C275.339 213.14 280.79 265.552 280.79 265.552H293.721C293.721 265.552 295.205 213.485 297.439 197.867C299.673 182.249 307.09 161.073 307.09 161.073C307.09 161.073 311.559 194.587 316.027 208.255C320.495 221.924 335.008 263.681 335.008 263.681L349.896 261.176C349.896 261.176 332.023 207.606 332.023 191.009C332.023 174.413 332.193 140.907 327.743 127.599L283.623 127.583Z" fill="#FF592D"/>
<path opacity="0.3" d="M349.87 261.192L334.99 263.705C334.99 263.705 320.486 221.948 316.018 208.279C313.56 200.764 311.112 187.228 309.405 176.574C307.975 167.876 307.081 161.097 307.081 161.097C307.081 161.097 299.655 182.234 297.421 197.891C295.187 213.548 293.712 265.576 293.712 265.576H280.79C280.79 265.576 275.339 213.172 276.822 192.677C278.306 172.182 283.623 127.606 283.623 127.606H327.698C332.166 140.915 331.988 174.46 331.988 191.017C331.988 207.574 349.87 261.192 349.87 261.192Z" fill="black"/>
<path opacity="0.3" d="M309.397 176.574C307.976 167.876 307.082 161.097 307.082 161.097L307.976 148.932L309.397 176.574Z" fill="black"/>
<path d="M279.388 263.375H294.884L294.124 268.964H279.995L279.388 263.375Z" fill="#263238"/>
<path d="M333.123 262.561L349.879 257.104L351.997 265.043L335.643 268.965L333.123 262.561Z" fill="#263238"/>
<path opacity="0.2" d="M346.858 263.07L339.298 265.113L340.451 269.364L349.128 267.532L346.858 263.07Z" fill="black"/>
<path opacity="0.2" d="M293.042 271.211H283.211L282.943 265.622L283.006 265.324L292.997 266.193C292.997 266.193 293.024 268.511 293.042 271.211Z" fill="black"/>
<path d="M278.484 281.694C278.547 281.843 272.3 278.657 274.016 277.169C275.732 275.682 278.484 281.694 278.484 281.694Z" stroke="#FF592D" stroke-miterlimit="10"/>
<path d="M279.378 281.467C279.334 281.624 275.893 276.057 278.234 275.564C280.576 275.071 279.378 281.467 279.378 281.467Z" stroke="#FF592D" stroke-miterlimit="10"/>
<path d="M341.121 278.312C341.121 278.312 339.075 272.543 337.091 273.49C335.107 274.437 341.121 278.312 341.121 278.312Z" stroke="#FF592D" stroke-miterlimit="10"/>
<path d="M340.566 278.813C340.566 278.813 335.946 274.343 334.597 275.909C333.247 277.475 340.566 278.813 340.566 278.813Z" stroke="#FF592D" stroke-miterlimit="10"/>
<path d="M353.329 277.106H342.229C342.229 277.106 335.813 280.489 332.998 280.802C330.183 281.115 328.53 281.264 328.61 283.033C328.691 284.802 330.398 284.959 336.162 284.881C341.926 284.802 353.364 285.421 354.607 284.419C355.849 283.417 355.062 281.53 353.329 277.106Z" fill="#263238"/>
<path d="M293.23 278.312L282.506 278.383C282.506 278.383 276.09 281.765 273.284 282.078C270.478 282.391 268.815 282.54 268.887 284.309C268.958 286.078 270.674 286.235 276.447 286.157C282.22 286.078 292.399 286.806 293.641 285.804C294.883 284.802 294.195 283.158 293.23 278.312Z" fill="#263238"/>
<path opacity="0.3" d="M293.149 23.1205C293.426 24.3652 293.712 25.3203 296.063 27.4888C293.078 26.518 282.854 23.0579 282.747 21.4687C282.64 19.8796 290.576 22.2672 293.149 23.1205Z" fill="black"/>
<path opacity="0.3" d="M293.15 23.3148C293.125 23.2488 293.125 23.1774 293.15 23.1113C293.15 23.1113 293.15 23.1974 293.15 23.3618V23.3148Z" fill="black"/>
<path opacity="0.3" d="M296.197 27.5352L295.92 27.4414C295.934 27.4087 295.952 27.3773 295.974 27.3477L296.197 27.5352Z" fill="black"/>
<path d="M322.274 32.0206C322.149 32.3572 321.38 34.5884 321.049 34.5884L319.968 34.5336C318.961 34.4605 317.96 34.3587 316.965 34.2283C315.866 34.0795 314.785 33.8916 313.721 33.6724H313.677C312.595 33.4454 311.532 33.1949 310.495 32.8896C307.951 32.2165 305.453 31.414 303.016 30.4862C301.639 29.9617 300.424 29.4528 299.441 29.0144C297.43 28.1376 296.233 27.5191 296.233 27.5191L296.054 27.2608L295.321 26.2509L293.757 24.0824L293.221 23.3543V23.2995C293.196 23.2335 293.196 23.162 293.221 23.096C293.275 22.2661 295.214 19.9645 295.562 19.5731C296.998 17.8925 298.826 16.4994 300.924 15.4866C303.802 14.0931 307.046 14.7037 310.102 15.1734C311.113 15.3573 312.099 15.6355 313.042 16.0032L313.641 16.2303L313.757 16.2772C313.864 16.332 313.981 16.3712 314.088 16.4182L314.284 16.5043C316.555 17.436 318.622 18.7106 320.388 20.2698C324.41 24.2233 322.774 30.7445 322.274 32.0206Z" fill="#FF592D"/>
<path opacity="0.2" d="M304.696 47.709C303.744 48.576 302.742 49.3991 301.693 50.1748C301.693 49.1728 301.55 48.4605 301.55 48.4605C302.628 48.3167 303.683 48.0645 304.696 47.709Z" fill="black"/>
<path d="M283.623 128.021V87.9237L275.268 84.9411C275.268 84.9411 276.867 63.5457 288.762 60.1716C300.656 56.7975 321.827 55.3805 327.654 60.1716C331.336 63.2169 331.827 68.1019 331.961 72.2901C332.247 80.8232 329.7 89.1685 329.137 97.6546C328.69 104.559 328.422 111.464 328.243 118.377C328.243 118.909 328.011 128.021 327.993 128.021H283.623Z" fill="#263238"/>
<path d="M288.199 89.2935C288.199 89.2935 282.015 107.189 275.902 108.309C269.79 109.428 248.914 99.4471 248.914 99.4471H239.593L238.271 92.2683C238.271 92.2683 246.948 89.4501 252.73 92.8242C252.73 92.8242 266.233 97.9831 270.728 99.4862L277.243 85.6768L288.199 89.2935Z" fill="#B55B52"/>
</svg>
