<svg width="403" height="300" viewBox="0 0 403 300" fill="none" xmlns="http://www.w3.org/2000/svg">
<path d="M402.62 263.636H0V263.837H402.62V263.636Z" fill="#EBEBEB"/>
<path d="M63.1794 271.302H42.2432V271.503H63.1794V271.302Z" fill="#EBEBEB"/>
<path d="M161.395 269.119H117.831V269.32H161.395V269.119Z" fill="#EBEBEB"/>
<path d="M85.1783 278.782H63.9844V278.984H85.1783V278.782Z" fill="#EBEBEB"/>
<path d="M362.277 277.429H346.792V277.63H362.277V277.429Z" fill="#EBEBEB"/>
<path d="M339.618 277.429H315.228V277.63H339.618V277.429Z" fill="#EBEBEB"/>
<path d="M251.871 274.031H207.938V274.233H251.871V274.031Z" fill="#EBEBEB"/>
<path d="M190.842 227.722H35.3584C34.1404 227.72 32.9729 227.234 32.1124 226.372C31.2519 225.51 30.7686 224.342 30.7686 223.124V4.55766C30.7792 3.3466 31.2672 2.18862 32.1265 1.33526C32.9859 0.481902 34.1473 0.00207461 35.3584 0H190.842C192.062 0 193.231 0.484422 194.093 1.3467C194.956 2.20898 195.44 3.37847 195.44 4.59792V223.124C195.44 224.343 194.956 225.513 194.093 226.375C193.231 227.237 192.062 227.722 190.842 227.722ZM35.3584 0.161049C34.1938 0.163182 33.0775 0.627334 32.2548 1.45163C31.432 2.27592 30.9699 3.393 30.9699 4.55766V223.124C30.9699 224.288 31.432 225.406 32.2548 226.23C33.0775 227.054 34.1938 227.518 35.3584 227.52H190.842C192.008 227.518 193.125 227.054 193.949 226.23C194.773 225.406 195.237 224.289 195.239 223.124V4.55766C195.237 3.39226 194.773 2.2752 193.949 1.45114C193.125 0.627072 192.008 0.163177 190.842 0.161049H35.3584Z" fill="#EBEBEB"/>
<path d="M365.023 227.722H209.532C208.313 227.72 207.144 227.234 206.283 226.373C205.421 225.511 204.936 224.343 204.934 223.124V4.55766C204.946 3.34586 205.436 2.1879 206.297 1.33476C207.157 0.481621 208.32 0.00205198 209.532 0H365.023C366.233 0.00419087 367.392 0.484955 368.25 1.33809C369.108 2.19122 369.594 3.34799 369.605 4.55766V223.124C369.605 224.34 369.123 225.508 368.264 226.369C367.405 227.231 366.24 227.717 365.023 227.722ZM209.532 0.161049C208.366 0.163177 207.249 0.627072 206.425 1.45114C205.601 2.2752 205.137 3.39226 205.135 4.55766V223.124C205.137 224.289 205.601 225.406 206.425 226.23C207.249 227.054 208.366 227.518 209.532 227.52H365.023C366.189 227.518 367.306 227.054 368.13 226.23C368.954 225.406 369.418 224.289 369.42 223.124V4.55766C369.418 3.39226 368.954 2.2752 368.13 1.45114C367.306 0.627072 366.189 0.163177 365.023 0.161049H209.532Z" fill="#EBEBEB"/>
<path d="M324.809 107.902C336.19 107.902 345.415 98.6759 345.415 87.2955C345.415 75.9151 336.19 66.6895 324.809 66.6895C313.429 66.6895 304.203 75.9151 304.203 87.2955C304.203 98.6759 313.429 107.902 324.809 107.902Z" fill="#FAFAFA"/>
<path d="M108.023 56.9869C107.035 57.037 106.06 57.224 105.124 57.5425C104.898 55.61 102.571 54.4263 98.4404 54.5632C96.1454 54.6682 93.8702 55.0384 91.6602 55.6663C93.1016 52.7594 91.6602 50.698 87.634 50.698C84.9479 50.8024 82.3046 51.4059 79.8393 52.4776C79.2515 50.5289 77.0371 49.3291 73.3169 49.3291C67.3823 49.3291 59.3701 52.3729 53.2423 56.6568C50.2951 56.7293 44.6262 58.4202 43.668 59.9341H109.166L109.472 59.6523C111.034 58.1062 110.406 56.9064 108.023 56.9869Z" fill="#E6E6E6"/>
<path d="M364.91 97.6274C363.813 97.684 362.73 97.8899 361.689 98.2394C361.439 96.1055 358.871 94.801 354.297 94.9459C351.759 95.0614 349.243 95.4722 346.8 96.1699C348.411 92.9489 346.8 90.6782 342.307 90.6782C339.338 90.7922 336.416 91.4585 333.691 92.6429C333.039 90.4849 330.591 89.1562 326.444 89.1562C319.889 89.1562 311.023 92.5302 304.243 97.265C300.982 97.3455 294.725 99.2137 293.654 100.889H366.126C366.239 100.784 366.351 100.687 366.464 100.575C368.236 98.8674 367.543 97.5468 364.91 97.6274Z" fill="#F5F5F5"/>
<path d="M326.983 48.2576C325.381 48.3687 323.805 48.7161 322.305 49.2883C323.11 45.697 320.372 43.4987 314.124 43.7402C310.443 43.9683 306.806 44.6637 303.301 45.8097C307.223 40.3985 306.281 36.5655 300.225 36.5655C296.779 36.5655 292.245 37.8056 287.494 39.8751C287.808 36.2354 285.215 34.0049 279.643 34.0049C272.742 34.0049 262.838 37.4352 253.231 42.7176C252.974 41.1796 251.524 40.3019 248.859 40.3019C245.171 40.3019 240.001 42.0331 234.84 44.7548C234.51 44.7548 234.163 44.7548 233.793 44.7548C227.262 45.2058 218.075 48.7247 212.752 52.7428H328.014C330.792 50.1097 330.406 48.1288 326.983 48.2576Z" fill="#F0F0F0"/>
<path d="M124.087 93.1741C123.425 93.2151 122.774 93.3562 122.154 93.5929C122.493 92.1193 121.349 91.1771 118.78 91.306C117.263 91.3986 115.764 91.6855 114.319 92.1595C115.93 89.929 115.543 88.3508 113.047 88.3508C111.226 88.4614 109.443 88.9235 107.797 89.7116C107.926 88.2139 106.855 87.2959 104.576 87.2959C101.734 87.2959 97.6429 88.7051 93.6892 90.8873C93.5765 90.2511 92.9806 89.8807 91.8855 89.8807C89.8438 90.0584 87.8667 90.6853 86.0958 91.7167H85.669C82.5412 92.0686 79.5528 93.2042 76.9805 95.0181H124.49C125.617 93.9311 125.496 93.1178 124.087 93.1741Z" fill="#FAFAFA"/>
<path d="M54.3132 110.503C49.7314 109.36 46.8728 107 43.6357 110.986C48.1451 107.902 54.1039 112.412 54.1039 112.412C54.1039 112.412 60.7954 108.997 64.7089 112.814C62.2448 108.329 59.0239 110.165 54.3132 110.503Z" fill="#E0E0E0"/>
<path d="M75.4347 123.637C72.5197 122.912 70.7079 121.406 68.6465 123.943C71.5131 121.978 75.33 124.844 75.33 124.844C75.33 124.844 79.5736 122.678 82.0618 125.102C80.4674 122.252 78.4221 123.419 75.4347 123.637Z" fill="#E0E0E0"/>
<path d="M317.345 20.413C313.512 19.4548 311.128 17.482 308.423 20.8157C312.191 18.2389 317.208 22.0074 317.208 22.0074C317.208 22.0074 322.788 19.1569 326.066 22.3456C323.972 18.5932 321.291 20.1312 317.345 20.413Z" fill="#E0E0E0"/>
<path d="M105.156 162.28H151.546V263.636H71.5293V187.806L105.156 162.28Z" fill="#E0E0E0"/>
<path d="M117.919 263.636H185.173V187.806H117.919L117.919 263.636Z" fill="#EBEBEB"/>
<path d="M117.919 189.819H185.173V187.806H117.919V189.819Z" fill="#E0E0E0"/>
<path d="M151.546 162.28L185.173 187.806H117.919L151.546 162.28Z" fill="#EBEBEB"/>
<path d="M128.307 215.297H174.777V200.939H128.307V215.297Z" fill="#E0E0E0"/>
<path d="M168.658 248.899H174.777V230.065H168.658V248.899Z" fill="#E0E0E0"/>
<path d="M143.179 263.636H159.912V234.406H143.179V263.636Z" fill="#E0E0E0"/>
<path d="M128.307 248.899H134.427V230.065H128.307V248.899Z" fill="#E0E0E0"/>
<path d="M81.3934 181.871H94.1162V159.437H81.3934V181.871Z" fill="#E0E0E0"/>
<path d="M330.479 205.98L299.976 205.972L290.515 213.154V210.264H284.58V217.664L277.864 222.761V224.082V263.635H294.476H299.976H352.59V222.761L330.479 205.98Z" fill="#F5F5F5"/>
<path d="M248.4 166.821H287.148L299.162 175.945V172.265H306.699V181.662L315.227 188.136V189.819V263.635H294.13H287.148H220.321V188.136L248.4 166.821Z" fill="#F0F0F0"/>
<path d="M201.31 300C287.537 300 357.437 295.919 357.437 290.885C357.437 285.851 287.537 281.77 201.31 281.77C115.082 281.77 45.1816 285.851 45.1816 290.885C45.1816 295.919 115.082 300 201.31 300Z" fill="#F5F5F5"/>
<path d="M153.412 130.639L141.909 134.113L142.143 134.886L153.645 131.412L153.412 130.639Z" fill="#FF592D"/>
<path d="M162.837 127.786L156.715 129.636L156.948 130.409L163.071 128.559L162.837 127.786Z" fill="#FF592D"/>
<path d="M120.599 137.539L178.399 119.923L163.88 72.2823L106.079 89.8985L120.599 137.539Z" fill="#FF592D"/>
<path d="M185.493 65.7162L163.856 72.3105L178.376 119.951L200.013 113.357L185.493 65.7162Z" fill="#FF592D"/>
<path opacity="0.3" d="M185.493 65.7162L163.856 72.3105L178.376 119.951L200.013 113.357L185.493 65.7162Z" fill="black"/>
<path opacity="0.3" d="M162.009 114.485L188.694 106.424L184.159 91.4116L157.474 99.4727L162.009 114.485Z" fill="white"/>
<path d="M117.536 104.391L127.542 101.342L124.492 91.3361L114.487 94.3856L117.536 104.391Z" fill="white"/>
<path d="M129.795 100.652L139.801 97.6025L136.751 87.5969L126.746 90.6464L129.795 100.652Z" fill="white"/>
<path d="M137.438 48.6359C139.394 48.3192 141.145 47.2411 142.309 45.6371C143.472 44.0331 143.953 42.0338 143.647 40.0762L141.859 28.8512C141.54 26.8962 140.462 25.1464 138.858 23.9835C137.255 22.8205 135.257 22.3386 133.299 22.6428C131.344 22.9615 129.595 24.0401 128.432 25.6435C127.269 27.247 126.787 29.2452 127.091 31.2025L128.879 42.4758C129.207 44.4229 130.29 46.162 131.892 47.3154C133.495 48.4688 135.488 48.9433 137.438 48.6359Z" fill="#FF592D"/>
<path opacity="0.3" d="M130.594 36.1227C130.75 37.0554 131.179 37.921 131.826 38.6105C132.474 39.3 133.31 39.7825 134.231 39.9972C135.152 40.212 136.116 40.1494 137.002 39.8173C137.887 39.4852 138.655 38.8985 139.207 38.131C139.76 37.3636 140.073 36.4498 140.107 35.5047C140.142 34.5596 139.895 33.6255 139.4 32.8201C138.904 32.0147 138.181 31.374 137.322 30.9787C136.463 30.5834 135.506 30.4512 134.572 30.5987C133.314 30.8082 132.19 31.5064 131.445 32.5412C130.7 33.5759 130.394 34.8633 130.594 36.1227Z" fill="black"/>
<path d="M132.252 35.857C132.349 36.4639 132.624 37.0285 133.041 37.4795C133.458 37.9305 134 38.2476 134.598 38.3907C135.196 38.5339 135.822 38.4966 136.399 38.2837C136.975 38.0708 137.476 37.6917 137.837 37.1945C138.198 36.6972 138.404 36.104 138.428 35.49C138.452 34.8759 138.293 34.2684 137.972 33.7444C137.651 33.2203 137.182 32.8032 136.624 32.5457C136.066 32.2882 135.444 32.202 134.837 32.2978C134.023 32.4285 133.294 32.8764 132.81 33.5435C132.325 34.2106 132.125 35.0424 132.252 35.857Z" fill="#263238"/>
<path d="M135.28 34.3108C135.32 34.5607 135.457 34.7846 135.662 34.9334C135.866 35.0821 136.121 35.1435 136.371 35.104C136.621 35.0645 136.845 34.9273 136.994 34.7227C137.143 34.5181 137.204 34.2627 137.165 34.0129C137.145 33.8892 137.101 33.7705 137.036 33.6637C136.97 33.5569 136.885 33.464 136.783 33.3903C136.682 33.3167 136.567 33.2637 136.445 33.2344C136.324 33.2051 136.197 33.2001 136.073 33.2197C135.95 33.2393 135.831 33.283 135.724 33.3484C135.617 33.4139 135.525 33.4997 135.451 33.601C135.377 33.7023 135.324 33.8171 135.295 33.9389C135.266 34.0607 135.261 34.1871 135.28 34.3108Z" fill="white"/>
<path d="M133.758 36.9514C133.767 37.0141 133.789 37.0744 133.821 37.1288C133.853 37.1832 133.896 37.2305 133.947 37.268C133.999 37.3055 134.057 37.3325 134.118 37.3472C134.18 37.362 134.244 37.3643 134.306 37.354C134.43 37.3323 134.541 37.2629 134.615 37.1606C134.689 37.0583 134.719 36.9312 134.701 36.8065C134.681 36.6815 134.613 36.5694 134.511 36.4946C134.409 36.4199 134.282 36.3887 134.157 36.4079C134.032 36.4271 133.92 36.4952 133.845 36.5971C133.77 36.699 133.739 36.8265 133.758 36.9514Z" fill="white"/>
<path d="M176.13 29.6484L155.709 31.6615L156.184 34.6409L176.557 32.354L176.13 29.6484Z" fill="#FF592D"/>
<path opacity="0.3" d="M176.13 29.6484L155.709 31.6615L156.184 34.6409L176.557 32.354L176.13 29.6484Z" fill="white"/>
<path d="M177.362 36.8951C178.25 36.7504 179.045 36.2621 179.575 35.5357C180.106 34.8094 180.329 33.9034 180.197 33.0138L179.391 27.8764C179.247 26.9817 178.754 26.1806 178.021 25.648C177.288 25.1155 176.373 24.8947 175.478 25.0339C174.583 25.1784 173.782 25.6712 173.25 26.4044C172.717 27.1377 172.496 28.0519 172.635 28.9474L173.441 34.0848C173.593 34.9752 174.09 35.7697 174.824 36.2958C175.558 36.822 176.47 37.0373 177.362 36.8951Z" fill="#FF592D"/>
<path d="M155.782 29.7932L141.867 28.9316L143.478 38.9247L156.563 36.8391C156.773 36.8068 156.975 36.7331 157.157 36.6223C157.338 36.5115 157.496 36.3657 157.621 36.1935C157.746 36.0213 157.836 35.826 157.885 35.6189C157.934 35.4118 157.942 35.1971 157.908 34.987L157.296 31.1541C157.239 30.7876 157.057 30.4521 156.781 30.2042C156.505 29.9562 156.152 29.8111 155.782 29.7932Z" fill="#FF592D"/>
<path d="M173.835 22.8446C173.875 23.0931 173.988 23.3242 174.159 23.5087C174.33 23.6931 174.552 23.8227 174.797 23.881C175.042 23.9393 175.298 23.9237 175.534 23.8362C175.77 23.7487 175.975 23.5932 176.122 23.3893C176.27 23.1855 176.354 22.9425 176.363 22.691C176.372 22.4395 176.307 22.1909 176.175 21.9766C176.043 21.7623 175.851 21.5919 175.622 21.487C175.393 21.382 175.139 21.3473 174.89 21.3871C174.557 21.4405 174.259 21.6241 174.061 21.8974C173.863 22.1708 173.782 22.5115 173.835 22.8446Z" fill="#FF592D"/>
<path d="M178.466 23.0936L188.636 21.4832C188.89 21.4397 189.117 21.2979 189.268 21.0885C189.418 20.8791 189.481 20.6188 189.441 20.3639C189.421 20.2378 189.377 20.1169 189.311 20.008C189.244 19.8992 189.157 19.8046 189.053 19.7297C188.95 19.6549 188.833 19.6012 188.709 19.5718C188.584 19.5425 188.456 19.538 188.33 19.5586L178.16 21.1691C177.905 21.2126 177.678 21.3543 177.528 21.5638C177.377 21.7732 177.315 22.0335 177.354 22.2884C177.4 22.5401 177.541 22.7646 177.748 22.9147C177.955 23.0648 178.212 23.1289 178.466 23.0936Z" fill="#FF592D"/>
<path d="M161.853 25.7672L172.024 24.1567C172.15 24.1372 172.271 24.0928 172.379 24.0262C172.488 23.9597 172.583 23.8722 172.658 23.7689C172.733 23.6656 172.786 23.5485 172.816 23.4243C172.845 23.3002 172.85 23.1714 172.829 23.0455C172.809 22.9194 172.765 22.7985 172.698 22.6897C172.632 22.5808 172.544 22.4862 172.441 22.4114C172.338 22.3365 172.221 22.2828 172.096 22.2535C171.972 22.2241 171.844 22.2196 171.718 22.2403L161.547 23.8508C161.421 23.8703 161.3 23.9147 161.192 23.9813C161.083 24.0478 160.988 24.1353 160.913 24.2386C160.838 24.3419 160.785 24.459 160.755 24.5832C160.726 24.7073 160.722 24.8361 160.742 24.962C160.784 25.2156 160.924 25.4426 161.132 25.5934C161.34 25.7443 161.599 25.8067 161.853 25.7672Z" fill="#FF592D"/>
<path d="M94.7686 42.6205L114.795 38.1836L115.27 41.163L95.1953 45.3261L94.7686 42.6205Z" fill="#FF592D"/>
<path opacity="0.3" d="M94.7686 42.6205L114.795 38.1836L115.27 41.163L95.1953 45.3261L94.7686 42.6205Z" fill="white"/>
<path d="M95.8231 49.9245C94.9273 50.0659 94.012 49.846 93.2782 49.313C92.5444 48.78 92.0522 47.9776 91.9097 47.082L91.1044 41.9445C90.965 41.0502 91.1847 40.1371 91.7156 39.404C92.2466 38.671 93.0457 38.1775 93.9389 38.0311C94.8353 37.8917 95.7505 38.1122 96.485 38.6447C97.2196 39.1771 97.7139 39.9783 97.8604 40.8736L98.6656 46.011C98.8071 46.9068 98.5871 47.8221 98.0542 48.5559C97.5212 49.2897 96.7188 49.7819 95.8231 49.9245Z" fill="#FF592D"/>
<path d="M114.151 36.4206L127.107 31.2832L128.718 41.2762L115.633 43.3618C115.422 43.3962 115.208 43.3886 115.001 43.3395C114.794 43.2904 114.598 43.2007 114.426 43.0757C114.254 42.9506 114.108 42.7927 113.997 42.611C113.886 42.4293 113.813 42.2274 113.78 42.017L113.168 38.1841C113.107 37.8222 113.17 37.4501 113.349 37.1293C113.528 36.8086 113.811 36.5586 114.151 36.4206Z" fill="#FF592D"/>
<path d="M94.8331 35.4295C94.8757 35.6793 94.8427 35.9362 94.7383 36.1672C94.634 36.3982 94.463 36.5928 94.2473 36.7259C94.0316 36.8591 93.7811 36.9248 93.5278 36.9146C93.2745 36.9044 93.0301 36.8188 92.8258 36.6688C92.6215 36.5187 92.4667 36.3111 92.3812 36.0725C92.2957 35.8338 92.2834 35.5751 92.346 35.3295C92.4085 35.0838 92.543 34.8625 92.7322 34.6938C92.9214 34.5251 93.1566 34.4167 93.4078 34.3827C93.7347 34.3383 94.0661 34.4227 94.332 34.618C94.598 34.8133 94.7776 35.1042 94.8331 35.4295Z" fill="#FF592D"/>
<path d="M90.5089 37.1126L80.3387 38.7231C80.0838 38.7627 79.8235 38.7005 79.6141 38.5498C79.4047 38.3992 79.2629 38.1722 79.2195 37.9179C79.1821 37.6642 79.2454 37.406 79.3959 37.1983C79.5463 36.9907 79.772 36.8501 80.0247 36.8066L90.1949 35.1961C90.4489 35.1566 90.7082 35.2191 90.9163 35.3699C91.1244 35.5208 91.2646 35.7477 91.3061 36.0014C91.3268 36.1267 91.3226 36.2549 91.2938 36.3786C91.2649 36.5023 91.212 36.6191 91.1379 36.7223C91.0639 36.8255 90.9702 36.9131 90.8623 36.9801C90.7544 37.047 90.6343 37.0921 90.5089 37.1126Z" fill="#FF592D"/>
<path d="M107.097 34.4634L96.9266 36.0739C96.6717 36.1135 96.4114 36.0513 96.202 35.9006C95.9926 35.7499 95.8508 35.5229 95.8074 35.2686C95.77 35.015 95.8333 34.7567 95.9838 34.5491C96.1342 34.3415 96.3599 34.2009 96.6126 34.1574L106.783 32.5469C106.909 32.5263 107.037 32.5308 107.162 32.5601C107.286 32.5895 107.403 32.6432 107.506 32.718C107.609 32.7929 107.697 32.8875 107.763 32.9963C107.83 33.1051 107.874 33.2261 107.894 33.3522C107.915 33.4775 107.911 33.6057 107.882 33.7294C107.853 33.8531 107.8 33.9698 107.726 34.0731C107.652 34.1763 107.558 34.2639 107.45 34.3308C107.342 34.3978 107.222 34.4429 107.097 34.4634Z" fill="#FF592D"/>
<path d="M181.985 65.1188C181.887 65.1212 181.789 65.1076 181.695 65.0785L138.099 52.6053C137.847 52.5125 137.639 52.3277 137.518 52.0879C137.397 51.8482 137.37 51.5714 137.445 51.3132C137.519 51.055 137.689 50.8346 137.919 50.6964C138.15 50.5581 138.424 50.5123 138.687 50.5681L182.234 63.0412C182.504 63.1198 182.732 63.302 182.868 63.548C183.003 63.7939 183.036 64.0836 182.959 64.3538C182.899 64.5684 182.772 64.7583 182.597 64.8959C182.422 65.0334 182.207 65.1115 181.985 65.1188Z" fill="#263238"/>
<path d="M163.165 69.8616C162.949 69.8607 162.738 69.7932 162.562 69.6684L137.784 52.4604C137.661 52.3845 137.554 52.2842 137.471 52.1657C137.388 52.0472 137.33 51.9129 137.3 51.7711C137.271 51.6292 137.271 51.4829 137.3 51.3411C137.329 51.1992 137.387 51.0648 137.47 50.9461C137.553 50.8274 137.659 50.7269 137.783 50.6508C137.906 50.5747 138.043 50.5246 138.187 50.5035C138.33 50.4824 138.476 50.4909 138.616 50.5283C138.756 50.5657 138.887 50.6313 139 50.7211L163.769 67.9291C163.954 68.0586 164.092 68.2433 164.165 68.4566C164.237 68.6699 164.24 68.9008 164.173 69.1158C164.106 69.3308 163.972 69.519 163.791 69.653C163.61 69.7871 163.391 69.8601 163.165 69.8616Z" fill="#263238"/>
<path d="M107.539 87.8511C107.335 87.8544 107.133 87.7979 106.96 87.6888C106.787 87.5796 106.649 87.4223 106.564 87.2362C106.478 87.0501 106.449 86.8431 106.479 86.6406C106.51 86.4381 106.598 86.2487 106.734 86.0957L137.583 50.8906C137.768 50.6771 138.03 50.5456 138.311 50.5252C138.593 50.5049 138.871 50.5972 139.085 50.7819C139.298 50.9666 139.43 51.2287 139.45 51.5103C139.47 51.7919 139.378 52.0701 139.193 52.2837L108.345 87.4887C108.245 87.6037 108.121 87.6957 107.982 87.7582C107.843 87.8208 107.692 87.8525 107.539 87.8511Z" fill="#263238"/>
<path d="M224.815 99.5674H224.662C224.514 99.5682 224.369 99.6036 224.238 99.6707C224.106 99.7378 223.993 99.8348 223.906 99.9539C223.819 100.073 223.761 100.211 223.737 100.356C223.713 100.502 223.724 100.651 223.768 100.791L227.142 111.509H228.462L224.815 99.5674Z" fill="#FF592D"/>
<path d="M224.01 123.202H225.048L218.719 102.499C218.455 102.502 218.196 102.565 217.961 102.686C217.726 102.806 217.523 102.979 217.366 103.192C217.21 103.404 217.105 103.65 217.061 103.91C217.016 104.17 217.032 104.437 217.109 104.689L222.399 122.002C222.506 122.346 222.72 122.648 223.009 122.864C223.299 123.079 223.649 123.198 224.01 123.202Z" fill="#FF592D"/>
<path d="M249.447 102.475H243.416L242.53 99.5681H238.166L236.555 94.3823C236.54 94.3316 236.516 94.2842 236.483 94.243C236.45 94.2018 236.409 94.1675 236.362 94.142C236.316 94.1166 236.265 94.1006 236.213 94.0948C236.16 94.0891 236.107 94.0937 236.056 94.1085C235.954 94.1419 235.87 94.2135 235.82 94.3082C235.771 94.403 235.76 94.5133 235.79 94.6159L237.304 99.5681H229.654L226.433 89.1C226.423 89.0441 226.401 88.991 226.369 88.9442C226.337 88.8973 226.295 88.8579 226.247 88.8283C226.198 88.7988 226.144 88.7798 226.088 88.7727C226.031 88.7656 225.974 88.7705 225.92 88.7871C225.865 88.8037 225.815 88.8315 225.772 88.8689C225.73 88.9063 225.695 88.9523 225.672 89.0039C225.648 89.0555 225.635 89.1116 225.635 89.1684C225.634 89.2252 225.646 89.2814 225.668 89.3335L228.793 99.5681H224.767L225.652 102.475H218.671L225.048 123.202H255.776L249.447 102.475Z" fill="#FF592D"/>
<path opacity="0.4" d="M249.447 102.475H243.416L242.53 99.5681H238.166L236.555 94.3823C236.54 94.3316 236.516 94.2842 236.483 94.243C236.45 94.2018 236.409 94.1675 236.362 94.142C236.316 94.1166 236.265 94.1006 236.213 94.0948C236.16 94.0891 236.107 94.0937 236.056 94.1085C235.954 94.1419 235.87 94.2135 235.82 94.3082C235.771 94.403 235.76 94.5133 235.79 94.6159L237.304 99.5681H229.654L226.433 89.1C226.423 89.0441 226.401 88.991 226.369 88.9442C226.337 88.8973 226.295 88.8579 226.247 88.8283C226.198 88.7988 226.144 88.7798 226.088 88.7727C226.031 88.7656 225.974 88.7705 225.92 88.7871C225.865 88.8037 225.815 88.8315 225.772 88.8689C225.73 88.9063 225.695 88.9523 225.672 89.0039C225.648 89.0555 225.635 89.1116 225.635 89.1684C225.634 89.2252 225.646 89.2814 225.668 89.3335L228.793 99.5681H224.767L225.652 102.475H218.671L225.048 123.202H255.776L249.447 102.475Z" fill="white"/>
<path d="M275.569 87.3525C276.519 88.8181 277.324 90.2272 278.146 91.6847C278.967 93.1422 279.756 94.6078 280.497 96.0894C282.003 99.0607 283.38 102.121 284.604 105.277C285.232 106.847 285.771 108.498 286.287 110.109L286.383 110.431L286.52 110.954C286.607 111.306 286.669 111.664 286.705 112.025C286.786 112.754 286.77 113.491 286.657 114.215C286.449 115.526 285.966 116.777 285.24 117.887C284.06 119.613 282.508 121.053 280.698 122.099C279.921 122.57 279.114 122.989 278.282 123.355C277.438 123.721 276.569 124.028 275.681 124.273L273.797 120.247C274.904 119.318 275.952 118.323 276.938 117.267C277.773 116.425 278.432 115.426 278.878 114.328C278.992 114.042 279.026 113.73 278.975 113.426C278.945 113.345 278.908 113.266 278.862 113.193C278.845 113.153 278.824 113.115 278.798 113.08C278.795 113.061 278.795 113.042 278.798 113.024L278.693 112.766C278.121 111.365 277.501 109.972 276.857 108.563C275.545 105.768 274.119 102.982 272.614 100.22L270.343 96.0894L268.016 92.0632L275.569 87.3525Z" fill="#FFB573"/>
<path d="M275.779 119.82L271.543 118.717L271.302 125.545C271.302 125.545 274.611 126.036 276.64 124.015L275.779 119.82Z" fill="#FFB573"/>
<path d="M265.544 117.564L266.502 123.563L271.301 125.544L271.543 118.716L265.544 117.564Z" fill="#FFB573"/>
<path d="M248.013 59.8782C247.917 60.3452 247.594 60.6834 247.288 60.611C246.982 60.5385 246.813 60.1198 246.91 59.6527C247.007 59.1857 247.329 58.8475 247.635 58.92C247.941 58.9924 248.142 59.4111 248.013 59.8782Z" fill="#263238"/>
<path d="M247.668 60.6826C246.82 61.9975 245.796 63.1896 244.624 64.2257C244.897 64.5191 245.231 64.7491 245.602 64.8994C245.974 65.0497 246.374 65.1165 246.774 65.0953L247.668 60.6826Z" fill="#ED893E"/>
<path d="M250.285 57.6306C250.357 57.628 250.425 57.5994 250.478 57.5501C250.53 57.4974 250.558 57.4266 250.558 57.3528C250.558 57.279 250.53 57.2082 250.478 57.1555C250.18 56.8179 249.804 56.5573 249.384 56.3961C248.963 56.2348 248.51 56.1777 248.062 56.2295C247.989 56.2414 247.923 56.2819 247.879 56.3423C247.835 56.4027 247.817 56.4779 247.829 56.5516C247.842 56.6242 247.883 56.6889 247.943 56.7323C248.003 56.7757 248.077 56.7946 248.151 56.7851C248.502 56.7528 248.855 56.8038 249.183 56.934C249.51 57.0641 249.802 57.2697 250.035 57.534C250.064 57.5707 250.103 57.599 250.147 57.616C250.191 57.633 250.238 57.638 250.285 57.6306Z" fill="#263238"/>
<path d="M261.365 66.4561C260.519 70.7802 259.674 78.7118 262.701 81.5946C262.701 81.5946 261.518 85.9831 253.473 85.9831C244.616 85.9831 249.246 81.5946 249.246 81.5946C254.077 80.4431 253.948 76.8678 253.111 73.5019L261.365 66.4561Z" fill="#FFB573"/>
<path d="M264.441 82.3998C265.093 81.2 265.802 79.8231 264.328 79.3882C262.718 78.9131 252.306 78.0354 249.246 78.9292C250.188 80.5961 248.594 82.6494 248.594 82.6494L264.441 82.3998Z" fill="#FF592D"/>
<path d="M290.643 284.153C290.405 284.238 290.152 284.275 289.899 284.261C289.646 284.247 289.398 284.183 289.17 284.073C289.082 283.992 289.021 283.886 288.997 283.769C288.972 283.652 288.985 283.53 289.033 283.421C289.06 283.33 289.106 283.246 289.169 283.175C289.232 283.104 289.309 283.048 289.395 283.01C290.201 282.631 292.028 283.38 292.101 283.412C292.127 283.42 292.15 283.436 292.166 283.458C292.182 283.479 292.19 283.506 292.19 283.533C292.191 283.561 292.185 283.588 292.17 283.611C292.156 283.634 292.134 283.652 292.109 283.662C291.64 283.879 291.148 284.043 290.643 284.153ZM289.677 283.211C289.622 283.222 289.568 283.239 289.516 283.259C289.465 283.282 289.419 283.316 289.382 283.357C289.345 283.399 289.316 283.448 289.299 283.501C289.226 283.759 289.299 283.831 289.347 283.863C289.669 284.129 290.845 283.863 291.682 283.549C291.047 283.288 290.362 283.173 289.677 283.211Z" fill="#FF592D"/>
<path d="M292.085 283.678H292.012C291.344 283.484 289.911 282.47 289.895 281.801C289.894 281.695 289.929 281.592 289.995 281.508C290.061 281.425 290.153 281.366 290.257 281.342C290.358 281.309 290.465 281.296 290.572 281.304C290.678 281.312 290.782 281.342 290.877 281.391C291.682 281.801 292.165 283.436 292.181 283.508C292.194 283.529 292.201 283.553 292.201 283.577C292.201 283.601 292.194 283.625 292.181 283.645L292.085 283.678ZM290.41 281.584H290.345C290.168 281.648 290.176 281.729 290.176 281.769C290.176 282.164 291.127 282.961 291.787 283.283C291.605 282.632 291.232 282.052 290.716 281.616C290.62 281.574 290.513 281.563 290.41 281.584Z" fill="#FF592D"/>
<path d="M246.967 285.143C246.202 285.143 245.469 285.038 245.228 284.7C245.165 284.61 245.131 284.503 245.131 284.394C245.131 284.284 245.165 284.177 245.228 284.088C245.326 283.924 245.485 283.805 245.671 283.758C246.661 283.492 248.723 284.668 248.811 284.724C248.838 284.736 248.86 284.757 248.873 284.784C248.886 284.81 248.89 284.84 248.884 284.869C248.878 284.897 248.864 284.922 248.844 284.942C248.824 284.962 248.799 284.976 248.771 284.982C248.175 285.086 247.572 285.14 246.967 285.143ZM246.025 283.999C245.937 283.987 245.847 283.987 245.759 283.999C245.701 284.009 245.646 284.032 245.597 284.065C245.549 284.099 245.508 284.142 245.477 284.193C245.381 284.37 245.421 284.458 245.477 284.507C245.751 284.885 247.249 284.893 248.352 284.74C247.631 284.346 246.841 284.094 246.025 283.999Z" fill="#FF592D"/>
<path d="M248.755 284.983H248.69C247.982 284.66 246.565 283.372 246.677 282.712C246.677 282.551 246.814 282.358 247.193 282.317C247.336 282.301 247.482 282.314 247.62 282.356C247.758 282.397 247.887 282.466 247.998 282.559C248.747 283.179 248.908 284.773 248.916 284.838C248.919 284.862 248.915 284.887 248.905 284.91C248.896 284.933 248.88 284.952 248.859 284.966C248.828 284.984 248.79 284.99 248.755 284.983ZM247.305 282.567H247.209C246.959 282.567 246.943 282.688 246.935 282.72C246.871 283.122 247.829 284.129 248.545 284.564C248.468 283.89 248.187 283.255 247.74 282.744C247.614 282.649 247.463 282.593 247.305 282.583V282.567Z" fill="#FF592D"/>
<path d="M255.253 284.846H249.343L248.755 271.148H254.665L255.253 284.846Z" fill="#FFB573"/>
<path d="M298.671 282.108L292.89 283.356L287.084 270.601L292.866 269.345L298.671 282.108Z" fill="#FFB573"/>
<path d="M292.302 282.776L298.8 281.367C298.915 281.345 299.034 281.361 299.139 281.414C299.244 281.466 299.329 281.552 299.38 281.657L301.634 286.553C301.688 286.672 301.713 286.802 301.709 286.933C301.705 287.064 301.672 287.192 301.612 287.308C301.551 287.424 301.465 287.525 301.361 287.604C301.256 287.682 301.135 287.736 301.006 287.761C298.735 288.212 297.6 288.316 294.75 288.936C292.986 289.315 289.024 290.281 286.592 290.813C284.161 291.344 283.331 289.001 284.281 288.574C288.525 286.633 290.297 284.926 291.44 283.332C291.65 283.048 291.956 282.85 292.302 282.776Z" fill="#263238"/>
<path d="M249.383 284.161H255.825C255.942 284.159 256.056 284.198 256.148 284.272C256.239 284.345 256.301 284.449 256.324 284.564L257.5 289.822C257.528 289.949 257.526 290.08 257.496 290.207C257.466 290.333 257.408 290.451 257.326 290.552C257.244 290.653 257.14 290.733 257.022 290.788C256.905 290.843 256.776 290.871 256.646 290.869C254.311 290.869 250.945 290.7 248.022 290.7C244.592 290.7 241.636 290.885 237.618 290.885C235.203 290.885 234.518 288.429 235.533 288.204C240.163 287.197 243.939 287.084 247.941 284.62C248.369 284.335 248.869 284.176 249.383 284.161Z" fill="#263238"/>
<path d="M273.29 82.9397C278.839 84.212 283.404 98.3681 283.404 98.3681L272.276 106.855C269.392 103.784 267.355 100.016 266.365 95.9202C264.465 88.4959 267.622 81.6352 273.29 82.9397Z" fill="#FF592D"/>
<path opacity="0.2" d="M268.539 93.3438C271.551 96.3231 272.565 101.75 272.767 106.469L272.276 106.848C269.391 103.776 267.355 100.008 266.365 95.9125C266.252 95.4696 266.156 95.0267 266.075 94.5919L268.539 93.3438Z" fill="black"/>
<path d="M240.146 83.2375C240.146 83.2375 233.849 90.3477 239.8 134.37H271.438C271.655 129.539 268.604 105.816 273.29 82.9315C269.793 82.2581 266.256 81.8116 262.701 81.5948C258.22 81.3369 253.727 81.3369 249.246 81.5948C246.174 81.9042 243.132 82.4534 240.146 83.2375Z" fill="#FF592D"/>
<path opacity="0.2" d="M248.755 271.148L249.053 278.21H254.971L254.673 271.148H248.755Z" fill="black"/>
<path opacity="0.2" d="M292.873 269.345L287.092 270.601L290.087 277.18L295.869 275.924L292.873 269.345Z" fill="black"/>
<path d="M263.844 62.0517C262.322 67.7287 261.718 71.1187 258.208 73.4781C252.941 77.0292 246.387 72.9547 246.185 66.9476C246 61.5364 248.512 53.1699 254.6 52.0265C255.942 51.7634 257.329 51.8485 258.629 52.2736C259.928 52.6988 261.097 53.4498 262.024 54.4552C262.951 55.4605 263.605 56.6865 263.924 58.0164C264.242 59.3462 264.215 60.7355 263.844 62.0517Z" fill="#FFB573"/>
<path d="M251.557 62.0518C251.017 60.0307 249.745 56.4152 252.467 55.3281C256.123 53.9833 263.595 54.5228 266.575 56.544C269.441 61.5043 265.955 65.9975 264.159 68.0428C262.363 70.0881 262.242 71.4007 261.067 71.9321C258.82 72.9628 254.013 71.8113 253.401 69.8466C252.604 67.3745 249.334 65.1037 251.557 62.0518Z" fill="#263238"/>
<path d="M265.56 57.1078C265.56 57.1078 268.064 55.8516 267.492 52.2764C269.489 54.7565 268.386 59.6363 265.56 57.1078Z" fill="#263238"/>
<path d="M266.164 58.4035C266.164 58.4035 267.372 58.468 268.684 61.085C268.781 58.782 267.34 56.012 266.164 58.4035Z" fill="#263238"/>
<path d="M255.374 55.7626C251.348 56.1411 248.674 54.7561 247.16 52.3726C248.02 52.5825 248.918 52.5825 249.777 52.3726C249.421 51.9745 248.98 51.662 248.487 51.4584C247.993 51.2548 247.46 51.1654 246.927 51.1969C247.571 50.6988 248.316 50.3477 249.111 50.1682C249.905 49.9888 250.729 49.9854 251.525 50.1582C250.764 48.7517 250.56 47.1103 250.953 45.5603C251.589 47.0419 255.044 48.6524 256.292 48.6846C256.292 48.6846 254.536 46.6715 255.156 44.5537C256.453 46.5024 259.545 50.126 263.571 50.9312C266.913 51.5996 270.053 58.283 264.376 58.0415C256.871 57.7355 255.374 55.7626 255.374 55.7626Z" fill="#263238"/>
<path d="M254.197 61.7859C253.802 63.1975 252.953 64.4398 251.782 65.3209C250.244 66.4644 249.092 65.3209 249.205 63.5977C249.302 62.0275 250.219 59.5715 251.919 59.0723C253.618 58.573 254.632 60.0869 254.197 61.7859Z" fill="#FFB573"/>
<path d="M251.025 134.37C251.025 134.37 257.733 179.568 261.421 196.478C265.447 214.999 287.1 276.39 287.1 276.39L297.689 274.095C297.689 274.095 282.559 224.09 279.169 198.161C276.568 178.248 271.438 134.338 271.438 134.338L251.025 134.37Z" fill="#FF592D"/>
<path d="M284.563 272.888C284.515 272.888 286.536 276.721 286.536 276.721L298.454 274.136L297.447 270.561L284.563 272.888Z" fill="#263238"/>
<path opacity="0.3" d="M255.261 150.476C263.024 151.997 262.202 180.946 261.268 195.835C259.03 185.31 255.752 165.058 253.514 150.685C254.055 150.418 254.672 150.344 255.261 150.476Z" fill="black"/>
<path d="M239.801 134.37C239.801 134.37 238.995 178.602 239.631 196.639C240.3 215.401 246.879 276.841 246.879 276.841H256.872C256.872 276.841 257.242 216.496 257.677 198.073C258.168 177.942 260.592 134.37 260.592 134.37H239.801Z" fill="#FF592D"/>
<path d="M244.922 272.848C244.873 272.848 245.485 277.011 245.485 277.011H257.677L258.007 273.299L244.922 272.848Z" fill="#263238"/>
<path d="M240.002 82.6173C238.456 83.3178 236.966 84.5821 236.515 88.7532C236.088 92.7794 236.918 127.904 237.924 139.129C237.946 139.492 238.085 139.838 238.321 140.115C238.556 140.392 238.874 140.586 239.229 140.667C245.477 141.915 264.312 141.698 271.108 140.828C271.492 140.766 271.843 140.57 272.097 140.276C272.352 139.981 272.495 139.607 272.501 139.218C273.049 128.355 274.611 109.247 274.611 97.949C274.611 90.5811 275.416 82.9796 269.78 81.6832C265.641 80.7089 246.041 79.8634 240.002 82.6173Z" fill="#263238"/>
<path d="M246.403 92.8928C246.129 94.5918 245.799 96.1137 245.437 97.7242C245.075 99.3347 244.688 100.889 244.237 102.467C243.344 105.705 242.199 108.868 240.815 111.929C240.057 113.608 239.137 115.21 238.069 116.712C237.424 117.6 236.678 118.411 235.847 119.127C235.334 119.578 234.772 119.97 234.172 120.295C233.872 120.451 233.562 120.588 233.246 120.706C232.92 120.829 232.586 120.932 232.247 121.012C230.833 121.363 229.349 121.324 227.955 120.899C226.752 120.512 225.651 119.86 224.734 118.991C223.975 118.285 223.324 117.471 222.802 116.575C222.568 116.148 222.343 115.721 222.157 115.286C221.972 114.852 221.835 114.433 221.658 113.877L225.58 111.792C225.781 111.921 226.079 112.178 226.329 112.372C226.578 112.565 226.852 112.774 227.134 112.943C227.589 113.273 228.084 113.544 228.607 113.748C228.919 113.884 229.266 113.918 229.598 113.845C229.791 113.765 229.823 113.676 229.944 113.539L230.178 113.322L230.395 113.096C230.699 112.75 230.969 112.375 231.2 111.977C231.865 110.865 232.433 109.699 232.899 108.49C233.945 105.759 234.827 102.968 235.541 100.132C235.911 98.6824 236.281 97.225 236.62 95.7514C236.958 94.2778 237.272 92.7639 237.562 91.3789L246.403 92.8928Z" fill="#FFB573"/>
<path d="M250.566 89.0274C255.398 98.6903 243.955 109.609 243.955 109.609L231.225 102.958C232.114 97.838 233.573 92.8333 235.573 88.0369C239.285 79.7993 247.805 83.4632 250.566 89.0274Z" fill="#FF592D"/>
<path d="M223.47 115.672L218.84 113.385L221.296 107.402C221.296 107.402 226.425 109.093 226.127 113.385L223.47 115.672Z" fill="#FFB573"/>
<path d="M217.72 111.912L217.277 106.558L221.296 107.403L218.84 113.386L217.72 111.912Z" fill="#FFB573"/>
</svg>
