<svg width="1440" height="972" viewBox="0 0 1440 972" fill="none" xmlns="http://www.w3.org/2000/svg">
<g clip-path="url(#clip0_7004_4381)">
<rect width="1440" height="972" transform="matrix(-1 0 0 1 1440 0)" fill="#ffffff" fill-opacity="0.24"/>
<path d="M424.58 746.73C361.82 747.1 297.28 770.35 238.08 749.73C171.62 726.61 133.95 655.73 73.0802 620.39C50.6931 607.539 25.704 599.884 -0.0397949 597.99V1009.35H578.49L533 772.22C500.701 755.986 465.146 747.275 429 746.74C427.56 746.74 426.12 746.74 424.68 746.74L424.58 746.73Z" fill="url(#paint0_linear_7004_4381)"/>
<path d="M-0.000854492 290.35V598.03C25.743 599.924 50.732 607.579 73.1191 620.43C133.949 655.79 171.619 726.65 238.119 749.77C297.319 770.35 361.859 747.1 424.619 746.77L287.619 632.41C231.109 585.22 172.729 535.54 148.619 472.52C129.859 423.43 131.739 366.44 90.9591 327.27C68.2891 305.44 34.9991 293.35 -0.000854492 290.35Z" fill="url(#paint1_linear_7004_4381)"/>
<path d="M1440 0V1009.35H995.36L958.69 818.09L927.89 657.4L909.25 560.18C902.905 527.018 889.393 495.641 869.659 468.245C849.925 440.848 824.445 418.093 795 401.57C760.314 382.055 721.179 371.819 681.38 371.85C674.213 371.848 667.051 372.251 659.93 373.06L659.8 371.84L1440 0Z" fill="url(#paint2_linear_7004_4381)"/>
<path d="M1440 0V1009.35H995.36L958.69 818.09L927.89 657.4L909.25 560.18C902.905 527.018 889.393 495.641 869.659 468.245C849.925 440.848 824.445 418.093 795 401.57C760.314 382.055 721.179 371.819 681.38 371.85C674.213 371.848 667.051 372.251 659.93 373.06L659.8 371.84L1440 0Z" fill="url(#paint3_linear_7004_4381)" fill-opacity="0.45"/>
<path d="M745.261 808.76C725.821 812.33 715.591 845.31 722.391 882.43C729.191 919.55 750.461 946.75 769.901 943.19C789.341 939.63 799.561 906.65 792.761 869.53C785.961 832.41 764.691 805.2 745.261 808.76Z" fill="#221E1F"/>
<path d="M701.171 598.85C700.186 598.85 699.213 599.067 698.321 599.484C697.429 599.902 696.639 600.511 696.009 601.267C695.378 602.024 694.922 602.91 694.671 603.863C694.421 604.815 694.383 605.811 694.561 606.78L713.001 707.35C713.454 709.82 714.759 712.053 716.688 713.661C718.618 715.268 721.049 716.149 723.561 716.15H744.311L741.851 702.7H725.851L723.551 690.35H739.551L721.251 677.97L736.311 672.69L719.001 665.57H735.001L733.791 659C733.49 657.365 732.625 655.886 731.345 654.824C730.066 653.762 728.453 653.184 726.791 653.19H716.671L707.671 604.36C707.385 602.813 706.567 601.414 705.357 600.407C704.148 599.401 702.624 598.85 701.051 598.85H701.171Z" fill="#221E1F"/>
<path d="M701.171 598.85C700.186 598.85 699.213 599.067 698.321 599.484C697.429 599.902 696.639 600.511 696.009 601.267C695.378 602.024 694.922 602.91 694.671 603.863C694.421 604.815 694.383 605.811 694.561 606.78L713.001 707.35C713.454 709.82 714.759 712.053 716.688 713.661C718.618 715.268 721.049 716.149 723.561 716.15H744.311L741.851 702.7H725.851L723.551 690.35H739.551L721.251 677.97L736.311 672.69L719.001 665.57H735.001L733.791 659C733.49 657.365 732.625 655.886 731.345 654.824C730.066 653.762 728.453 653.184 726.791 653.19H716.671L707.671 604.36C707.385 602.813 706.567 601.414 705.357 600.407C704.148 599.401 702.624 598.85 701.051 598.85H701.171Z" fill="url(#paint4_linear_7004_4381)"/>
<path opacity="0.74" d="M701.171 598.85C700.186 598.85 699.213 599.067 698.321 599.484C697.429 599.902 696.639 600.511 696.009 601.267C695.378 602.024 694.922 602.91 694.671 603.863C694.421 604.815 694.383 605.811 694.561 606.78L713.001 707.35C713.454 709.82 714.759 712.053 716.688 713.661C718.618 715.268 721.049 716.149 723.561 716.15H744.311L741.851 702.7H725.851L723.551 690.35H739.551L721.251 677.97L736.311 672.69L719.001 665.57H735.001L733.791 659C733.49 657.365 732.625 655.886 731.345 654.824C730.066 653.762 728.453 653.184 726.791 653.19H716.671L707.671 604.36C707.385 602.813 706.567 601.414 705.357 600.407C704.148 599.401 702.624 598.85 701.051 598.85H701.171Z" stroke="#FFB9CC" stroke-width="0.25"/>
<path d="M581.49 476.35C569.368 490.972 560.637 508.098 555.925 526.497C551.213 544.897 550.637 564.112 554.24 582.76L591.11 775.1H892.93L852.34 563.35C845.087 525.735 824.972 491.816 795.444 467.41C765.917 443.004 728.818 429.633 690.51 429.59H680.87C661.879 429.556 643.116 433.732 625.932 441.817C608.748 449.903 593.57 461.697 581.49 476.35ZM562.1 581.29C547.81 506.72 604.95 437.59 680.87 437.59H690.51C726.972 437.584 762.297 450.288 790.404 473.515C818.511 496.742 837.644 529.04 844.51 564.85L883.25 767.1H597.72L562.1 581.29Z" fill="url(#paint5_linear_7004_4381)"/>
<path d="M680.87 437.59C604.95 437.59 547.81 506.72 562.1 581.29L597.72 767.1H883.25L844.48 564.85C837.614 529.04 818.482 496.742 790.374 473.515C762.267 450.288 726.943 437.584 690.48 437.59H680.87ZM694.56 606.78C694.4 605.911 694.414 605.02 694.599 604.156C694.784 603.293 695.137 602.474 695.638 601.747C696.14 601.02 696.78 600.398 697.521 599.919C698.263 599.439 699.091 599.11 699.96 598.95C700.829 598.791 701.72 598.804 702.584 598.989C703.448 599.174 704.266 599.527 704.993 600.028C705.72 600.53 706.342 601.17 706.822 601.911C707.301 602.653 707.63 603.481 707.79 604.35L716.79 653.18H726.86C728.523 653.174 730.135 653.752 731.415 654.814C732.694 655.877 733.56 657.355 733.86 658.99L735 665.57H719L736.33 672.68L721.27 677.96L739.58 690.35H723.58L725.85 702.73H741.85L744.31 716.18H723.56C721.044 716.178 718.609 715.293 716.679 713.679C714.75 712.066 713.447 709.826 713 707.35L694.56 606.78Z" fill="#D45503"/>
<path d="M680.87 437.59C604.95 437.59 547.81 506.72 562.1 581.29L597.72 767.1H883.25L844.48 564.85C837.614 529.04 818.482 496.742 790.374 473.515C762.267 450.288 726.943 437.584 690.48 437.59H680.87ZM694.56 606.78C694.4 605.911 694.414 605.02 694.599 604.156C694.784 603.293 695.137 602.474 695.638 601.747C696.14 601.02 696.78 600.398 697.521 599.919C698.263 599.439 699.091 599.11 699.96 598.95C700.829 598.791 701.72 598.804 702.584 598.989C703.448 599.174 704.266 599.527 704.993 600.028C705.72 600.53 706.342 601.17 706.822 601.911C707.301 602.653 707.63 603.481 707.79 604.35L716.79 653.18H726.86C728.523 653.174 730.135 653.752 731.415 654.814C732.694 655.877 733.56 657.355 733.86 658.99L735 665.57H719L736.33 672.68L721.27 677.96L739.58 690.35H723.58L725.85 702.73H741.85L744.31 716.18H723.56C721.044 716.178 718.609 715.293 716.679 713.679C714.75 712.066 713.447 709.826 713 707.35L694.56 606.78Z" fill="url(#paint6_linear_7004_4381)"/>
<path d="M659.929 373.06C554.059 385.12 477.999 485.35 498.659 592.92L532.999 772.22L578.489 1009.35H995.359L958.689 818.09L927.889 657.4L909.249 560.18C902.905 527.018 889.393 495.641 869.659 468.245C849.924 440.848 824.444 418.093 794.999 401.57C760.313 382.055 721.179 371.819 681.379 371.85C674.212 371.848 667.051 372.252 659.929 373.06ZM554.239 582.79C550.665 564.141 551.254 544.933 555.964 526.537C560.675 508.142 569.39 491.015 581.488 476.379C593.585 461.743 608.767 449.959 625.947 441.871C643.126 433.783 661.881 429.589 680.869 429.59H690.509C728.817 429.633 765.917 443.004 795.444 467.41C824.971 491.816 845.086 525.735 852.339 563.35L892.929 775.1H591.109L554.239 582.79ZM722.389 882.43C715.589 845.31 725.819 812.33 745.259 808.76C764.699 805.19 785.959 832.41 792.759 869.53C799.559 906.65 789.329 939.63 769.899 943.19C750.469 946.75 729.199 919.55 722.389 882.43Z" fill="url(#paint7_linear_7004_4381)"/>
<g style="mix-blend-mode:soft-light" opacity="0.68">
<path d="M659.929 373.06C554.059 385.12 477.999 485.35 498.659 592.92L532.999 772.22L578.489 1009.35H995.359L958.689 818.09L927.889 657.4L909.249 560.18C902.905 527.018 889.393 495.641 869.659 468.245C849.924 440.848 824.444 418.093 794.999 401.57C760.313 382.055 721.179 371.819 681.379 371.85C674.212 371.848 667.051 372.252 659.929 373.06ZM554.239 582.79C550.665 564.141 551.254 544.933 555.964 526.537C560.675 508.142 569.39 491.015 581.488 476.379C593.585 461.743 608.767 449.959 625.947 441.871C643.126 433.783 661.881 429.589 680.869 429.59H690.509C728.817 429.633 765.917 443.004 795.444 467.41C824.971 491.816 845.086 525.735 852.339 563.35L892.929 775.1H591.109L554.239 582.79ZM722.389 882.43C715.589 845.31 725.819 812.33 745.259 808.76C764.699 805.19 785.959 832.41 792.759 869.53C799.559 906.65 789.329 939.63 769.899 943.19C750.469 946.75 729.199 919.55 722.389 882.43Z" fill="url(#paint8_linear_7004_4381)"/>
</g>
</g>
<defs>
<linearGradient id="paint0_linear_7004_4381" x1="578.49" y1="803.69" x2="0.000202682" y2="803.69" gradientUnits="userSpaceOnUse">
<stop stop-color="#FFB9CC"/>
<stop offset="1" stop-color="#FFB007"/>
</linearGradient>
<linearGradient id="paint1_linear_7004_4381" x1="280.449" y1="718.27" x2="-122.691" y2="279.38" gradientUnits="userSpaceOnUse">
<stop offset="0.01" stop-color="#FFB9CC"/>
<stop offset="0.52" stop-color="#FF7BAC"/>
<stop offset="0.96" stop-color="#B3CEFF"/>
</linearGradient>
<linearGradient id="paint2_linear_7004_4381" x1="1036.72" y1="35.28" x2="1124.36" y2="1036.97" gradientUnits="userSpaceOnUse">
<stop stop-color="#FFB9CC"/>
<stop offset="1" stop-color="#FF6604"/>
</linearGradient>
<linearGradient id="paint3_linear_7004_4381" x1="1036.72" y1="35.28" x2="1124.36" y2="1036.97" gradientUnits="userSpaceOnUse">
<stop stop-color="#FFB88A"/>
<stop offset="1" stop-color="#BD4C03"/>
</linearGradient>
<linearGradient id="paint4_linear_7004_4381" x1="733.621" y1="655.54" x2="704.081" y2="660.75" gradientUnits="userSpaceOnUse">
<stop stop-opacity="0"/>
<stop offset="0.29" stop-color="#0B0400" stop-opacity="0.02"/>
<stop offset="0.52" stop-color="#2C1201" stop-opacity="0.06"/>
<stop offset="0.73" stop-color="#642801" stop-opacity="0.14"/>
<stop offset="0.93" stop-color="#B34803" stop-opacity="0.25"/>
<stop offset="1" stop-color="#D45503" stop-opacity="0.3"/>
</linearGradient>
<linearGradient id="paint5_linear_7004_4381" x1="892.93" y1="602.34" x2="551.92" y2="602.34" gradientUnits="userSpaceOnUse">
<stop stop-color="#FFB9CC"/>
<stop offset="1" stop-color="#D45503"/>
</linearGradient>
<linearGradient id="paint6_linear_7004_4381" x1="841.98" y1="800.52" x2="583.7" y2="481.57" gradientUnits="userSpaceOnUse">
<stop stop-color="#FEB688" stop-opacity="0.29"/>
<stop offset="0.06" stop-color="#EF9358" stop-opacity="0.19"/>
<stop offset="0.11" stop-color="#E37832" stop-opacity="0.1"/>
<stop offset="0.18" stop-color="#DB6417" stop-opacity="0.05"/>
<stop offset="0.26" stop-color="#D65908" stop-opacity="0.01"/>
<stop offset="0.37" stop-color="#D45503" stop-opacity="0"/>
<stop offset="0.48" stop-color="#D55706" stop-opacity="0.01"/>
<stop offset="0.58" stop-color="#D85E10" stop-opacity="0.06"/>
<stop offset="0.67" stop-color="#DD6A20" stop-opacity="0.13"/>
<stop offset="0.76" stop-color="#E47B36" stop-opacity="0.23"/>
<stop offset="0.85" stop-color="#EE9053" stop-opacity="0.36"/>
<stop offset="0.94" stop-color="#F9AA76" stop-opacity="0.51"/>
<stop offset="0.98" stop-color="#FFB88A" stop-opacity="0.6"/>
</linearGradient>
<linearGradient id="paint7_linear_7004_4381" x1="1032.37" y1="746.01" x2="477.919" y2="668.09" gradientUnits="userSpaceOnUse">
<stop stop-color="#FFB9CC"/>
<stop offset="1" stop-color="#D45503"/>
</linearGradient>
<linearGradient id="paint8_linear_7004_4381" x1="1032.37" y1="746.01" x2="477.919" y2="668.09" gradientUnits="userSpaceOnUse">
<stop stop-color="#FFB9CC"/>
<stop offset="1" stop-color="#FFB007"/>
</linearGradient>
<clipPath id="clip0_7004_4381">
<rect width="1440" height="972" fill="white" transform="matrix(-1 0 0 1 1440 0)"/>
</clipPath>
</defs>
</svg>
