<svg width="22" height="22" viewBox="0 0 22 22" fill="none" xmlns="http://www.w3.org/2000/svg">
<path d="M11.0003 0.499856C11.9613 0.499856 12.8871 0.624856 13.7777 0.874856C14.6683 1.12486 15.5043 1.47642 16.2855 1.92954C17.0668 2.38267 17.7777 2.93345 18.4183 3.58189C19.0589 4.23033 19.6058 4.93736 20.0589 5.70298C20.5121 6.46861 20.8675 7.30454 21.1253 8.21079C21.3832 9.11704 21.5082 10.0467 21.5003 10.9999C21.5003 11.9608 21.3753 12.8866 21.1253 13.7772C20.8753 14.6678 20.5238 15.5038 20.0707 16.285C19.6175 17.0663 19.0668 17.7772 18.4183 18.4178C17.7699 19.0585 17.0628 19.6053 16.2972 20.0585C15.5316 20.5116 14.6957 20.867 13.7894 21.1249C12.8832 21.3827 11.9535 21.5077 11.0003 21.4999C10.0394 21.4999 9.11363 21.3749 8.223 21.1249C7.33238 20.8749 6.49644 20.5233 5.71519 20.0702C4.93394 19.617 4.223 19.0663 3.58238 18.4178C2.94175 17.7694 2.39488 17.0624 1.94175 16.2967C1.48863 15.5311 1.13316 14.6952 0.875345 13.7889C0.617532 12.8827 0.492532 11.953 0.500345 10.9999C0.500345 10.0389 0.625345 9.11314 0.875345 8.22251C1.12534 7.33189 1.47691 6.49595 1.93003 5.7147C2.38316 4.93345 2.93394 4.22251 3.58238 3.58189C4.23081 2.94126 4.93785 2.39439 5.70347 1.94126C6.4691 1.48814 7.30503 1.13267 8.21128 0.874856C9.11753 0.617044 10.0472 0.492044 11.0003 0.499856ZM11.0003 19.9999C11.8285 19.9999 12.6253 19.8944 13.391 19.6835C14.1566 19.4725 14.8714 19.1678 15.5355 18.7694C16.1996 18.371 16.8089 17.9022 17.3636 17.3631C17.9183 16.8241 18.3871 16.2186 18.7699 15.5467C19.1527 14.8749 19.4535 14.1561 19.6722 13.3905C19.891 12.6249 20.0003 11.828 20.0003 10.9999C20.0003 10.1717 19.8949 9.37486 19.6839 8.60923C19.473 7.84361 19.1683 7.12876 18.7699 6.4647C18.3714 5.80064 17.9027 5.19126 17.3636 4.63658C16.8246 4.08189 16.2191 3.61314 15.5472 3.23033C14.8753 2.84751 14.1566 2.54673 13.391 2.32798C12.6253 2.10923 11.8285 1.99986 11.0003 1.99986C10.1722 1.99986 9.37535 2.10533 8.60972 2.31626C7.8441 2.5272 7.12925 2.83189 6.46519 3.23033C5.80113 3.62876 5.19175 4.09751 4.63706 4.63658C4.08238 5.17564 3.61363 5.78111 3.23081 6.45298C2.848 7.12486 2.54722 7.84361 2.32847 8.60923C2.10972 9.37486 2.00034 10.1717 2.00034 10.9999C2.00034 11.828 2.10581 12.6249 2.31675 13.3905C2.52769 14.1561 2.83238 14.871 3.23081 15.535C3.62925 16.1991 4.098 16.8085 4.63706 17.3631C5.17613 17.9178 5.7816 18.3866 6.45347 18.7694C7.12535 19.1522 7.8441 19.453 8.60972 19.6717C9.37535 19.8905 10.1722 19.9999 11.0003 19.9999ZM11.0003 6.49986C11.6175 6.49986 12.1996 6.61704 12.7464 6.85142C13.2933 7.08579 13.7699 7.41001 14.1761 7.82408C14.5824 8.23814 14.9027 8.7147 15.1371 9.25376C15.3714 9.79283 15.4925 10.3749 15.5003 10.9999C15.5003 11.617 15.3832 12.1991 15.1488 12.746C14.9144 13.2928 14.5902 13.7694 14.1761 14.1756C13.7621 14.5819 13.2855 14.9022 12.7464 15.1366C12.2074 15.371 11.6253 15.492 11.0003 15.4999C10.3832 15.4999 9.80113 15.3827 9.25425 15.1483C8.70738 14.9139 8.23081 14.5897 7.82456 14.1756C7.41831 13.7616 7.098 13.285 6.86363 12.746C6.62925 12.2069 6.50816 11.6249 6.50035 10.9999C6.50035 10.3827 6.61753 9.80064 6.85191 9.25376C7.08628 8.70689 7.4105 8.23033 7.82456 7.82408C8.23863 7.41783 8.71519 7.09751 9.25425 6.86314C9.79331 6.62876 10.3753 6.50767 11.0003 6.49986Z" fill="#6C696A"/>
</svg>
