<svg width="18" height="18" viewBox="0 0 18 18" fill="none" xmlns="http://www.w3.org/2000/svg">
<path fill-rule="evenodd" clip-rule="evenodd" d="M9.54 8.5527L13.0419 12.0546L12.2787 12.8187L8.46 9V3.6H9.54V8.5527ZM9 18C4.0293 18 0 13.9707 0 9C0 4.0293 4.0293 0 9 0C13.9707 0 18 4.0293 18 9C18 13.9707 13.9707 18 9 18ZM9 16.92C11.1005 16.92 13.115 16.0856 14.6003 14.6003C16.0856 13.115 16.92 11.1005 16.92 9C16.92 6.89949 16.0856 4.885 14.6003 3.39971C13.115 1.91443 11.1005 1.08 9 1.08C6.89949 1.08 4.885 1.91443 3.39971 3.39971C1.91443 4.885 1.08 6.89949 1.08 9C1.08 11.1005 1.91443 13.115 3.39971 14.6003C4.885 16.0856 6.89949 16.92 9 16.92Z" fill="#6C696A"/>
</svg>
