<svg width="65" height="65" viewBox="0 0 65 65" fill="none" xmlns="http://www.w3.org/2000/svg">
<g clip-path="url(#clip0_8152_4762)">
<path d="M9.37258 54.8822C-3.13905 42.3706 -3.13905 22.139 9.37258 9.62742C21.8842 -2.88421 42.1158 -2.88421 54.6274 9.62742C67.139 22.139 67.139 42.3706 54.6274 54.8822C42.1158 67.3939 21.8842 67.3939 9.37258 54.8822ZM51.9654 12.2895C40.9179 1.24196 23.0821 1.24196 12.0346 12.2895C0.987128 23.337 0.987129 41.1727 12.0346 52.2202C23.0821 63.2677 40.9179 63.2677 51.9654 52.2202C63.0129 41.1727 63.0129 23.337 51.9654 12.2895Z" fill="#FAFAFA"/>
<path d="M41.0536 46.0513L41.0536 22.9451L17.9474 22.9451L17.9474 19.0477L44.951 19.0477L44.951 46.0513H41.0536Z" fill="#FAFAFA"/>
<path d="M41.6094 19.6035L44.3933 22.3874L20.7303 46.0504L17.9464 43.2665L41.6094 19.6035Z" fill="#FAFAFA"/>
</g>
<defs>
<clipPath id="clip0_8152_4762">
<rect width="65" height="65" fill="white"/>
</clipPath>
</defs>
</svg>
