<svg width="18" height="17" viewBox="0 0 18 17" fill="none" xmlns="http://www.w3.org/2000/svg">
<path d="M16.3125 16.9375H1.6875C0.75375 16.9375 0 16.1838 0 15.25V1.75C0 0.81625 0.75375 0.0625 1.6875 0.0625H16.3125C17.2463 0.0625 18 0.81625 18 1.75V15.25C18 16.1838 17.2463 16.9375 16.3125 16.9375ZM1.6875 1.1875C1.3725 1.1875 1.125 1.435 1.125 1.75V15.25C1.125 15.565 1.3725 15.8125 1.6875 15.8125H16.3125C16.6275 15.8125 16.875 15.565 16.875 15.25V1.75C16.875 1.435 16.6275 1.1875 16.3125 1.1875H1.6875Z" fill="#6C696A"/>
</svg>
