<svg width="18" height="7" viewBox="0 0 18 7" fill="none" xmlns="http://www.w3.org/2000/svg">
<path d="M5.0625 4.625C4.7475 4.625 4.5 4.3775 4.5 4.0625V0.6875C4.5 0.3725 4.7475 0.125 5.0625 0.125C5.3775 0.125 5.625 0.3725 5.625 0.6875V4.0625C5.625 4.3775 5.3775 4.625 5.0625 4.625ZM12.9375 4.625C12.6225 4.625 12.375 4.3775 12.375 4.0625V0.6875C12.375 0.3725 12.6225 0.125 12.9375 0.125C13.2525 0.125 13.5 0.3725 13.5 0.6875V4.0625C13.5 4.3775 13.2525 4.625 12.9375 4.625ZM17.4375 6.875H0.5625C0.2475 6.875 0 6.6275 0 6.3125C0 5.9975 0.2475 5.75 0.5625 5.75H17.4375C17.7525 5.75 18 5.9975 18 6.3125C18 6.6275 17.7525 6.875 17.4375 6.875Z" fill="#6C696A"/>
</svg>
