<svg width="20" height="14" viewBox="0 0 20 14" fill="none" xmlns="http://www.w3.org/2000/svg">
<path fill-rule="evenodd" clip-rule="evenodd" d="M12.708 0.299C12.669 0.210061 12.6048 0.134421 12.5235 0.0813222C12.4422 0.0282234 12.3471 -3.49651e-05 12.25 3.24686e-08H9.5V1H11.9235L12.8015 3H11.866C11.0092 2.99985 10.1702 3.24486 9.44817 3.70609C8.72611 4.16733 8.15109 4.82553 7.791 5.603L6.276 4.1405C6.18277 4.05038 6.05817 4 5.9285 4H1.5C1.36739 4 1.24022 4.05268 1.14645 4.14645C1.05268 4.24021 1 4.36739 1 4.5V6.5C1 6.63261 1.05268 6.75979 1.14645 6.85355C1.24022 6.94732 1.36739 7 1.5 7H6.085C6.00499 7.22631 5.98046 7.46852 6.01347 7.70627C6.04648 7.94403 6.13606 8.17039 6.2747 8.36635C6.41334 8.5623 6.59697 8.72212 6.81019 8.83238C7.0234 8.94264 7.25997 9.00013 7.5 9H8.206L8.9005 10.25H6.462C6.3342 9.44269 5.90698 8.71315 5.26544 8.20667C4.6239 7.7002 3.81512 7.45397 3.00019 7.51703C2.18527 7.58009 1.42399 7.9478 0.868 8.54693C0.312008 9.14606 0.00210036 9.93264 3.09689e-06 10.75C-0.00112732 11.5693 0.307243 12.3588 0.863384 12.9605C1.41952 13.5622 2.18239 13.9316 2.99928 13.9948C3.81616 14.058 4.62678 13.8103 5.26886 13.3014C5.91093 12.7924 6.33708 12.0597 6.462 11.25H11.25C11.3244 11.25 11.3978 11.2333 11.4649 11.2013C11.532 11.1693 11.5912 11.1227 11.638 11.065L14.692 7.3065L15.001 8.01C14.3113 8.45081 13.8133 9.13564 13.6066 9.92764C13.3998 10.7197 13.4996 11.5605 13.8858 12.2822C14.2721 13.0038 14.9165 13.5532 15.6902 13.8204C16.4639 14.0876 17.3099 14.0531 18.0592 13.7236C18.8086 13.3942 19.406 12.7941 19.7321 12.0434C20.0582 11.2926 20.0891 10.4464 19.8184 9.67391C19.5478 8.9014 18.9956 8.25947 18.2722 7.87638C17.5489 7.4933 16.7076 7.39727 15.9165 7.6075L15.0475 5.6285L18.107 6.099L17.392 1.8135L13.9535 3.136L12.708 0.299ZM9.35 9L10.044 10.25H11.012L13.6525 7H12V7.5C12 7.89782 11.842 8.27936 11.5607 8.56066C11.2794 8.84196 10.8978 9 10.5 9H9.35ZM10.5 8C10.6326 8 10.7598 7.94732 10.8536 7.85355C10.9473 7.75979 11 7.63261 11 7.5V7H7.5C7.36739 7 7.24022 7.05268 7.14645 7.14645C7.05268 7.24021 7 7.36739 7 7.5C7 7.63261 7.05268 7.75979 7.14645 7.85355C7.24022 7.94732 7.36739 8 7.5 8H10.5ZM11.866 4C11.2043 3.9998 10.5562 4.18771 9.99724 4.54182C9.43828 4.89593 8.9915 5.40165 8.709 6H14.119L13.2405 4H11.866ZM14.356 4.0525L14.571 4.5435L16.893 4.901L16.608 3.1865L14.356 4.0525ZM3.25 8.5C3.75997 8.49983 4.25487 8.6729 4.65359 8.99086C5.0523 9.30881 5.33118 9.75278 5.4445 10.25H3.25C3.11739 10.25 2.99022 10.3027 2.89645 10.3964C2.80268 10.4902 2.75 10.6174 2.75 10.75C2.75 10.8826 2.80268 11.0098 2.89645 11.1036C2.99022 11.1973 3.11739 11.25 3.25 11.25H5.4445C5.32043 11.7884 5.00271 12.2623 4.55182 12.5816C4.10093 12.9009 3.54837 13.0432 2.99935 12.9814C2.45033 12.9196 1.9432 12.6581 1.57452 12.2466C1.20584 11.8352 1.00135 11.3025 1 10.75C1 10.1533 1.23706 9.58097 1.65901 9.15901C2.08097 8.73705 2.65327 8.5 3.25 8.5ZM14.5 10.75C14.5 10.0095 14.858 9.352 15.41 8.942L16.292 10.951C16.3453 11.0725 16.4447 11.1678 16.5683 11.216C16.6919 11.2642 16.8295 11.2613 16.951 11.208C17.0725 11.1547 17.1678 11.0553 17.216 10.9317C17.2642 10.8081 17.2613 10.6705 17.208 10.549L16.326 8.54C16.4633 8.51333 16.6047 8.5 16.75 8.5C17.195 8.5 17.63 8.63196 18 8.87919C18.37 9.12643 18.6584 9.47783 18.8287 9.88896C18.999 10.3001 19.0436 10.7525 18.9568 11.189C18.87 11.6254 18.6557 12.0263 18.341 12.341C18.0263 12.6557 17.6254 12.8699 17.189 12.9568C16.7525 13.0436 16.3001 12.999 15.889 12.8287C15.4778 12.6584 15.1264 12.37 14.8792 12C14.632 11.63 14.5 11.195 14.5 10.75ZM5.7265 5L6.7625 6H2V5H5.7265Z" fill="#0B0A0A"/>
</svg>
