<svg width="36" height="40" viewBox="0 0 36 40" fill="none" xmlns="http://www.w3.org/2000/svg">
<path d="M18 19.9998L34.146 10.7498M18 19.9998V38.4998M18 19.9998L9.926 15.3758M34.146 10.7498C33.5858 9.78795 32.7822 8.99055 31.816 8.43779L26.5 5.39179M34.146 10.7498C34.696 11.6938 35 12.7798 35 13.9098V26.0898C34.9994 27.2017 34.7045 28.2937 34.1453 29.2548C33.586 30.2159 32.7824 31.0118 31.816 31.5618L21.184 37.6538C20.2147 38.2088 19.117 38.5005 18 38.4998M18 38.4998C16.883 38.5005 15.7853 38.2088 14.816 37.6538L4.184 31.5618C2.214 30.4338 1 28.3498 1 26.0898V13.9098C0.99971 12.7997 1.29369 11.7093 1.852 10.7498M9.926 15.3758L1.852 10.7498M9.926 15.3758L26.5 5.39179M26.5 5.39179L21.184 2.34579C20.2149 1.78999 19.1172 1.49756 18 1.49756C16.8828 1.49756 15.7851 1.78999 14.816 2.34579L4.184 8.43779C3.21711 8.99028 2.41279 9.78769 1.852 10.7498" stroke="white" stroke-width="2" stroke-linejoin="round"/>
</svg>
